<svg width="1000" height="300" xmlns="http://www.w3.org/2000/svg" xmlns:xlink="http://www.w3.org/1999/xlink" version="1.1" baseProfile="full" viewBox="0 0 1000 300">
<rect width="1000" height="300" x="0" y="0" id="0" fill="#ffffff"></rect>
<path d="M68.2 271.5L921.8 271.5" fill="none" stroke="#E0E6F1"></path>
<path d="M68.2 226.5L921.8 226.5" fill="none" stroke="#E0E6F1"></path>
<path d="M68.2 182.5L921.8 182.5" fill="none" stroke="#E0E6F1"></path>
<path d="M68.2 138.5L921.8 138.5" fill="none" stroke="#E0E6F1"></path>
<path d="M68.2 94.5L921.8 94.5" fill="none" stroke="#E0E6F1"></path>
<path d="M68.2 60.5L921.8 60.5" fill="none" stroke="#E0E6F1"></path>
<path d="M68.2 271.5L921.8 271.5" fill="none" stroke="#6E7079" stroke-linecap="round"></path>
<path d="M69.5 271L69.5 276" fill="none" stroke="#6E7079"></path>
<path d="M118.5 271L118.5 276" fill="none" stroke="#6E7079"></path>
<path d="M166.5 271L166.5 276" fill="none" stroke="#6E7079"></path>
<path d="M214.5 271L214.5 276" fill="none" stroke="#6E7079"></path>
<path d="M262.5 271L262.5 276" fill="none" stroke="#6E7079"></path>
<path d="M310.5 271L310.5 276" fill="none" stroke="#6E7079"></path>
<path d="M359.5 271L359.5 276" fill="none" stroke="#6E7079"></path>
<path d="M407.5 271L407.5 276" fill="none" stroke="#6E7079"></path>
<path d="M455.5 271L455.5 276" fill="none" stroke="#6E7079"></path>
<path d="M503.5 271L503.5 276" fill="none" stroke="#6E7079"></path>
<path d="M551.5 271L551.5 276" fill="none" stroke="#6E7079"></path>
<path d="M600.5 271L600.5 276" fill="none" stroke="#6E7079"></path>
<path d="M648.5 271L648.5 276" fill="none" stroke="#6E7079"></path>
<path d="M696.5 271L696.5 276" fill="none" stroke="#6E7079"></path>
<path d="M744.5 271L744.5 276" fill="none" stroke="#6E7079"></path>
<path d="M792.5 271L792.5 276" fill="none" stroke="#6E7079"></path>
<path d="M841.5 271L841.5 276" fill="none" stroke="#6E7079"></path>
<path d="M889.5 271L889.5 276" fill="none" stroke="#6E7079"></path>
<text dominant-baseline="central" text-anchor="end" style="font-size:12px;font-family:sans-serif;" transform="translate(60.24 271)" fill="#6E7079">0</text>
<text dominant-baseline="central" text-anchor="end" style="font-size:12px;font-family:sans-serif;" transform="translate(60.24 226.716)" fill="#6E7079">510</text>
<text dominant-baseline="central" text-anchor="end" style="font-size:12px;font-family:sans-serif;" transform="translate(60.24 182.4321)" fill="#6E7079">1,020</text>
<text dominant-baseline="central" text-anchor="end" style="font-size:12px;font-family:sans-serif;" transform="translate(60.24 138.1481)" fill="#6E7079">1,530</text>
<text dominant-baseline="central" text-anchor="end" style="font-size:12px;font-family:sans-serif;" transform="translate(60.24 93.8642)" fill="#6E7079">2,040</text>
<text dominant-baseline="central" text-anchor="end" style="font-size:12px;font-family:sans-serif;" transform="translate(60.24 60)" fill="#6E7079">2,430</text>
<text dominant-baseline="central" text-anchor="start" style="font-size:12px;font-family:sans-serif;" transform="translate(929.76 271)" fill="#6E7079">0</text>
<text dominant-baseline="central" text-anchor="start" style="font-size:12px;font-family:sans-serif;" transform="translate(929.76 226.716)" fill="#6E7079">510</text>
<text dominant-baseline="central" text-anchor="start" style="font-size:12px;font-family:sans-serif;" transform="translate(929.76 182.4321)" fill="#6E7079">1,020</text>
<text dominant-baseline="central" text-anchor="start" style="font-size:12px;font-family:sans-serif;" transform="translate(929.76 138.1481)" fill="#6E7079">1,530</text>
<text dominant-baseline="central" text-anchor="start" style="font-size:12px;font-family:sans-serif;" transform="translate(929.76 93.8642)" fill="#6E7079">2,040</text>
<text dominant-baseline="central" text-anchor="start" style="font-size:12px;font-family:sans-serif;" transform="translate(929.76 60)" fill="#6E7079">2,430</text>
<text dominant-baseline="central" text-anchor="middle" style="font-size:12px;font-family:sans-serif;" y="6" transform="translate(69.6578 279)" fill="#6E7079">1km</text>
<text dominant-baseline="central" text-anchor="middle" style="font-size:12px;font-family:sans-serif;" y="6" transform="translate(117.8633 279)" fill="#6E7079">18km</text>
<text dominant-baseline="central" text-anchor="middle" style="font-size:12px;font-family:sans-serif;" y="6" transform="translate(166.0687 279)" fill="#6E7079">35km</text>
<text dominant-baseline="central" text-anchor="middle" style="font-size:12px;font-family:sans-serif;" y="6" transform="translate(214.2742 279)" fill="#6E7079">52km</text>
<text dominant-baseline="central" text-anchor="middle" style="font-size:12px;font-family:sans-serif;" y="6" transform="translate(262.4796 279)" fill="#6E7079">69km</text>
<text dominant-baseline="central" text-anchor="middle" style="font-size:12px;font-family:sans-serif;" y="6" transform="translate(310.685 279)" fill="#6E7079">86km</text>
<text dominant-baseline="central" text-anchor="middle" style="font-size:12px;font-family:sans-serif;" y="6" transform="translate(358.8905 279)" fill="#6E7079">103km</text>
<text dominant-baseline="central" text-anchor="middle" style="font-size:12px;font-family:sans-serif;" y="6" transform="translate(407.0959 279)" fill="#6E7079">120km</text>
<text dominant-baseline="central" text-anchor="middle" style="font-size:12px;font-family:sans-serif;" y="6" transform="translate(455.3014 279)" fill="#6E7079">137km</text>
<text dominant-baseline="central" text-anchor="middle" style="font-size:12px;font-family:sans-serif;" y="6" transform="translate(503.5068 279)" fill="#6E7079">154km</text>
<text dominant-baseline="central" text-anchor="middle" style="font-size:12px;font-family:sans-serif;" y="6" transform="translate(551.7123 279)" fill="#6E7079">171km</text>
<text dominant-baseline="central" text-anchor="middle" style="font-size:12px;font-family:sans-serif;" y="6" transform="translate(599.9177 279)" fill="#6E7079">188km</text>
<text dominant-baseline="central" text-anchor="middle" style="font-size:12px;font-family:sans-serif;" y="6" transform="translate(648.1232 279)" fill="#6E7079">205km</text>
<text dominant-baseline="central" text-anchor="middle" style="font-size:12px;font-family:sans-serif;" y="6" transform="translate(696.3286 279)" fill="#6E7079">222km</text>
<text dominant-baseline="central" text-anchor="middle" style="font-size:12px;font-family:sans-serif;" y="6" transform="translate(744.5341 279)" fill="#6E7079">239km</text>
<text dominant-baseline="central" text-anchor="middle" style="font-size:12px;font-family:sans-serif;" y="6" transform="translate(792.7395 279)" fill="#6E7079">256km</text>
<text dominant-baseline="central" text-anchor="middle" style="font-size:12px;font-family:sans-serif;" y="6" transform="translate(840.945 279)" fill="#6E7079">273km</text>
<text dominant-baseline="central" text-anchor="middle" style="font-size:12px;font-family:sans-serif;" y="6" transform="translate(889.1504 279)" fill="#6E7079">290km</text>
<path d="M68.7 271l2 0l0 -210.9l-2 0Z" fill="rgb(227,73,2)" fill-opacity="0.3"></path>
<path d="M71.5 271l2 0l0 -210.3l-2 0Z" fill="rgb(227,73,2)" fill-opacity="0.3"></path>
<path d="M74.4 271l2 0l0 -209.4l-2 0Z" fill="rgb(227,73,2)" fill-opacity="0.3"></path>
<path d="M77.2 271l2 0l0 -209.1l-2 0Z" fill="rgb(227,73,2)" fill-opacity="0.3"></path>
<path d="M80 271l2 0l0 -208.7l-2 0Z" fill="rgb(227,73,2)" fill-opacity="0.3"></path>
<path d="M82.9 271l2 0l0 -208.2l-2 0Z" fill="rgb(227,73,2)" fill-opacity="0.3"></path>
<path d="M85.7 271l2 0l0 -207.8l-2 0Z" fill="rgb(227,73,2)" fill-opacity="0.3"></path>
<path d="M88.5 271l2 0l0 -207.6l-2 0Z" fill="rgb(227,73,2)" fill-opacity="0.3"></path>
<path d="M91.4 271l2 0l0 -207.4l-2 0Z" fill="rgb(227,73,2)" fill-opacity="0.3"></path>
<path d="M94.2 271l2 0l0 -207.4l-2 0Z" fill="rgb(227,73,2)" fill-opacity="0.3"></path>
<path d="M97 271l2 0l0 -207.3l-2 0Z" fill="rgb(227,73,2)" fill-opacity="0.3"></path>
<path d="M99.9 271l2 0l0 -207l-2 0Z" fill="rgb(227,73,2)" fill-opacity="0.3"></path>
<path d="M102.7 271l2 0l0 -206.9l-2 0Z" fill="rgb(227,73,2)" fill-opacity="0.3"></path>
<path d="M105.5 271l2 0l0 -206.8l-2 0Z" fill="rgb(227,73,2)" fill-opacity="0.3"></path>
<path d="M108.4 271l2 0l0 -206.7l-2 0Z" fill="rgb(227,73,2)" fill-opacity="0.3"></path>
<path d="M111.2 271l2 0l0 -206.5l-2 0Z" fill="rgb(227,73,2)" fill-opacity="0.3"></path>
<path d="M114 271l2 0l0 -206.1l-2 0Z" fill="rgb(227,73,2)" fill-opacity="0.3"></path>
<path d="M116.9 271l2 0l0 -205.8l-2 0Z" fill="rgb(227,73,2)" fill-opacity="0.3"></path>
<path d="M119.7 271l2 0l0 -205.6l-2 0Z" fill="rgb(227,73,2)" fill-opacity="0.3"></path>
<path d="M122.6 271l2 0l0 -205.5l-2 0Z" fill="rgb(227,73,2)" fill-opacity="0.3"></path>
<path d="M125.4 271l2 0l0 -204.5l-2 0Z" fill="rgb(227,73,2)" fill-opacity="0.3"></path>
<path d="M128.2 271l2 0l0 -203.6l-2 0Z" fill="rgb(227,73,2)" fill-opacity="0.3"></path>
<path d="M131.1 271l2 0l0 -203.1l-2 0Z" fill="rgb(227,73,2)" fill-opacity="0.3"></path>
<path d="M133.9 271l2 0l0 -202.5l-2 0Z" fill="rgb(227,73,2)" fill-opacity="0.3"></path>
<path d="M136.7 271l2 0l0 -202.1l-2 0Z" fill="rgb(227,73,2)" fill-opacity="0.3"></path>
<path d="M139.6 271l2 0l0 -201l-2 0Z" fill="rgb(227,73,2)" fill-opacity="0.3"></path>
<path d="M142.4 271l2 0l0 -200.4l-2 0Z" fill="rgb(227,73,2)" fill-opacity="0.3"></path>
<path d="M145.2 271l2 0l0 -199.6l-2 0Z" fill="rgb(227,73,2)" fill-opacity="0.3"></path>
<path d="M148.1 271l2 0l0 -199.4l-2 0Z" fill="rgb(227,73,2)" fill-opacity="0.3"></path>
<path d="M150.9 271l2 0l0 -199.2l-2 0Z" fill="rgb(227,73,2)" fill-opacity="0.3"></path>
<path d="M153.7 271l2 0l0 -196.6l-2 0Z" fill="rgb(227,73,2)" fill-opacity="0.3"></path>
<path d="M156.6 271l2 0l0 -194.7l-2 0Z" fill="rgb(227,73,2)" fill-opacity="0.3"></path>
<path d="M159.4 271l2 0l0 -192.5l-2 0Z" fill="rgb(227,73,2)" fill-opacity="0.3"></path>
<path d="M162.3 271l2 0l0 -190.8l-2 0Z" fill="rgb(227,73,2)" fill-opacity="0.3"></path>
<path d="M165.1 271l2 0l0 -189.6l-2 0Z" fill="rgb(227,73,2)" fill-opacity="0.3"></path>
<path d="M167.9 271l2 0l0 -184.3l-2 0Z" fill="rgb(227,73,2)" fill-opacity="0.3"></path>
<path d="M170.8 271l2 0l0 -182.1l-2 0Z" fill="rgb(227,73,2)" fill-opacity="0.3"></path>
<path d="M173.6 271l2 0l0 -180.4l-2 0Z" fill="rgb(227,73,2)" fill-opacity="0.3"></path>
<path d="M176.4 271l2 0l0 -179.2l-2 0Z" fill="rgb(227,73,2)" fill-opacity="0.3"></path>
<path d="M179.3 271l2 0l0 -178.7l-2 0Z" fill="rgb(227,73,2)" fill-opacity="0.3"></path>
<path d="M182.1 271l2 0l0 -176.1l-2 0Z" fill="rgb(227,73,2)" fill-opacity="0.3"></path>
<path d="M184.9 271l2 0l0 -175.1l-2 0Z" fill="rgb(227,73,2)" fill-opacity="0.3"></path>
<path d="M187.8 271l2 0l0 -174.4l-2 0Z" fill="rgb(227,73,2)" fill-opacity="0.3"></path>
<path d="M190.6 271l2 0l0 -173.7l-2 0Z" fill="rgb(227,73,2)" fill-opacity="0.3"></path>
<path d="M193.4 271l2 0l0 -173l-2 0Z" fill="rgb(227,73,2)" fill-opacity="0.3"></path>
<path d="M196.3 271l2 0l0 -172.3l-2 0Z" fill="rgb(227,73,2)" fill-opacity="0.3"></path>
<path d="M199.1 271l2 0l0 -171.8l-2 0Z" fill="rgb(227,73,2)" fill-opacity="0.3"></path>
<path d="M202 271l2 0l0 -171.6l-2 0Z" fill="rgb(227,73,2)" fill-opacity="0.3"></path>
<path d="M204.8 271l2 0l0 -170.8l-2 0Z" fill="rgb(227,73,2)" fill-opacity="0.3"></path>
<path d="M207.6 271l2 0l0 -170.6l-2 0Z" fill="rgb(227,73,2)" fill-opacity="0.3"></path>
<path d="M210.5 271l2 0l0 -155.9l-2 0Z" fill="rgb(227,73,2)" fill-opacity="0.3"></path>
<path d="M213.3 271l2 0l0 -145.7l-2 0Z" fill="rgb(227,73,2)" fill-opacity="0.3"></path>
<path d="M216.1 271l2 0l0 -140l-2 0Z" fill="rgb(227,73,2)" fill-opacity="0.3"></path>
<path d="M219 271l2 0l0 -133.9l-2 0Z" fill="rgb(227,73,2)" fill-opacity="0.3"></path>
<path d="M221.8 271l2 0l0 -130.7l-2 0Z" fill="rgb(227,73,2)" fill-opacity="0.3"></path>
<path d="M224.6 271l2 0l0 -126.1l-2 0Z" fill="rgb(227,73,2)" fill-opacity="0.3"></path>
<path d="M227.5 271l2 0l0 -122.3l-2 0Z" fill="rgb(227,73,2)" fill-opacity="0.3"></path>
<path d="M230.3 271l2 0l0 -119.2l-2 0Z" fill="rgb(227,73,2)" fill-opacity="0.3"></path>
<path d="M233.1 271l2 0l0 -117.7l-2 0Z" fill="rgb(227,73,2)" fill-opacity="0.3"></path>
<path d="M236 271l2 0l0 -116.6l-2 0Z" fill="rgb(227,73,2)" fill-opacity="0.3"></path>
<path d="M238.8 271l2 0l0 -111.1l-2 0Z" fill="rgb(227,73,2)" fill-opacity="0.3"></path>
<path d="M241.7 271l2 0l0 -107.8l-2 0Z" fill="rgb(227,73,2)" fill-opacity="0.3"></path>
<path d="M244.5 271l2 0l0 -104.8l-2 0Z" fill="rgb(227,73,2)" fill-opacity="0.3"></path>
<path d="M247.3 271l2 0l0 -102.5l-2 0Z" fill="rgb(227,73,2)" fill-opacity="0.3"></path>
<path d="M250.2 271l2 0l0 -101l-2 0Z" fill="rgb(227,73,2)" fill-opacity="0.3"></path>
<path d="M253 271l2 0l0 -98.6l-2 0Z" fill="rgb(227,73,2)" fill-opacity="0.3"></path>
<path d="M255.8 271l2 0l0 -95.9l-2 0Z" fill="rgb(227,73,2)" fill-opacity="0.3"></path>
<path d="M258.7 271l2 0l0 -94.5l-2 0Z" fill="rgb(227,73,2)" fill-opacity="0.3"></path>
<path d="M261.5 271l2 0l0 -93.2l-2 0Z" fill="rgb(227,73,2)" fill-opacity="0.3"></path>
<path d="M264.3 271l2 0l0 -92.6l-2 0Z" fill="rgb(227,73,2)" fill-opacity="0.3"></path>
<path d="M267.2 271l2 0l0 -91.4l-2 0Z" fill="rgb(227,73,2)" fill-opacity="0.3"></path>
<path d="M270 271l2 0l0 -90.2l-2 0Z" fill="rgb(227,73,2)" fill-opacity="0.3"></path>
<path d="M272.8 271l2 0l0 -89.3l-2 0Z" fill="rgb(227,73,2)" fill-opacity="0.3"></path>
<path d="M275.7 271l2 0l0 -88.8l-2 0Z" fill="rgb(227,73,2)" fill-opacity="0.3"></path>
<path d="M278.5 271l2 0l0 -88.3l-2 0Z" fill="rgb(227,73,2)" fill-opacity="0.3"></path>
<path d="M281.4 271l2 0l0 -86.8l-2 0Z" fill="rgb(227,73,2)" fill-opacity="0.3"></path>
<path d="M284.2 271l2 0l0 -85.5l-2 0Z" fill="rgb(227,73,2)" fill-opacity="0.3"></path>
<path d="M287 271l2 0l0 -84.7l-2 0Z" fill="rgb(227,73,2)" fill-opacity="0.3"></path>
<path d="M289.9 271l2 0l0 -83.9l-2 0Z" fill="rgb(227,73,2)" fill-opacity="0.3"></path>
<path d="M292.7 271l2 0l0 -83.5l-2 0Z" fill="rgb(227,73,2)" fill-opacity="0.3"></path>
<path d="M295.5 271l2 0l0 -82.3l-2 0Z" fill="rgb(227,73,2)" fill-opacity="0.3"></path>
<path d="M298.4 271l2 0l0 -81.8l-2 0Z" fill="rgb(227,73,2)" fill-opacity="0.3"></path>
<path d="M301.2 271l2 0l0 -81.3l-2 0Z" fill="rgb(227,73,2)" fill-opacity="0.3"></path>
<path d="M304 271l2 0l0 -80.8l-2 0Z" fill="rgb(227,73,2)" fill-opacity="0.3"></path>
<path d="M306.9 271l2 0l0 -80.2l-2 0Z" fill="rgb(227,73,2)" fill-opacity="0.3"></path>
<path d="M309.7 271l2 0l0 -79.4l-2 0Z" fill="rgb(227,73,2)" fill-opacity="0.3"></path>
<path d="M312.5 271l2 0l0 -78.7l-2 0Z" fill="rgb(227,73,2)" fill-opacity="0.3"></path>
<path d="M315.4 271l2 0l0 -78.3l-2 0Z" fill="rgb(227,73,2)" fill-opacity="0.3"></path>
<path d="M318.2 271l2 0l0 -77.7l-2 0Z" fill="rgb(227,73,2)" fill-opacity="0.3"></path>
<path d="M321 271l2 0l0 -77.2l-2 0Z" fill="rgb(227,73,2)" fill-opacity="0.3"></path>
<path d="M323.9 271l2 0l0 -76.8l-2 0Z" fill="rgb(227,73,2)" fill-opacity="0.3"></path>
<path d="M326.7 271l2 0l0 -76.8l-2 0Z" fill="rgb(227,73,2)" fill-opacity="0.3"></path>
<path d="M329.6 271l2 0l0 -76.5l-2 0Z" fill="rgb(227,73,2)" fill-opacity="0.3"></path>
<path d="M332.4 271l2 0l0 -76.5l-2 0Z" fill="rgb(227,73,2)" fill-opacity="0.3"></path>
<path d="M335.2 271l2 0l0 -76.4l-2 0Z" fill="rgb(227,73,2)" fill-opacity="0.3"></path>
<path d="M338.1 271l2 0l0 -76.4l-2 0Z" fill="rgb(227,73,2)" fill-opacity="0.3"></path>
<path d="M340.9 271l2 0l0 -76.3l-2 0Z" fill="rgb(227,73,2)" fill-opacity="0.3"></path>
<path d="M343.7 271l2 0l0 -76.3l-2 0Z" fill="rgb(227,73,2)" fill-opacity="0.3"></path>
<path d="M346.6 271l2 0l0 -76.3l-2 0Z" fill="rgb(227,73,2)" fill-opacity="0.3"></path>
<path d="M349.4 271l2 0l0 -76.2l-2 0Z" fill="rgb(227,73,2)" fill-opacity="0.3"></path>
<path d="M352.2 271l2 0l0 -72.9l-2 0Z" fill="rgb(227,73,2)" fill-opacity="0.3"></path>
<path d="M355.1 271l2 0l0 -69.4l-2 0Z" fill="rgb(227,73,2)" fill-opacity="0.3"></path>
<path d="M357.9 271l2 0l0 -66.6l-2 0Z" fill="rgb(227,73,2)" fill-opacity="0.3"></path>
<path d="M360.7 271l2 0l0 -64.2l-2 0Z" fill="rgb(227,73,2)" fill-opacity="0.3"></path>
<path d="M363.6 271l2 0l0 -62.3l-2 0Z" fill="rgb(227,73,2)" fill-opacity="0.3"></path>
<path d="M366.4 271l2 0l0 -60.3l-2 0Z" fill="rgb(227,73,2)" fill-opacity="0.3"></path>
<path d="M369.3 271l2 0l0 -58.7l-2 0Z" fill="rgb(227,73,2)" fill-opacity="0.3"></path>
<path d="M372.1 271l2 0l0 -56.8l-2 0Z" fill="rgb(227,73,2)" fill-opacity="0.3"></path>
<path d="M374.9 271l2 0l0 -55.2l-2 0Z" fill="rgb(227,73,2)" fill-opacity="0.3"></path>
<path d="M377.8 271l2 0l0 -54.4l-2 0Z" fill="rgb(227,73,2)" fill-opacity="0.3"></path>
<path d="M380.6 271l2 0l0 -53.2l-2 0Z" fill="rgb(227,73,2)" fill-opacity="0.3"></path>
<path d="M383.4 271l2 0l0 -51.9l-2 0Z" fill="rgb(227,73,2)" fill-opacity="0.3"></path>
<path d="M386.3 271l2 0l0 -50.3l-2 0Z" fill="rgb(227,73,2)" fill-opacity="0.3"></path>
<path d="M389.1 271l2 0l0 -48.4l-2 0Z" fill="rgb(227,73,2)" fill-opacity="0.3"></path>
<path d="M391.9 271l2 0l0 -47.1l-2 0Z" fill="rgb(227,73,2)" fill-opacity="0.3"></path>
<path d="M394.8 271l2 0l0 -46.1l-2 0Z" fill="rgb(227,73,2)" fill-opacity="0.3"></path>
<path d="M397.6 271l2 0l0 -45.2l-2 0Z" fill="rgb(227,73,2)" fill-opacity="0.3"></path>
<path d="M400.4 271l2 0l0 -44.3l-2 0Z" fill="rgb(227,73,2)" fill-opacity="0.3"></path>
<path d="M403.3 271l2 0l0 -43.1l-2 0Z" fill="rgb(227,73,2)" fill-opacity="0.3"></path>
<path d="M406.1 271l2 0l0 -42.9l-2 0Z" fill="rgb(227,73,2)" fill-opacity="0.3"></path>
<path d="M409 271l2 0l0 -40.7l-2 0Z" fill="rgb(227,73,2)" fill-opacity="0.3"></path>
<path d="M411.8 271l2 0l0 -39.2l-2 0Z" fill="rgb(227,73,2)" fill-opacity="0.3"></path>
<path d="M414.6 271l2 0l0 -38.2l-2 0Z" fill="rgb(227,73,2)" fill-opacity="0.3"></path>
<path d="M417.5 271l2 0l0 -37.2l-2 0Z" fill="rgb(227,73,2)" fill-opacity="0.3"></path>
<path d="M420.3 271l2 0l0 -36.6l-2 0Z" fill="rgb(227,73,2)" fill-opacity="0.3"></path>
<path d="M423.1 271l2 0l0 -35.5l-2 0Z" fill="rgb(227,73,2)" fill-opacity="0.3"></path>
<path d="M426 271l2 0l0 -34.6l-2 0Z" fill="rgb(227,73,2)" fill-opacity="0.3"></path>
<path d="M428.8 271l2 0l0 -33.7l-2 0Z" fill="rgb(227,73,2)" fill-opacity="0.3"></path>
<path d="M431.6 271l2 0l0 -33.2l-2 0Z" fill="rgb(227,73,2)" fill-opacity="0.3"></path>
<path d="M434.5 271l2 0l0 -32.8l-2 0Z" fill="rgb(227,73,2)" fill-opacity="0.3"></path>
<path d="M437.3 271l2 0l0 -32.1l-2 0Z" fill="rgb(227,73,2)" fill-opacity="0.3"></path>
<path d="M440.1 271l2 0l0 -31.7l-2 0Z" fill="rgb(227,73,2)" fill-opacity="0.3"></path>
<path d="M443 271l2 0l0 -31.2l-2 0Z" fill="rgb(227,73,2)" fill-opacity="0.3"></path>
<path d="M445.8 271l2 0l0 -30.2l-2 0Z" fill="rgb(227,73,2)" fill-opacity="0.3"></path>
<path d="M448.7 271l2 0l0 -29.6l-2 0Z" fill="rgb(227,73,2)" fill-opacity="0.3"></path>
<path d="M451.5 271l2 0l0 -28.8l-2 0Z" fill="rgb(227,73,2)" fill-opacity="0.3"></path>
<path d="M454.3 271l2 0l0 -28l-2 0Z" fill="rgb(227,73,2)" fill-opacity="0.3"></path>
<path d="M457.2 271l2 0l0 -27.5l-2 0Z" fill="rgb(227,73,2)" fill-opacity="0.3"></path>
<path d="M460 271l2 0l0 -27.3l-2 0Z" fill="rgb(227,73,2)" fill-opacity="0.3"></path>
<path d="M462.8 271l2 0l0 -26.8l-2 0Z" fill="rgb(227,73,2)" fill-opacity="0.3"></path>
<path d="M465.7 271l2 0l0 -26l-2 0Z" fill="rgb(227,73,2)" fill-opacity="0.3"></path>
<path d="M468.5 271l2 0l0 -24.8l-2 0Z" fill="rgb(227,73,2)" fill-opacity="0.3"></path>
<path d="M471.3 271l2 0l0 -24.2l-2 0Z" fill="rgb(227,73,2)" fill-opacity="0.3"></path>
<path d="M474.2 271l2 0l0 -23.8l-2 0Z" fill="rgb(227,73,2)" fill-opacity="0.3"></path>
<path d="M477 271l2 0l0 -23.5l-2 0Z" fill="rgb(227,73,2)" fill-opacity="0.3"></path>
<path d="M479.8 271l2 0l0 -23.3l-2 0Z" fill="rgb(227,73,2)" fill-opacity="0.3"></path>
<path d="M482.7 271l2 0l0 -23l-2 0Z" fill="rgb(227,73,2)" fill-opacity="0.3"></path>
<path d="M485.5 271l2 0l0 -22.7l-2 0Z" fill="rgb(227,73,2)" fill-opacity="0.3"></path>
<path d="M488.4 271l2 0l0 -22.6l-2 0Z" fill="rgb(227,73,2)" fill-opacity="0.3"></path>
<path d="M491.2 271l2 0l0 -22.3l-2 0Z" fill="rgb(227,73,2)" fill-opacity="0.3"></path>
<path d="M494 271l2 0l0 -21.8l-2 0Z" fill="rgb(227,73,2)" fill-opacity="0.3"></path>
<path d="M496.9 271l2 0l0 -21.4l-2 0Z" fill="rgb(227,73,2)" fill-opacity="0.3"></path>
<path d="M499.7 271l2 0l0 -20.9l-2 0Z" fill="rgb(227,73,2)" fill-opacity="0.3"></path>
<path d="M502.5 271l2 0l0 -20.2l-2 0Z" fill="rgb(227,73,2)" fill-opacity="0.3"></path>
<path d="M505.4 271l2 0l0 -19.8l-2 0Z" fill="rgb(227,73,2)" fill-opacity="0.3"></path>
<path d="M508.2 271l2 0l0 -19.4l-2 0Z" fill="rgb(227,73,2)" fill-opacity="0.3"></path>
<path d="M511 271l2 0l0 -19.2l-2 0Z" fill="rgb(227,73,2)" fill-opacity="0.3"></path>
<path d="M513.9 271l2 0l0 -19l-2 0Z" fill="rgb(227,73,2)" fill-opacity="0.3"></path>
<path d="M516.7 271l2 0l0 -18.8l-2 0Z" fill="rgb(227,73,2)" fill-opacity="0.3"></path>
<path d="M519.5 271l2 0l0 -18.8l-2 0Z" fill="rgb(227,73,2)" fill-opacity="0.3"></path>
<path d="M522.4 271l2 0l0 -18.7l-2 0Z" fill="rgb(227,73,2)" fill-opacity="0.3"></path>
<path d="M525.2 271l2 0l0 -17.8l-2 0Z" fill="rgb(227,73,2)" fill-opacity="0.3"></path>
<path d="M528 271l2 0l0 -17l-2 0Z" fill="rgb(227,73,2)" fill-opacity="0.3"></path>
<path d="M530.9 271l2 0l0 -16.5l-2 0Z" fill="rgb(227,73,2)" fill-opacity="0.3"></path>
<path d="M533.7 271l2 0l0 -16.3l-2 0Z" fill="rgb(227,73,2)" fill-opacity="0.3"></path>
<path d="M536.6 271l2 0l0 -15.7l-2 0Z" fill="rgb(227,73,2)" fill-opacity="0.3"></path>
<path d="M539.4 271l2 0l0 -15.5l-2 0Z" fill="rgb(227,73,2)" fill-opacity="0.3"></path>
<path d="M542.2 271l2 0l0 -15.2l-2 0Z" fill="rgb(227,73,2)" fill-opacity="0.3"></path>
<path d="M545.1 271l2 0l0 -15.2l-2 0Z" fill="rgb(227,73,2)" fill-opacity="0.3"></path>
<path d="M547.9 271l2 0l0 -15.1l-2 0Z" fill="rgb(227,73,2)" fill-opacity="0.3"></path>
<path d="M550.7 271l2 0l0 -15.1l-2 0Z" fill="rgb(227,73,2)" fill-opacity="0.3"></path>
<path d="M553.6 271l2 0l0 -14.9l-2 0Z" fill="rgb(227,73,2)" fill-opacity="0.8"></path>
<path d="M556.4 271l2 0l0 -14.7l-2 0Z" fill="rgb(227,73,2)" fill-opacity="0.3"></path>
<path d="M559.2 271l2 0l0 -14.4l-2 0Z" fill="rgb(227,73,2)" fill-opacity="0.3"></path>
<path d="M562.1 271l2 0l0 -14.4l-2 0Z" fill="rgb(227,73,2)" fill-opacity="0.3"></path>
<path d="M564.9 271l2 0l0 -13.9l-2 0Z" fill="rgb(227,73,2)" fill-opacity="0.3"></path>
<path d="M567.7 271l2 0l0 -13.8l-2 0Z" fill="rgb(227,73,2)" fill-opacity="0.3"></path>
<path d="M570.6 271l2 0l0 -13.6l-2 0Z" fill="rgb(227,73,2)" fill-opacity="0.3"></path>
<path d="M573.4 271l2 0l0 -13.6l-2 0Z" fill="rgb(227,73,2)" fill-opacity="0.3"></path>
<path d="M576.3 271l2 0l0 -13.6l-2 0Z" fill="rgb(227,73,2)" fill-opacity="0.3"></path>
<path d="M579.1 271l2 0l0 -13.6l-2 0Z" fill="rgb(227,73,2)" fill-opacity="0.3"></path>
<path d="M581.9 271l2 0l0 -13.6l-2 0Z" fill="rgb(227,73,2)" fill-opacity="0.3"></path>
<path d="M584.8 271l2 0l0 -13.5l-2 0Z" fill="rgb(227,73,2)" fill-opacity="0.3"></path>
<path d="M587.6 271l2 0l0 -13.3l-2 0Z" fill="rgb(227,73,2)" fill-opacity="0.3"></path>
<path d="M590.4 271l2 0l0 -13.1l-2 0Z" fill="rgb(227,73,2)" fill-opacity="0.3"></path>
<path d="M593.3 271l2 0l0 -13.1l-2 0Z" fill="rgb(227,73,2)" fill-opacity="0.3"></path>
<path d="M596.1 271l2 0l0 -13.1l-2 0Z" fill="rgb(227,73,2)" fill-opacity="0.3"></path>
<path d="M598.9 271l2 0l0 -13l-2 0Z" fill="rgb(227,73,2)" fill-opacity="0.3"></path>
<path d="M601.8 271l2 0l0 -12.9l-2 0Z" fill="rgb(227,73,2)" fill-opacity="0.3"></path>
<path d="M604.6 271l2 0l0 -12.9l-2 0Z" fill="rgb(227,73,2)" fill-opacity="0.3"></path>
<path d="M607.4 271l2 0l0 -12.9l-2 0Z" fill="rgb(227,73,2)" fill-opacity="0.3"></path>
<path d="M610.3 271l2 0l0 -12.9l-2 0Z" fill="rgb(227,73,2)" fill-opacity="0.3"></path>
<path d="M613.1 271l2 0l0 -12.9l-2 0Z" fill="rgb(227,73,2)" fill-opacity="0.3"></path>
<path d="M616 271l2 0l0 -12.9l-2 0Z" fill="rgb(227,73,2)" fill-opacity="0.3"></path>
<path d="M618.8 271l2 0l0 -12.9l-2 0Z" fill="rgb(227,73,2)" fill-opacity="0.3"></path>
<path d="M621.6 271l2 0l0 -12.9l-2 0Z" fill="rgb(227,73,2)" fill-opacity="0.3"></path>
<path d="M624.5 271l2 0l0 -12.9l-2 0Z" fill="rgb(227,73,2)" fill-opacity="0.3"></path>
<path d="M627.3 271l2 0l0 -12.9l-2 0Z" fill="rgb(227,73,2)" fill-opacity="0.3"></path>
<path d="M630.1 271l2 0l0 -12.9l-2 0Z" fill="rgb(227,73,2)" fill-opacity="0.3"></path>
<path d="M633 271l2 0l0 -12.9l-2 0Z" fill="rgb(227,73,2)" fill-opacity="0.3"></path>
<path d="M635.8 271l2 0l0 -12.2l-2 0Z" fill="rgb(227,73,2)" fill-opacity="0.3"></path>
<path d="M638.6 271l2 0l0 -10.8l-2 0Z" fill="rgb(227,73,2)" fill-opacity="0.3"></path>
<path d="M641.5 271l2 0l0 -9.9l-2 0Z" fill="rgb(227,73,2)" fill-opacity="0.3"></path>
<path d="M644.3 271l2 0l0 -9l-2 0Z" fill="rgb(227,73,2)" fill-opacity="0.3"></path>
<path d="M647.1 271l2 0l0 -8.7l-2 0Z" fill="rgb(227,73,2)" fill-opacity="0.3"></path>
<path d="M650 271l2 0l0 -8.2l-2 0Z" fill="rgb(227,73,2)" fill-opacity="0.3"></path>
<path d="M652.8 271l2 0l0 -7.9l-2 0Z" fill="rgb(227,73,2)" fill-opacity="0.3"></path>
<path d="M655.7 271l2 0l0 -7.6l-2 0Z" fill="rgb(227,73,2)" fill-opacity="0.3"></path>
<path d="M658.5 271l2 0l0 -6.9l-2 0Z" fill="rgb(227,73,2)" fill-opacity="0.3"></path>
<path d="M661.3 271l2 0l0 -6.8l-2 0Z" fill="rgb(227,73,2)" fill-opacity="0.3"></path>
<path d="M664.2 271l2 0l0 -6.3l-2 0Z" fill="rgb(227,73,2)" fill-opacity="0.3"></path>
<path d="M667 271l2 0l0 -5.8l-2 0Z" fill="rgb(227,73,2)" fill-opacity="0.3"></path>
<path d="M669.8 271l2 0l0 -5.6l-2 0Z" fill="rgb(227,73,2)" fill-opacity="0.3"></path>
<path d="M672.7 271l2 0l0 -5.4l-2 0Z" fill="rgb(227,73,2)" fill-opacity="0.3"></path>
<path d="M675.5 271l2 0l0 -5.3l-2 0Z" fill="rgb(227,73,2)" fill-opacity="0.3"></path>
<path d="M678.3 271l2 0l0 -4.9l-2 0Z" fill="rgb(227,73,2)" fill-opacity="0.3"></path>
<path d="M681.2 271l2 0l0 -4.8l-2 0Z" fill="rgb(227,73,2)" fill-opacity="0.3"></path>
<path d="M684 271l2 0l0 -4.7l-2 0Z" fill="rgb(227,73,2)" fill-opacity="0.3"></path>
<path d="M686.8 271l2 0l0 -4.6l-2 0Z" fill="rgb(227,73,2)" fill-opacity="0.3"></path>
<path d="M689.7 271l2 0l0 -4.5l-2 0Z" fill="rgb(227,73,2)" fill-opacity="0.3"></path>
<path d="M692.5 271l2 0l0 -4.3l-2 0Z" fill="rgb(227,73,2)" fill-opacity="0.3"></path>
<path d="M695.4 271l2 0l0 -4.1l-2 0Z" fill="rgb(227,73,2)" fill-opacity="0.3"></path>
<path d="M698.2 271l2 0l0 -3.7l-2 0Z" fill="rgb(227,73,2)" fill-opacity="0.3"></path>
<path d="M701 271l2 0l0 -3.6l-2 0Z" fill="rgb(227,73,2)" fill-opacity="0.3"></path>
<path d="M703.9 271l2 0l0 -3.6l-2 0Z" fill="rgb(227,73,2)" fill-opacity="0.3"></path>
<path d="M706.7 271l2 0l0 -3.4l-2 0Z" fill="rgb(227,73,2)" fill-opacity="0.3"></path>
<path d="M709.5 271l2 0l0 -3.1l-2 0Z" fill="rgb(227,73,2)" fill-opacity="0.3"></path>
<path d="M712.4 271l2 0l0 -2.9l-2 0Z" fill="rgb(227,73,2)" fill-opacity="0.3"></path>
<path d="M715.2 271l2 0l0 -2.8l-2 0Z" fill="rgb(227,73,2)" fill-opacity="0.3"></path>
<path d="M718 271l2 0l0 -2.6l-2 0Z" fill="rgb(227,73,2)" fill-opacity="0.3"></path>
<path d="M720.9 271l2 0l0 -2.4l-2 0Z" fill="rgb(227,73,2)" fill-opacity="0.3"></path>
<path d="M723.7 271l2 0l0 -2.4l-2 0Z" fill="rgb(227,73,2)" fill-opacity="0.3"></path>
<path d="M726.5 271l2 0l0 -2.3l-2 0Z" fill="rgb(227,73,2)" fill-opacity="0.3"></path>
<path d="M729.4 271l2 0l0 -2.3l-2 0Z" fill="rgb(227,73,2)" fill-opacity="0.3"></path>
<path d="M732.2 271l2 0l0 -2.3l-2 0Z" fill="rgb(227,73,2)" fill-opacity="0.3"></path>
<path d="M735 271l2 0l0 -2.2l-2 0Z" fill="rgb(227,73,2)" fill-opacity="0.3"></path>
<path d="M737.9 271l2 0l0 -2.1l-2 0Z" fill="rgb(227,73,2)" fill-opacity="0.3"></path>
<path d="M740.7 271l2 0l0 -2l-2 0Z" fill="rgb(227,73,2)" fill-opacity="0.3"></path>
<path d="M743.6 271l2 0l0 -1.8l-2 0Z" fill="rgb(227,73,2)" fill-opacity="0.3"></path>
<path d="M746.4 271l2 0l0 -1.7l-2 0Z" fill="rgb(227,73,2)" fill-opacity="0.3"></path>
<path d="M749.2 271l2 0l0 -1.6l-2 0Z" fill="rgb(227,73,2)" fill-opacity="0.3"></path>
<path d="M752.1 271l2 0l0 -1.5l-2 0Z" fill="rgb(227,73,2)" fill-opacity="0.3"></path>
<path d="M754.9 271l2 0l0 -1.4l-2 0Z" fill="rgb(227,73,2)" fill-opacity="0.3"></path>
<path d="M757.7 271l2 0l0 -1.2l-2 0Z" fill="rgb(227,73,2)" fill-opacity="0.3"></path>
<path d="M760.6 271l2 0l0 -1.1l-2 0Z" fill="rgb(227,73,2)" fill-opacity="0.3"></path>
<path d="M763.4 271l2 0l0 -1.1l-2 0Z" fill="rgb(227,73,2)" fill-opacity="0.3"></path>
<path d="M766.2 271l2 0l0 -1.1l-2 0Z" fill="rgb(227,73,2)" fill-opacity="0.3"></path>
<path d="M769.1 271l2 0l0 -1.1l-2 0Z" fill="rgb(227,73,2)" fill-opacity="0.3"></path>
<path d="M771.9 271l2 0l0 -1.1l-2 0Z" fill="rgb(227,73,2)" fill-opacity="0.3"></path>
<path d="M774.7 271l2 0l0 -1.1l-2 0Z" fill="rgb(227,73,2)" fill-opacity="0.3"></path>
<path d="M777.6 271l2 0l0 -0.9l-2 0Z" fill="rgb(227,73,2)" fill-opacity="0.3"></path>
<path d="M780.4 271l2 0l0 -0.8l-2 0Z" fill="rgb(227,73,2)" fill-opacity="0.3"></path>
<path d="M783.3 271l2 0l0 -0.7l-2 0Z" fill="rgb(227,73,2)" fill-opacity="0.3"></path>
<path d="M786.1 271l2 0l0 -0.6l-2 0Z" fill="rgb(227,73,2)" fill-opacity="0.3"></path>
<path d="M788.9 271l2 0l0 -0.6l-2 0Z" fill="rgb(227,73,2)" fill-opacity="0.3"></path>
<path d="M791.8 271l2 0l0 -0.5l-2 0Z" fill="rgb(227,73,2)" fill-opacity="0.3"></path>
<path d="M794.6 271l2 0l0 -0.5l-2 0Z" fill="rgb(227,73,2)" fill-opacity="0.3"></path>
<path d="M797.4 271l2 0l0 -0.5l-2 0Z" fill="rgb(227,73,2)" fill-opacity="0.3"></path>
<path d="M800.3 271l2 0l0 -0.5l-2 0Z" fill="rgb(227,73,2)" fill-opacity="0.3"></path>
<path d="M803.1 271l2 0l0 -0.5l-2 0Z" fill="rgb(227,73,2)" fill-opacity="0.3"></path>
<path d="M805.9 271l2 0l0 -0.5l-2 0Z" fill="rgb(227,73,2)" fill-opacity="0.3"></path>
<path d="M808.8 271l2 0l0 -0.5l-2 0Z" fill="rgb(227,73,2)" fill-opacity="0.3"></path>
<path d="M811.6 271l2 0l0 -0.5l-2 0Z" fill="rgb(227,73,2)" fill-opacity="0.3"></path>
<path d="M814.4 271l2 0l0 -0.5l-2 0Z" fill="rgb(227,73,2)" fill-opacity="0.3"></path>
<path d="M817.3 271l2 0l0 -0.5l-2 0Z" fill="rgb(227,73,2)" fill-opacity="0.3"></path>
<path d="M820.1 271l2 0l0 -0.4l-2 0Z" fill="rgb(227,73,2)" fill-opacity="0.3"></path>
<path d="M823 271l2 0l0 -0.4l-2 0Z" fill="rgb(227,73,2)" fill-opacity="0.3"></path>
<path d="M825.8 271l2 0l0 -0.4l-2 0Z" fill="rgb(227,73,2)" fill-opacity="0.3"></path>
<path d="M828.6 271l2 0l0 -0.4l-2 0Z" fill="rgb(227,73,2)" fill-opacity="0.3"></path>
<path d="M831.5 271l2 0l0 -0.3l-2 0Z" fill="rgb(227,73,2)" fill-opacity="0.3"></path>
<path d="M834.3 271l2 0l0 -0.3l-2 0Z" fill="rgb(227,73,2)" fill-opacity="0.3"></path>
<path d="M837.1 271l2 0l0 -0.3l-2 0Z" fill="rgb(227,73,2)" fill-opacity="0.3"></path>
<path d="M840 271l2 0l0 -0.3l-2 0Z" fill="rgb(227,73,2)" fill-opacity="0.3"></path>
<path d="M842.8 271l2 0l0 -0.3l-2 0Z" fill="rgb(227,73,2)" fill-opacity="0.3"></path>
<path d="M845.6 271l2 0l0 -0.3l-2 0Z" fill="rgb(227,73,2)" fill-opacity="0.3"></path>
<path d="M848.5 271l2 0l0 -0.3l-2 0Z" fill="rgb(227,73,2)" fill-opacity="0.3"></path>
<path d="M851.3 271l2 0l0 -0.2l-2 0Z" fill="rgb(227,73,2)" fill-opacity="0.3"></path>
<path d="M854.1 271l2 0l0 -0.2l-2 0Z" fill="rgb(227,73,2)" fill-opacity="0.3"></path>
<path d="M857 271l2 0l0 -0.2l-2 0Z" fill="rgb(227,73,2)" fill-opacity="0.3"></path>
<path d="M859.8 271l2 0l0 -0.2l-2 0Z" fill="rgb(227,73,2)" fill-opacity="0.3"></path>
<path d="M862.7 271l2 0l0 -0.2l-2 0Z" fill="rgb(227,73,2)" fill-opacity="0.3"></path>
<path d="M865.5 271l2 0l0 -0.2l-2 0Z" fill="rgb(227,73,2)" fill-opacity="0.3"></path>
<path d="M868.3 271l2 0l0 -0.2l-2 0Z" fill="rgb(227,73,2)" fill-opacity="0.3"></path>
<path d="M871.2 271l2 0l0 -0.1l-2 0Z" fill="rgb(227,73,2)" fill-opacity="0.3"></path>
<path d="M874 271l2 0l0 -0.1l-2 0Z" fill="rgb(227,73,2)" fill-opacity="0.3"></path>
<path d="M876.8 271l2 0l0 -0.1l-2 0Z" fill="rgb(227,73,2)" fill-opacity="0.3"></path>
<path d="M879.7 271l2 0l0 -0.1l-2 0Z" fill="rgb(227,73,2)" fill-opacity="0.3"></path>
<path d="M882.5 271l2 0l0 -0.1l-2 0Z" fill="rgb(227,73,2)" fill-opacity="0.3"></path>
<path d="M885.3 271l2 0l0 -0.1l-2 0Z" fill="rgb(227,73,2)" fill-opacity="0.3"></path>
<path d="M888.2 271l2 0l0 -0.1l-2 0Z" fill="rgb(227,73,2)" fill-opacity="0.3"></path>
<path d="M891 271l2 0l0 -0.1l-2 0Z" fill="rgb(227,73,2)" fill-opacity="0.3"></path>
<path d="M893.8 271l2 0l0 -0.1l-2 0Z" fill="rgb(227,73,2)" fill-opacity="0.3"></path>
<path d="M896.7 271l2 0l0 -0.1l-2 0Z" fill="rgb(227,73,2)" fill-opacity="0.3"></path>
<path d="M899.5 271l2 0l0 -0.1l-2 0Z" fill="rgb(227,73,2)" fill-opacity="0.3"></path>
<path d="M902.4 271l2 0l0 -0.1l-2 0Z" fill="rgb(227,73,2)" fill-opacity="0.3"></path>
<path d="M905.2 271l2 0l0 -0.1l-2 0Z" fill="rgb(227,73,2)" fill-opacity="0.3"></path>
<path d="M908 271l2 0l0 -0.1l-2 0Z" fill="rgb(227,73,2)" fill-opacity="0.3"></path>
<path d="M910.9 271l2 0l0 -0.1l-2 0Z" fill="rgb(227,73,2)" fill-opacity="0.3"></path>
<path d="M913.7 271l2 0l0 -0.1l-2 0Z" fill="rgb(227,73,2)" fill-opacity="0.3"></path>
<path d="M916.5 271l2 0l0 -0.1l-2 0Z" fill="rgb(227,73,2)" fill-opacity="0.3"></path>
<path d="M919.4 271l2 0l0 -0.1l-2 0Z" fill="rgb(227,73,2)" fill-opacity="0.3"></path>
<path d="M-5 -5l226.9 0l0 24l-226.9 0Z" transform="translate(391.54 5)" fill="rgb(0,0,0)" fill-opacity="0" stroke="#ccc" stroke-width="0"></path>
<path d="M3.5 0L21.5 0A3.5 3.5 0 0 1 25 3.5L25 10.5A3.5 3.5 0 0 1 21.5 14L3.5 14A3.5 3.5 0 0 1 0 10.5L0 3.5A3.5 3.5 0 0 1 3.5 0" transform="translate(391.54 5)" fill="rgb(227,73,2)" fill-opacity="0.3"></path>
<text dominant-baseline="central" text-anchor="start" style="font-size:12px;font-family:sans-serif;" xml:space="preserve" x="30" y="7" transform="translate(391.54 5)" fill="#333">Times completed</text>
<path d="M0 7L25 7" transform="translate(524.1 5)" fill="#000" stroke="#E34902" stroke-width="2" stroke-linecap="butt" stroke-miterlimit="10"></path>
<path d="M18.1 7A5.6 5.6 0 1 1 18.1 6.4A5.6 5.6 0 0 1 18.1 7" transform="translate(524.1 5)" fill="#fff" stroke="#E34902" stroke-width="2" stroke-linecap="butt" stroke-miterlimit="10"></path>
<text dominant-baseline="central" text-anchor="start" style="font-size:12px;font-family:sans-serif;" x="30" y="7" transform="translate(524.1 5)" fill="#333">Eddington</text>
<path d="M-0.54 -0.89A0.6 0.6 0 1 1 0.54 -0.89C0.39 -0.56 0 -0.42 0 0C0 -0.42 -0.39 -0.56 -0.54 -0.89Z" transform="matrix(25,0,0,25,554.5479,251.1519)" fill="rgb(227,73,2)" fill-opacity="0.8"></path>
<text dominant-baseline="central" text-anchor="middle" style="font-size:12px;font-family:sans-serif;" transform="translate(554.5479 225.009)" fill="#eee" stroke="rgb(227,73,2)" stroke-width="2" paint-order="stroke" stroke-opacity="0.8" stroke-miterlimit="2">172</text>
<g clip-path="url(#zr0-c0)">
<path d="M69.7 270.9L72.5 270.8L75.3 270.7L78.2 270.7L81 270.6L83.8 270.5L86.7 270.4L89.5 270.3L92.3 270.2L95.2 270.1L98 270L100.8 270L103.7 269.9L106.5 269.8L109.4 269.7L112.2 269.6L115 269.5L117.9 269.4L120.7 269.4L123.5 269.3L126.4 269.2L129.2 269.1L132 269L134.9 268.9L137.7 268.8L140.5 268.7L143.4 268.7L146.2 268.6L149.1 268.5L151.9 268.4L154.7 268.3L157.6 268.2L160.4 268.1L163.2 268L166.1 268L168.9 267.9L171.7 267.8L174.6 267.7L177.4 267.6L180.2 267.5L183.1 267.4L185.9 267.4L188.8 267.3L191.6 267.2L194.4 267.1L197.3 267L200.1 266.9L202.9 266.8L205.8 266.7L208.6 266.7L211.4 266.6L214.3 266.5L217.1 266.4L219.9 266.3L222.8 266.2L225.6 266.1L228.5 266.1L231.3 266L234.1 265.9L237 265.8L239.8 265.7L242.6 265.6L245.5 265.5L248.3 265.4L251.1 265.4L254 265.3L256.8 265.2L259.6 265.1L262.5 265L265.3 264.9L268.2 264.8L271 264.7L273.8 264.7L276.7 264.6L279.5 264.5L282.3 264.4L285.2 264.3L288 264.2L290.8 264.1L293.7 264.1L296.5 264L299.3 263.9L302.2 263.8L305 263.7L307.8 263.6L310.7 263.5L313.5 263.4L316.4 263.4L319.2 263.3L322 263.2L324.9 263.1L327.7 263L330.5 262.9L333.4 262.8L336.2 262.8L339 262.7L341.9 262.6L344.7 262.5L347.5 262.4L350.4 262.3L353.2 262.2L356.1 262.1L358.9 262.1L361.7 262L364.6 261.9L367.4 261.8L370.2 261.7L373.1 261.6L375.9 261.5L378.7 261.4L381.6 261.4L384.4 261.3L387.2 261.2L390.1 261.1L392.9 261L395.8 260.9L398.6 260.8L401.4 260.8L404.3 260.7L407.1 260.6L409.9 260.5L412.8 260.4L415.6 260.3L418.4 260.2L421.3 260.1L424.1 260.1L426.9 260L429.8 259.9L432.6 259.8L435.5 259.7L438.3 259.6L441.1 259.5L444 259.5L446.8 259.4L449.6 259.3L452.5 259.2L455.3 259.1L458.1 259L461 258.9L463.8 258.8L466.6 258.8L469.5 258.7L472.3 258.6L475.2 258.5L478 258.4L480.8 258.3L483.7 258.2L486.5 258.1L489.3 258.1L492.2 258L495 257.9L497.8 257.8L500.7 257.7L503.5 257.6L506.3 257.5L509.2 257.5L512 257.4L514.8 257.3L517.7 257.2L520.5 257.1L523.4 257L526.2 256.9L529 256.8L531.9 256.8L534.7 256.7L537.5 256.6L540.4 256.5L543.2 256.4L546 256.3L548.9 256.2L551.7 256.2L554.5 256.1L557.4 256L560.2 255.9L563.1 255.8L565.9 255.7L568.7 255.6L571.6 255.5L574.4 255.5L577.2 255.4L580.1 255.3L582.9 255.2L585.7 255.1L588.6 255L591.4 254.9L594.2 254.8L597.1 254.8L599.9 254.7L602.8 254.6L605.6 254.5L608.4 254.4L611.3 254.3L614.1 254.2L616.9 254.2L619.8 254.1L622.6 254L625.4 253.9L628.3 253.8L631.1 253.7L633.9 253.6L636.8 253.5L639.6 253.5L642.5 253.4L645.3 253.3L648.1 253.2L651 253.1L653.8 253L656.6 252.9L659.5 252.9L662.3 252.8L665.1 252.7L668 252.6L670.8 252.5L673.6 252.4L676.5 252.3L679.3 252.2L682.2 252.2L685 252.1L687.8 252L690.7 251.9L693.5 251.8L696.3 251.7L699.2 251.6L702 251.5L704.8 251.5L707.7 251.4L710.5 251.3L713.3 251.2L716.2 251.1L719 251L721.8 250.9L724.7 250.9L727.5 250.8L730.4 250.7L733.2 250.6L736 250.5L738.9 250.4L741.7 250.3L744.5 250.2L747.4 250.2L750.2 250.1L753 250L755.9 249.9L758.7 249.8L761.5 249.7L764.4 249.6L767.2 249.6L770.1 249.5L772.9 249.4L775.7 249.3L778.6 249.2L781.4 249.1L784.2 249L787.1 248.9L789.9 248.9L792.7 248.8L795.6 248.7L798.4 248.6L801.2 248.5L804.1 248.4L806.9 248.3L809.8 248.3L812.6 248.2L815.4 248.1L818.3 248L821.1 247.9L823.9 247.8L826.8 247.7L829.6 247.6L832.4 247.6L835.3 247.5L838.1 247.4L840.9 247.3L843.8 247.2L846.6 247.1L849.5 247L852.3 246.9L855.1 246.9L858 246.8L860.8 246.7L863.6 246.6L866.5 246.5L869.3 246.4L872.1 246.3L875 246.3L877.8 246.2L880.6 246.1L883.5 246L886.3 245.9L889.2 245.8L892 245.7L894.8 245.6L897.7 245.6L900.5 245.5L903.3 245.4L906.2 245.3L909 245.2L911.8 245.1L914.7 245L917.5 245L920.3 244.9" fill="none" stroke="#E34902" stroke-width="2" stroke-linejoin="bevel"></path>
</g>
<defs >
<clipPath id="zr0-c0">
<path d="M67 59l856 0l0 213l-856 0Z" fill="#000"></path>
</clipPath>
</defs>
</svg>