<svg width="1000" height="300" xmlns="http://www.w3.org/2000/svg" xmlns:xlink="http://www.w3.org/1999/xlink" version="1.1" baseProfile="full" viewBox="0 0 1000 300">
<rect width="1000" height="300" x="0" y="0" id="0" fill="#ffffff"></rect>
<path d="M68.2 271.5L921.8 271.5" fill="none" stroke="#E0E6F1"></path>
<path d="M68.2 229.5L921.8 229.5" fill="none" stroke="#E0E6F1"></path>
<path d="M68.2 186.5L921.8 186.5" fill="none" stroke="#E0E6F1"></path>
<path d="M68.2 144.5L921.8 144.5" fill="none" stroke="#E0E6F1"></path>
<path d="M68.2 102.5L921.8 102.5" fill="none" stroke="#E0E6F1"></path>
<path d="M68.2 60.5L921.8 60.5" fill="none" stroke="#E0E6F1"></path>
<path d="M68.2 271.5L921.8 271.5" fill="none" stroke="#6E7079" stroke-linecap="round"></path>
<path d="M69.5 271L69.5 276" fill="none" stroke="#6E7079"></path>
<path d="M118.5 271L118.5 276" fill="none" stroke="#6E7079"></path>
<path d="M166.5 271L166.5 276" fill="none" stroke="#6E7079"></path>
<path d="M214.5 271L214.5 276" fill="none" stroke="#6E7079"></path>
<path d="M262.5 271L262.5 276" fill="none" stroke="#6E7079"></path>
<path d="M310.5 271L310.5 276" fill="none" stroke="#6E7079"></path>
<path d="M359.5 271L359.5 276" fill="none" stroke="#6E7079"></path>
<path d="M407.5 271L407.5 276" fill="none" stroke="#6E7079"></path>
<path d="M455.5 271L455.5 276" fill="none" stroke="#6E7079"></path>
<path d="M503.5 271L503.5 276" fill="none" stroke="#6E7079"></path>
<path d="M551.5 271L551.5 276" fill="none" stroke="#6E7079"></path>
<path d="M600.5 271L600.5 276" fill="none" stroke="#6E7079"></path>
<path d="M648.5 271L648.5 276" fill="none" stroke="#6E7079"></path>
<path d="M696.5 271L696.5 276" fill="none" stroke="#6E7079"></path>
<path d="M744.5 271L744.5 276" fill="none" stroke="#6E7079"></path>
<path d="M792.5 271L792.5 276" fill="none" stroke="#6E7079"></path>
<path d="M841.5 271L841.5 276" fill="none" stroke="#6E7079"></path>
<path d="M889.5 271L889.5 276" fill="none" stroke="#6E7079"></path>
<text dominant-baseline="central" text-anchor="end" style="font-size:12px;font-family:sans-serif;" transform="translate(60.24 271)" fill="#6E7079">0</text>
<text dominant-baseline="central" text-anchor="end" style="font-size:12px;font-family:sans-serif;" transform="translate(60.24 228.8)" fill="#6E7079">480</text>
<text dominant-baseline="central" text-anchor="end" style="font-size:12px;font-family:sans-serif;" transform="translate(60.24 186.6)" fill="#6E7079">960</text>
<text dominant-baseline="central" text-anchor="end" style="font-size:12px;font-family:sans-serif;" transform="translate(60.24 144.4)" fill="#6E7079">1,440</text>
<text dominant-baseline="central" text-anchor="end" style="font-size:12px;font-family:sans-serif;" transform="translate(60.24 102.2)" fill="#6E7079">1,920</text>
<text dominant-baseline="central" text-anchor="end" style="font-size:12px;font-family:sans-serif;" transform="translate(60.24 60)" fill="#6E7079">2,400</text>
<text dominant-baseline="central" text-anchor="start" style="font-size:12px;font-family:sans-serif;" transform="translate(929.76 271)" fill="#6E7079">0</text>
<text dominant-baseline="central" text-anchor="start" style="font-size:12px;font-family:sans-serif;" transform="translate(929.76 228.8)" fill="#6E7079">480</text>
<text dominant-baseline="central" text-anchor="start" style="font-size:12px;font-family:sans-serif;" transform="translate(929.76 186.6)" fill="#6E7079">960</text>
<text dominant-baseline="central" text-anchor="start" style="font-size:12px;font-family:sans-serif;" transform="translate(929.76 144.4)" fill="#6E7079">1,440</text>
<text dominant-baseline="central" text-anchor="start" style="font-size:12px;font-family:sans-serif;" transform="translate(929.76 102.2)" fill="#6E7079">1,920</text>
<text dominant-baseline="central" text-anchor="start" style="font-size:12px;font-family:sans-serif;" transform="translate(929.76 60)" fill="#6E7079">2,400</text>
<text dominant-baseline="central" text-anchor="middle" style="font-size:12px;font-family:sans-serif;" y="6" transform="translate(69.6578 279)" fill="#6E7079">1km</text>
<text dominant-baseline="central" text-anchor="middle" style="font-size:12px;font-family:sans-serif;" y="6" transform="translate(117.8633 279)" fill="#6E7079">18km</text>
<text dominant-baseline="central" text-anchor="middle" style="font-size:12px;font-family:sans-serif;" y="6" transform="translate(166.0687 279)" fill="#6E7079">35km</text>
<text dominant-baseline="central" text-anchor="middle" style="font-size:12px;font-family:sans-serif;" y="6" transform="translate(214.2742 279)" fill="#6E7079">52km</text>
<text dominant-baseline="central" text-anchor="middle" style="font-size:12px;font-family:sans-serif;" y="6" transform="translate(262.4796 279)" fill="#6E7079">69km</text>
<text dominant-baseline="central" text-anchor="middle" style="font-size:12px;font-family:sans-serif;" y="6" transform="translate(310.685 279)" fill="#6E7079">86km</text>
<text dominant-baseline="central" text-anchor="middle" style="font-size:12px;font-family:sans-serif;" y="6" transform="translate(358.8905 279)" fill="#6E7079">103km</text>
<text dominant-baseline="central" text-anchor="middle" style="font-size:12px;font-family:sans-serif;" y="6" transform="translate(407.0959 279)" fill="#6E7079">120km</text>
<text dominant-baseline="central" text-anchor="middle" style="font-size:12px;font-family:sans-serif;" y="6" transform="translate(455.3014 279)" fill="#6E7079">137km</text>
<text dominant-baseline="central" text-anchor="middle" style="font-size:12px;font-family:sans-serif;" y="6" transform="translate(503.5068 279)" fill="#6E7079">154km</text>
<text dominant-baseline="central" text-anchor="middle" style="font-size:12px;font-family:sans-serif;" y="6" transform="translate(551.7123 279)" fill="#6E7079">171km</text>
<text dominant-baseline="central" text-anchor="middle" style="font-size:12px;font-family:sans-serif;" y="6" transform="translate(599.9177 279)" fill="#6E7079">188km</text>
<text dominant-baseline="central" text-anchor="middle" style="font-size:12px;font-family:sans-serif;" y="6" transform="translate(648.1232 279)" fill="#6E7079">205km</text>
<text dominant-baseline="central" text-anchor="middle" style="font-size:12px;font-family:sans-serif;" y="6" transform="translate(696.3286 279)" fill="#6E7079">222km</text>
<text dominant-baseline="central" text-anchor="middle" style="font-size:12px;font-family:sans-serif;" y="6" transform="translate(744.5341 279)" fill="#6E7079">239km</text>
<text dominant-baseline="central" text-anchor="middle" style="font-size:12px;font-family:sans-serif;" y="6" transform="translate(792.7395 279)" fill="#6E7079">256km</text>
<text dominant-baseline="central" text-anchor="middle" style="font-size:12px;font-family:sans-serif;" y="6" transform="translate(840.945 279)" fill="#6E7079">273km</text>
<text dominant-baseline="central" text-anchor="middle" style="font-size:12px;font-family:sans-serif;" y="6" transform="translate(889.1504 279)" fill="#6E7079">290km</text>
<path d="M68.7 271l2 0l0 -210.7l-2 0Z" fill="rgb(227,73,2)" fill-opacity="0.3"></path>
<path d="M71.5 271l2 0l0 -210.1l-2 0Z" fill="rgb(227,73,2)" fill-opacity="0.3"></path>
<path d="M74.4 271l2 0l0 -209.2l-2 0Z" fill="rgb(227,73,2)" fill-opacity="0.3"></path>
<path d="M77.2 271l2 0l0 -208.9l-2 0Z" fill="rgb(227,73,2)" fill-opacity="0.3"></path>
<path d="M80 271l2 0l0 -208.5l-2 0Z" fill="rgb(227,73,2)" fill-opacity="0.3"></path>
<path d="M82.9 271l2 0l0 -208l-2 0Z" fill="rgb(227,73,2)" fill-opacity="0.3"></path>
<path d="M85.7 271l2 0l0 -207.6l-2 0Z" fill="rgb(227,73,2)" fill-opacity="0.3"></path>
<path d="M88.5 271l2 0l0 -207.4l-2 0Z" fill="rgb(227,73,2)" fill-opacity="0.3"></path>
<path d="M91.4 271l2 0l0 -207.2l-2 0Z" fill="rgb(227,73,2)" fill-opacity="0.3"></path>
<path d="M94.2 271l2 0l0 -207.2l-2 0Z" fill="rgb(227,73,2)" fill-opacity="0.3"></path>
<path d="M97 271l2 0l0 -207l-2 0Z" fill="rgb(227,73,2)" fill-opacity="0.3"></path>
<path d="M99.9 271l2 0l0 -206.8l-2 0Z" fill="rgb(227,73,2)" fill-opacity="0.3"></path>
<path d="M102.7 271l2 0l0 -206.7l-2 0Z" fill="rgb(227,73,2)" fill-opacity="0.3"></path>
<path d="M105.5 271l2 0l0 -206.6l-2 0Z" fill="rgb(227,73,2)" fill-opacity="0.3"></path>
<path d="M108.4 271l2 0l0 -206.5l-2 0Z" fill="rgb(227,73,2)" fill-opacity="0.3"></path>
<path d="M111.2 271l2 0l0 -206.3l-2 0Z" fill="rgb(227,73,2)" fill-opacity="0.3"></path>
<path d="M114 271l2 0l0 -205.8l-2 0Z" fill="rgb(227,73,2)" fill-opacity="0.3"></path>
<path d="M116.9 271l2 0l0 -205.5l-2 0Z" fill="rgb(227,73,2)" fill-opacity="0.3"></path>
<path d="M119.7 271l2 0l0 -205.4l-2 0Z" fill="rgb(227,73,2)" fill-opacity="0.3"></path>
<path d="M122.6 271l2 0l0 -205.3l-2 0Z" fill="rgb(227,73,2)" fill-opacity="0.3"></path>
<path d="M125.4 271l2 0l0 -204.2l-2 0Z" fill="rgb(227,73,2)" fill-opacity="0.3"></path>
<path d="M128.2 271l2 0l0 -203.4l-2 0Z" fill="rgb(227,73,2)" fill-opacity="0.3"></path>
<path d="M131.1 271l2 0l0 -202.8l-2 0Z" fill="rgb(227,73,2)" fill-opacity="0.3"></path>
<path d="M133.9 271l2 0l0 -202.2l-2 0Z" fill="rgb(227,73,2)" fill-opacity="0.3"></path>
<path d="M136.7 271l2 0l0 -201.9l-2 0Z" fill="rgb(227,73,2)" fill-opacity="0.3"></path>
<path d="M139.6 271l2 0l0 -200.7l-2 0Z" fill="rgb(227,73,2)" fill-opacity="0.3"></path>
<path d="M142.4 271l2 0l0 -200.1l-2 0Z" fill="rgb(227,73,2)" fill-opacity="0.3"></path>
<path d="M145.2 271l2 0l0 -199.3l-2 0Z" fill="rgb(227,73,2)" fill-opacity="0.3"></path>
<path d="M148.1 271l2 0l0 -199l-2 0Z" fill="rgb(227,73,2)" fill-opacity="0.3"></path>
<path d="M150.9 271l2 0l0 -198.9l-2 0Z" fill="rgb(227,73,2)" fill-opacity="0.3"></path>
<path d="M153.7 271l2 0l0 -196.2l-2 0Z" fill="rgb(227,73,2)" fill-opacity="0.3"></path>
<path d="M156.6 271l2 0l0 -194.3l-2 0Z" fill="rgb(227,73,2)" fill-opacity="0.3"></path>
<path d="M159.4 271l2 0l0 -192.1l-2 0Z" fill="rgb(227,73,2)" fill-opacity="0.3"></path>
<path d="M162.3 271l2 0l0 -190.3l-2 0Z" fill="rgb(227,73,2)" fill-opacity="0.3"></path>
<path d="M165.1 271l2 0l0 -189.2l-2 0Z" fill="rgb(227,73,2)" fill-opacity="0.3"></path>
<path d="M167.9 271l2 0l0 -183.7l-2 0Z" fill="rgb(227,73,2)" fill-opacity="0.3"></path>
<path d="M170.8 271l2 0l0 -181.5l-2 0Z" fill="rgb(227,73,2)" fill-opacity="0.3"></path>
<path d="M173.6 271l2 0l0 -179.9l-2 0Z" fill="rgb(227,73,2)" fill-opacity="0.3"></path>
<path d="M176.4 271l2 0l0 -178.6l-2 0Z" fill="rgb(227,73,2)" fill-opacity="0.3"></path>
<path d="M179.3 271l2 0l0 -178.1l-2 0Z" fill="rgb(227,73,2)" fill-opacity="0.3"></path>
<path d="M182.1 271l2 0l0 -175.5l-2 0Z" fill="rgb(227,73,2)" fill-opacity="0.3"></path>
<path d="M184.9 271l2 0l0 -174.5l-2 0Z" fill="rgb(227,73,2)" fill-opacity="0.3"></path>
<path d="M187.8 271l2 0l0 -173.8l-2 0Z" fill="rgb(227,73,2)" fill-opacity="0.3"></path>
<path d="M190.6 271l2 0l0 -173l-2 0Z" fill="rgb(227,73,2)" fill-opacity="0.3"></path>
<path d="M193.4 271l2 0l0 -172.3l-2 0Z" fill="rgb(227,73,2)" fill-opacity="0.3"></path>
<path d="M196.3 271l2 0l0 -171.6l-2 0Z" fill="rgb(227,73,2)" fill-opacity="0.3"></path>
<path d="M199.1 271l2 0l0 -171.1l-2 0Z" fill="rgb(227,73,2)" fill-opacity="0.3"></path>
<path d="M202 271l2 0l0 -170.9l-2 0Z" fill="rgb(227,73,2)" fill-opacity="0.3"></path>
<path d="M204.8 271l2 0l0 -170.1l-2 0Z" fill="rgb(227,73,2)" fill-opacity="0.3"></path>
<path d="M207.6 271l2 0l0 -169.9l-2 0Z" fill="rgb(227,73,2)" fill-opacity="0.3"></path>
<path d="M210.5 271l2 0l0 -155l-2 0Z" fill="rgb(227,73,2)" fill-opacity="0.3"></path>
<path d="M213.3 271l2 0l0 -144.7l-2 0Z" fill="rgb(227,73,2)" fill-opacity="0.3"></path>
<path d="M216.1 271l2 0l0 -138.9l-2 0Z" fill="rgb(227,73,2)" fill-opacity="0.3"></path>
<path d="M219 271l2 0l0 -132.8l-2 0Z" fill="rgb(227,73,2)" fill-opacity="0.3"></path>
<path d="M221.8 271l2 0l0 -129.5l-2 0Z" fill="rgb(227,73,2)" fill-opacity="0.3"></path>
<path d="M224.6 271l2 0l0 -124.8l-2 0Z" fill="rgb(227,73,2)" fill-opacity="0.3"></path>
<path d="M227.5 271l2 0l0 -121l-2 0Z" fill="rgb(227,73,2)" fill-opacity="0.3"></path>
<path d="M230.3 271l2 0l0 -117.9l-2 0Z" fill="rgb(227,73,2)" fill-opacity="0.3"></path>
<path d="M233.1 271l2 0l0 -116.3l-2 0Z" fill="rgb(227,73,2)" fill-opacity="0.3"></path>
<path d="M236 271l2 0l0 -115.3l-2 0Z" fill="rgb(227,73,2)" fill-opacity="0.3"></path>
<path d="M238.8 271l2 0l0 -110l-2 0Z" fill="rgb(227,73,2)" fill-opacity="0.3"></path>
<path d="M241.7 271l2 0l0 -106.9l-2 0Z" fill="rgb(227,73,2)" fill-opacity="0.3"></path>
<path d="M244.5 271l2 0l0 -103.9l-2 0Z" fill="rgb(227,73,2)" fill-opacity="0.3"></path>
<path d="M247.3 271l2 0l0 -101.6l-2 0Z" fill="rgb(227,73,2)" fill-opacity="0.3"></path>
<path d="M250.2 271l2 0l0 -100.2l-2 0Z" fill="rgb(227,73,2)" fill-opacity="0.3"></path>
<path d="M253 271l2 0l0 -97.9l-2 0Z" fill="rgb(227,73,2)" fill-opacity="0.3"></path>
<path d="M255.8 271l2 0l0 -95.3l-2 0Z" fill="rgb(227,73,2)" fill-opacity="0.3"></path>
<path d="M258.7 271l2 0l0 -94l-2 0Z" fill="rgb(227,73,2)" fill-opacity="0.3"></path>
<path d="M261.5 271l2 0l0 -92.8l-2 0Z" fill="rgb(227,73,2)" fill-opacity="0.3"></path>
<path d="M264.3 271l2 0l0 -92.1l-2 0Z" fill="rgb(227,73,2)" fill-opacity="0.3"></path>
<path d="M267.2 271l2 0l0 -91.1l-2 0Z" fill="rgb(227,73,2)" fill-opacity="0.3"></path>
<path d="M270 271l2 0l0 -89.9l-2 0Z" fill="rgb(227,73,2)" fill-opacity="0.3"></path>
<path d="M272.8 271l2 0l0 -89l-2 0Z" fill="rgb(227,73,2)" fill-opacity="0.3"></path>
<path d="M275.7 271l2 0l0 -88.4l-2 0Z" fill="rgb(227,73,2)" fill-opacity="0.3"></path>
<path d="M278.5 271l2 0l0 -87.9l-2 0Z" fill="rgb(227,73,2)" fill-opacity="0.3"></path>
<path d="M281.4 271l2 0l0 -86.5l-2 0Z" fill="rgb(227,73,2)" fill-opacity="0.3"></path>
<path d="M284.2 271l2 0l0 -85.3l-2 0Z" fill="rgb(227,73,2)" fill-opacity="0.3"></path>
<path d="M287 271l2 0l0 -84.5l-2 0Z" fill="rgb(227,73,2)" fill-opacity="0.3"></path>
<path d="M289.9 271l2 0l0 -83.6l-2 0Z" fill="rgb(227,73,2)" fill-opacity="0.3"></path>
<path d="M292.7 271l2 0l0 -83.3l-2 0Z" fill="rgb(227,73,2)" fill-opacity="0.3"></path>
<path d="M295.5 271l2 0l0 -82.1l-2 0Z" fill="rgb(227,73,2)" fill-opacity="0.3"></path>
<path d="M298.4 271l2 0l0 -81.6l-2 0Z" fill="rgb(227,73,2)" fill-opacity="0.3"></path>
<path d="M301.2 271l2 0l0 -81.1l-2 0Z" fill="rgb(227,73,2)" fill-opacity="0.3"></path>
<path d="M304 271l2 0l0 -80.5l-2 0Z" fill="rgb(227,73,2)" fill-opacity="0.3"></path>
<path d="M306.9 271l2 0l0 -80l-2 0Z" fill="rgb(227,73,2)" fill-opacity="0.3"></path>
<path d="M309.7 271l2 0l0 -79.1l-2 0Z" fill="rgb(227,73,2)" fill-opacity="0.3"></path>
<path d="M312.5 271l2 0l0 -78.4l-2 0Z" fill="rgb(227,73,2)" fill-opacity="0.3"></path>
<path d="M315.4 271l2 0l0 -78.1l-2 0Z" fill="rgb(227,73,2)" fill-opacity="0.3"></path>
<path d="M318.2 271l2 0l0 -77.5l-2 0Z" fill="rgb(227,73,2)" fill-opacity="0.3"></path>
<path d="M321 271l2 0l0 -76.9l-2 0Z" fill="rgb(227,73,2)" fill-opacity="0.3"></path>
<path d="M323.9 271l2 0l0 -76.6l-2 0Z" fill="rgb(227,73,2)" fill-opacity="0.3"></path>
<path d="M326.7 271l2 0l0 -76.5l-2 0Z" fill="rgb(227,73,2)" fill-opacity="0.3"></path>
<path d="M329.6 271l2 0l0 -76.2l-2 0Z" fill="rgb(227,73,2)" fill-opacity="0.3"></path>
<path d="M332.4 271l2 0l0 -76.2l-2 0Z" fill="rgb(227,73,2)" fill-opacity="0.3"></path>
<path d="M335.2 271l2 0l0 -76.1l-2 0Z" fill="rgb(227,73,2)" fill-opacity="0.3"></path>
<path d="M338.1 271l2 0l0 -76.1l-2 0Z" fill="rgb(227,73,2)" fill-opacity="0.3"></path>
<path d="M340.9 271l2 0l0 -76l-2 0Z" fill="rgb(227,73,2)" fill-opacity="0.3"></path>
<path d="M343.7 271l2 0l0 -76l-2 0Z" fill="rgb(227,73,2)" fill-opacity="0.3"></path>
<path d="M346.6 271l2 0l0 -76l-2 0Z" fill="rgb(227,73,2)" fill-opacity="0.3"></path>
<path d="M349.4 271l2 0l0 -76l-2 0Z" fill="rgb(227,73,2)" fill-opacity="0.3"></path>
<path d="M352.2 271l2 0l0 -72.6l-2 0Z" fill="rgb(227,73,2)" fill-opacity="0.3"></path>
<path d="M355.1 271l2 0l0 -69l-2 0Z" fill="rgb(227,73,2)" fill-opacity="0.3"></path>
<path d="M357.9 271l2 0l0 -66.2l-2 0Z" fill="rgb(227,73,2)" fill-opacity="0.3"></path>
<path d="M360.7 271l2 0l0 -63.7l-2 0Z" fill="rgb(227,73,2)" fill-opacity="0.3"></path>
<path d="M363.6 271l2 0l0 -61.9l-2 0Z" fill="rgb(227,73,2)" fill-opacity="0.3"></path>
<path d="M366.4 271l2 0l0 -59.9l-2 0Z" fill="rgb(227,73,2)" fill-opacity="0.3"></path>
<path d="M369.3 271l2 0l0 -58.2l-2 0Z" fill="rgb(227,73,2)" fill-opacity="0.3"></path>
<path d="M372.1 271l2 0l0 -56.3l-2 0Z" fill="rgb(227,73,2)" fill-opacity="0.3"></path>
<path d="M374.9 271l2 0l0 -54.7l-2 0Z" fill="rgb(227,73,2)" fill-opacity="0.3"></path>
<path d="M377.8 271l2 0l0 -53.9l-2 0Z" fill="rgb(227,73,2)" fill-opacity="0.3"></path>
<path d="M380.6 271l2 0l0 -52.7l-2 0Z" fill="rgb(227,73,2)" fill-opacity="0.3"></path>
<path d="M383.4 271l2 0l0 -51.3l-2 0Z" fill="rgb(227,73,2)" fill-opacity="0.3"></path>
<path d="M386.3 271l2 0l0 -49.7l-2 0Z" fill="rgb(227,73,2)" fill-opacity="0.3"></path>
<path d="M389.1 271l2 0l0 -47.7l-2 0Z" fill="rgb(227,73,2)" fill-opacity="0.3"></path>
<path d="M391.9 271l2 0l0 -46.5l-2 0Z" fill="rgb(227,73,2)" fill-opacity="0.3"></path>
<path d="M394.8 271l2 0l0 -45.5l-2 0Z" fill="rgb(227,73,2)" fill-opacity="0.3"></path>
<path d="M397.6 271l2 0l0 -44.5l-2 0Z" fill="rgb(227,73,2)" fill-opacity="0.3"></path>
<path d="M400.4 271l2 0l0 -43.6l-2 0Z" fill="rgb(227,73,2)" fill-opacity="0.3"></path>
<path d="M403.3 271l2 0l0 -42.4l-2 0Z" fill="rgb(227,73,2)" fill-opacity="0.3"></path>
<path d="M406.1 271l2 0l0 -42.2l-2 0Z" fill="rgb(227,73,2)" fill-opacity="0.3"></path>
<path d="M409 271l2 0l0 -40l-2 0Z" fill="rgb(227,73,2)" fill-opacity="0.3"></path>
<path d="M411.8 271l2 0l0 -38.4l-2 0Z" fill="rgb(227,73,2)" fill-opacity="0.3"></path>
<path d="M414.6 271l2 0l0 -37.5l-2 0Z" fill="rgb(227,73,2)" fill-opacity="0.3"></path>
<path d="M417.5 271l2 0l0 -36.4l-2 0Z" fill="rgb(227,73,2)" fill-opacity="0.3"></path>
<path d="M420.3 271l2 0l0 -35.9l-2 0Z" fill="rgb(227,73,2)" fill-opacity="0.3"></path>
<path d="M423.1 271l2 0l0 -34.8l-2 0Z" fill="rgb(227,73,2)" fill-opacity="0.3"></path>
<path d="M426 271l2 0l0 -33.8l-2 0Z" fill="rgb(227,73,2)" fill-opacity="0.3"></path>
<path d="M428.8 271l2 0l0 -33l-2 0Z" fill="rgb(227,73,2)" fill-opacity="0.3"></path>
<path d="M431.6 271l2 0l0 -32.4l-2 0Z" fill="rgb(227,73,2)" fill-opacity="0.3"></path>
<path d="M434.5 271l2 0l0 -32.2l-2 0Z" fill="rgb(227,73,2)" fill-opacity="0.3"></path>
<path d="M437.3 271l2 0l0 -31.6l-2 0Z" fill="rgb(227,73,2)" fill-opacity="0.3"></path>
<path d="M440.1 271l2 0l0 -31.1l-2 0Z" fill="rgb(227,73,2)" fill-opacity="0.3"></path>
<path d="M443 271l2 0l0 -30.6l-2 0Z" fill="rgb(227,73,2)" fill-opacity="0.3"></path>
<path d="M445.8 271l2 0l0 -29.7l-2 0Z" fill="rgb(227,73,2)" fill-opacity="0.3"></path>
<path d="M448.7 271l2 0l0 -29.1l-2 0Z" fill="rgb(227,73,2)" fill-opacity="0.3"></path>
<path d="M451.5 271l2 0l0 -28.3l-2 0Z" fill="rgb(227,73,2)" fill-opacity="0.3"></path>
<path d="M454.3 271l2 0l0 -27.4l-2 0Z" fill="rgb(227,73,2)" fill-opacity="0.3"></path>
<path d="M457.2 271l2 0l0 -27l-2 0Z" fill="rgb(227,73,2)" fill-opacity="0.3"></path>
<path d="M460 271l2 0l0 -26.7l-2 0Z" fill="rgb(227,73,2)" fill-opacity="0.3"></path>
<path d="M462.8 271l2 0l0 -26.3l-2 0Z" fill="rgb(227,73,2)" fill-opacity="0.3"></path>
<path d="M465.7 271l2 0l0 -25.4l-2 0Z" fill="rgb(227,73,2)" fill-opacity="0.3"></path>
<path d="M468.5 271l2 0l0 -24.3l-2 0Z" fill="rgb(227,73,2)" fill-opacity="0.3"></path>
<path d="M471.3 271l2 0l0 -23.6l-2 0Z" fill="rgb(227,73,2)" fill-opacity="0.3"></path>
<path d="M474.2 271l2 0l0 -23.2l-2 0Z" fill="rgb(227,73,2)" fill-opacity="0.3"></path>
<path d="M477 271l2 0l0 -22.9l-2 0Z" fill="rgb(227,73,2)" fill-opacity="0.3"></path>
<path d="M479.8 271l2 0l0 -22.7l-2 0Z" fill="rgb(227,73,2)" fill-opacity="0.3"></path>
<path d="M482.7 271l2 0l0 -22.4l-2 0Z" fill="rgb(227,73,2)" fill-opacity="0.3"></path>
<path d="M485.5 271l2 0l0 -22.2l-2 0Z" fill="rgb(227,73,2)" fill-opacity="0.3"></path>
<path d="M488.4 271l2 0l0 -22l-2 0Z" fill="rgb(227,73,2)" fill-opacity="0.3"></path>
<path d="M491.2 271l2 0l0 -21.7l-2 0Z" fill="rgb(227,73,2)" fill-opacity="0.3"></path>
<path d="M494 271l2 0l0 -21.2l-2 0Z" fill="rgb(227,73,2)" fill-opacity="0.3"></path>
<path d="M496.9 271l2 0l0 -20.7l-2 0Z" fill="rgb(227,73,2)" fill-opacity="0.3"></path>
<path d="M499.7 271l2 0l0 -20.3l-2 0Z" fill="rgb(227,73,2)" fill-opacity="0.3"></path>
<path d="M502.5 271l2 0l0 -19.6l-2 0Z" fill="rgb(227,73,2)" fill-opacity="0.3"></path>
<path d="M505.4 271l2 0l0 -19.2l-2 0Z" fill="rgb(227,73,2)" fill-opacity="0.3"></path>
<path d="M508.2 271l2 0l0 -18.7l-2 0Z" fill="rgb(227,73,2)" fill-opacity="0.3"></path>
<path d="M511 271l2 0l0 -18.6l-2 0Z" fill="rgb(227,73,2)" fill-opacity="0.3"></path>
<path d="M513.9 271l2 0l0 -18.4l-2 0Z" fill="rgb(227,73,2)" fill-opacity="0.3"></path>
<path d="M516.7 271l2 0l0 -18.2l-2 0Z" fill="rgb(227,73,2)" fill-opacity="0.3"></path>
<path d="M519.5 271l2 0l0 -18.1l-2 0Z" fill="rgb(227,73,2)" fill-opacity="0.3"></path>
<path d="M522.4 271l2 0l0 -18l-2 0Z" fill="rgb(227,73,2)" fill-opacity="0.3"></path>
<path d="M525.2 271l2 0l0 -17.1l-2 0Z" fill="rgb(227,73,2)" fill-opacity="0.3"></path>
<path d="M528 271l2 0l0 -16.4l-2 0Z" fill="rgb(227,73,2)" fill-opacity="0.3"></path>
<path d="M530.9 271l2 0l0 -15.8l-2 0Z" fill="rgb(227,73,2)" fill-opacity="0.3"></path>
<path d="M533.7 271l2 0l0 -15.6l-2 0Z" fill="rgb(227,73,2)" fill-opacity="0.3"></path>
<path d="M536.6 271l2 0l0 -15l-2 0Z" fill="rgb(227,73,2)" fill-opacity="0.3"></path>
<path d="M539.4 271l2 0l0 -14.8l-2 0Z" fill="rgb(227,73,2)" fill-opacity="0.8"></path>
<path d="M542.2 271l2 0l0 -14.5l-2 0Z" fill="rgb(227,73,2)" fill-opacity="0.3"></path>
<path d="M545.1 271l2 0l0 -14.5l-2 0Z" fill="rgb(227,73,2)" fill-opacity="0.3"></path>
<path d="M547.9 271l2 0l0 -14.4l-2 0Z" fill="rgb(227,73,2)" fill-opacity="0.3"></path>
<path d="M550.7 271l2 0l0 -14.4l-2 0Z" fill="rgb(227,73,2)" fill-opacity="0.3"></path>
<path d="M553.6 271l2 0l0 -14.2l-2 0Z" fill="rgb(227,73,2)" fill-opacity="0.3"></path>
<path d="M556.4 271l2 0l0 -14l-2 0Z" fill="rgb(227,73,2)" fill-opacity="0.3"></path>
<path d="M559.2 271l2 0l0 -13.7l-2 0Z" fill="rgb(227,73,2)" fill-opacity="0.3"></path>
<path d="M562.1 271l2 0l0 -13.7l-2 0Z" fill="rgb(227,73,2)" fill-opacity="0.3"></path>
<path d="M564.9 271l2 0l0 -13.2l-2 0Z" fill="rgb(227,73,2)" fill-opacity="0.3"></path>
<path d="M567.7 271l2 0l0 -13.1l-2 0Z" fill="rgb(227,73,2)" fill-opacity="0.3"></path>
<path d="M570.6 271l2 0l0 -12.9l-2 0Z" fill="rgb(227,73,2)" fill-opacity="0.3"></path>
<path d="M573.4 271l2 0l0 -12.9l-2 0Z" fill="rgb(227,73,2)" fill-opacity="0.3"></path>
<path d="M576.3 271l2 0l0 -12.9l-2 0Z" fill="rgb(227,73,2)" fill-opacity="0.3"></path>
<path d="M579.1 271l2 0l0 -12.9l-2 0Z" fill="rgb(227,73,2)" fill-opacity="0.3"></path>
<path d="M581.9 271l2 0l0 -12.9l-2 0Z" fill="rgb(227,73,2)" fill-opacity="0.3"></path>
<path d="M584.8 271l2 0l0 -12.7l-2 0Z" fill="rgb(227,73,2)" fill-opacity="0.3"></path>
<path d="M587.6 271l2 0l0 -12.6l-2 0Z" fill="rgb(227,73,2)" fill-opacity="0.3"></path>
<path d="M590.4 271l2 0l0 -12.4l-2 0Z" fill="rgb(227,73,2)" fill-opacity="0.3"></path>
<path d="M593.3 271l2 0l0 -12.4l-2 0Z" fill="rgb(227,73,2)" fill-opacity="0.3"></path>
<path d="M596.1 271l2 0l0 -12.4l-2 0Z" fill="rgb(227,73,2)" fill-opacity="0.3"></path>
<path d="M598.9 271l2 0l0 -12.3l-2 0Z" fill="rgb(227,73,2)" fill-opacity="0.3"></path>
<path d="M601.8 271l2 0l0 -12.2l-2 0Z" fill="rgb(227,73,2)" fill-opacity="0.3"></path>
<path d="M604.6 271l2 0l0 -12.2l-2 0Z" fill="rgb(227,73,2)" fill-opacity="0.3"></path>
<path d="M607.4 271l2 0l0 -12.2l-2 0Z" fill="rgb(227,73,2)" fill-opacity="0.3"></path>
<path d="M610.3 271l2 0l0 -12.2l-2 0Z" fill="rgb(227,73,2)" fill-opacity="0.3"></path>
<path d="M613.1 271l2 0l0 -12.2l-2 0Z" fill="rgb(227,73,2)" fill-opacity="0.3"></path>
<path d="M616 271l2 0l0 -12.1l-2 0Z" fill="rgb(227,73,2)" fill-opacity="0.3"></path>
<path d="M618.8 271l2 0l0 -12.1l-2 0Z" fill="rgb(227,73,2)" fill-opacity="0.3"></path>
<path d="M621.6 271l2 0l0 -12.1l-2 0Z" fill="rgb(227,73,2)" fill-opacity="0.3"></path>
<path d="M624.5 271l2 0l0 -12.1l-2 0Z" fill="rgb(227,73,2)" fill-opacity="0.3"></path>
<path d="M627.3 271l2 0l0 -12.1l-2 0Z" fill="rgb(227,73,2)" fill-opacity="0.3"></path>
<path d="M630.1 271l2 0l0 -12.1l-2 0Z" fill="rgb(227,73,2)" fill-opacity="0.3"></path>
<path d="M633 271l2 0l0 -12.1l-2 0Z" fill="rgb(227,73,2)" fill-opacity="0.3"></path>
<path d="M635.8 271l2 0l0 -11.6l-2 0Z" fill="rgb(227,73,2)" fill-opacity="0.3"></path>
<path d="M638.6 271l2 0l0 -10.3l-2 0Z" fill="rgb(227,73,2)" fill-opacity="0.3"></path>
<path d="M641.5 271l2 0l0 -9.4l-2 0Z" fill="rgb(227,73,2)" fill-opacity="0.3"></path>
<path d="M644.3 271l2 0l0 -8.5l-2 0Z" fill="rgb(227,73,2)" fill-opacity="0.3"></path>
<path d="M647.1 271l2 0l0 -8.2l-2 0Z" fill="rgb(227,73,2)" fill-opacity="0.3"></path>
<path d="M650 271l2 0l0 -7.6l-2 0Z" fill="rgb(227,73,2)" fill-opacity="0.3"></path>
<path d="M652.8 271l2 0l0 -7.5l-2 0Z" fill="rgb(227,73,2)" fill-opacity="0.3"></path>
<path d="M655.7 271l2 0l0 -7.1l-2 0Z" fill="rgb(227,73,2)" fill-opacity="0.3"></path>
<path d="M658.5 271l2 0l0 -6.5l-2 0Z" fill="rgb(227,73,2)" fill-opacity="0.3"></path>
<path d="M661.3 271l2 0l0 -6.3l-2 0Z" fill="rgb(227,73,2)" fill-opacity="0.3"></path>
<path d="M664.2 271l2 0l0 -6l-2 0Z" fill="rgb(227,73,2)" fill-opacity="0.3"></path>
<path d="M667 271l2 0l0 -5.5l-2 0Z" fill="rgb(227,73,2)" fill-opacity="0.3"></path>
<path d="M669.8 271l2 0l0 -5.3l-2 0Z" fill="rgb(227,73,2)" fill-opacity="0.3"></path>
<path d="M672.7 271l2 0l0 -5l-2 0Z" fill="rgb(227,73,2)" fill-opacity="0.3"></path>
<path d="M675.5 271l2 0l0 -4.9l-2 0Z" fill="rgb(227,73,2)" fill-opacity="0.3"></path>
<path d="M678.3 271l2 0l0 -4.6l-2 0Z" fill="rgb(227,73,2)" fill-opacity="0.3"></path>
<path d="M681.2 271l2 0l0 -4.4l-2 0Z" fill="rgb(227,73,2)" fill-opacity="0.3"></path>
<path d="M684 271l2 0l0 -4.3l-2 0Z" fill="rgb(227,73,2)" fill-opacity="0.3"></path>
<path d="M686.8 271l2 0l0 -4.3l-2 0Z" fill="rgb(227,73,2)" fill-opacity="0.3"></path>
<path d="M689.7 271l2 0l0 -4.2l-2 0Z" fill="rgb(227,73,2)" fill-opacity="0.3"></path>
<path d="M692.5 271l2 0l0 -4l-2 0Z" fill="rgb(227,73,2)" fill-opacity="0.3"></path>
<path d="M695.4 271l2 0l0 -3.8l-2 0Z" fill="rgb(227,73,2)" fill-opacity="0.3"></path>
<path d="M698.2 271l2 0l0 -3.4l-2 0Z" fill="rgb(227,73,2)" fill-opacity="0.3"></path>
<path d="M701 271l2 0l0 -3.3l-2 0Z" fill="rgb(227,73,2)" fill-opacity="0.3"></path>
<path d="M703.9 271l2 0l0 -3.3l-2 0Z" fill="rgb(227,73,2)" fill-opacity="0.3"></path>
<path d="M706.7 271l2 0l0 -3.2l-2 0Z" fill="rgb(227,73,2)" fill-opacity="0.3"></path>
<path d="M709.5 271l2 0l0 -2.9l-2 0Z" fill="rgb(227,73,2)" fill-opacity="0.3"></path>
<path d="M712.4 271l2 0l0 -2.6l-2 0Z" fill="rgb(227,73,2)" fill-opacity="0.3"></path>
<path d="M715.2 271l2 0l0 -2.5l-2 0Z" fill="rgb(227,73,2)" fill-opacity="0.3"></path>
<path d="M718 271l2 0l0 -2.4l-2 0Z" fill="rgb(227,73,2)" fill-opacity="0.3"></path>
<path d="M720.9 271l2 0l0 -2.2l-2 0Z" fill="rgb(227,73,2)" fill-opacity="0.3"></path>
<path d="M723.7 271l2 0l0 -2.2l-2 0Z" fill="rgb(227,73,2)" fill-opacity="0.3"></path>
<path d="M726.5 271l2 0l0 -2.1l-2 0Z" fill="rgb(227,73,2)" fill-opacity="0.3"></path>
<path d="M729.4 271l2 0l0 -2l-2 0Z" fill="rgb(227,73,2)" fill-opacity="0.3"></path>
<path d="M732.2 271l2 0l0 -2l-2 0Z" fill="rgb(227,73,2)" fill-opacity="0.3"></path>
<path d="M735 271l2 0l0 -1.9l-2 0Z" fill="rgb(227,73,2)" fill-opacity="0.3"></path>
<path d="M737.9 271l2 0l0 -1.8l-2 0Z" fill="rgb(227,73,2)" fill-opacity="0.3"></path>
<path d="M740.7 271l2 0l0 -1.8l-2 0Z" fill="rgb(227,73,2)" fill-opacity="0.3"></path>
<path d="M743.6 271l2 0l0 -1.7l-2 0Z" fill="rgb(227,73,2)" fill-opacity="0.3"></path>
<path d="M746.4 271l2 0l0 -1.6l-2 0Z" fill="rgb(227,73,2)" fill-opacity="0.3"></path>
<path d="M749.2 271l2 0l0 -1.5l-2 0Z" fill="rgb(227,73,2)" fill-opacity="0.3"></path>
<path d="M752.1 271l2 0l0 -1.3l-2 0Z" fill="rgb(227,73,2)" fill-opacity="0.3"></path>
<path d="M754.9 271l2 0l0 -1.2l-2 0Z" fill="rgb(227,73,2)" fill-opacity="0.3"></path>
<path d="M757.7 271l2 0l0 -1.1l-2 0Z" fill="rgb(227,73,2)" fill-opacity="0.3"></path>
<path d="M760.6 271l2 0l0 -1l-2 0Z" fill="rgb(227,73,2)" fill-opacity="0.3"></path>
<path d="M763.4 271l2 0l0 -1l-2 0Z" fill="rgb(227,73,2)" fill-opacity="0.3"></path>
<path d="M766.2 271l2 0l0 -1l-2 0Z" fill="rgb(227,73,2)" fill-opacity="0.3"></path>
<path d="M769.1 271l2 0l0 -1l-2 0Z" fill="rgb(227,73,2)" fill-opacity="0.3"></path>
<path d="M771.9 271l2 0l0 -1l-2 0Z" fill="rgb(227,73,2)" fill-opacity="0.3"></path>
<path d="M774.7 271l2 0l0 -1l-2 0Z" fill="rgb(227,73,2)" fill-opacity="0.3"></path>
<path d="M777.6 271l2 0l0 -0.8l-2 0Z" fill="rgb(227,73,2)" fill-opacity="0.3"></path>
<path d="M780.4 271l2 0l0 -0.7l-2 0Z" fill="rgb(227,73,2)" fill-opacity="0.3"></path>
<path d="M783.3 271l2 0l0 -0.6l-2 0Z" fill="rgb(227,73,2)" fill-opacity="0.3"></path>
<path d="M786.1 271l2 0l0 -0.5l-2 0Z" fill="rgb(227,73,2)" fill-opacity="0.3"></path>
<path d="M788.9 271l2 0l0 -0.5l-2 0Z" fill="rgb(227,73,2)" fill-opacity="0.3"></path>
<path d="M791.8 271l2 0l0 -0.4l-2 0Z" fill="rgb(227,73,2)" fill-opacity="0.3"></path>
<path d="M794.6 271l2 0l0 -0.4l-2 0Z" fill="rgb(227,73,2)" fill-opacity="0.3"></path>
<path d="M797.4 271l2 0l0 -0.4l-2 0Z" fill="rgb(227,73,2)" fill-opacity="0.3"></path>
<path d="M800.3 271l2 0l0 -0.4l-2 0Z" fill="rgb(227,73,2)" fill-opacity="0.3"></path>
<path d="M803.1 271l2 0l0 -0.4l-2 0Z" fill="rgb(227,73,2)" fill-opacity="0.3"></path>
<path d="M805.9 271l2 0l0 -0.4l-2 0Z" fill="rgb(227,73,2)" fill-opacity="0.3"></path>
<path d="M808.8 271l2 0l0 -0.4l-2 0Z" fill="rgb(227,73,2)" fill-opacity="0.3"></path>
<path d="M811.6 271l2 0l0 -0.4l-2 0Z" fill="rgb(227,73,2)" fill-opacity="0.3"></path>
<path d="M814.4 271l2 0l0 -0.4l-2 0Z" fill="rgb(227,73,2)" fill-opacity="0.3"></path>
<path d="M817.3 271l2 0l0 -0.4l-2 0Z" fill="rgb(227,73,2)" fill-opacity="0.3"></path>
<path d="M820.1 271l2 0l0 -0.4l-2 0Z" fill="rgb(227,73,2)" fill-opacity="0.3"></path>
<path d="M823 271l2 0l0 -0.4l-2 0Z" fill="rgb(227,73,2)" fill-opacity="0.3"></path>
<path d="M825.8 271l2 0l0 -0.4l-2 0Z" fill="rgb(227,73,2)" fill-opacity="0.3"></path>
<path d="M828.6 271l2 0l0 -0.4l-2 0Z" fill="rgb(227,73,2)" fill-opacity="0.3"></path>
<path d="M831.5 271l2 0l0 -0.3l-2 0Z" fill="rgb(227,73,2)" fill-opacity="0.3"></path>
<path d="M834.3 271l2 0l0 -0.3l-2 0Z" fill="rgb(227,73,2)" fill-opacity="0.3"></path>
<path d="M837.1 271l2 0l0 -0.3l-2 0Z" fill="rgb(227,73,2)" fill-opacity="0.3"></path>
<path d="M840 271l2 0l0 -0.3l-2 0Z" fill="rgb(227,73,2)" fill-opacity="0.3"></path>
<path d="M842.8 271l2 0l0 -0.3l-2 0Z" fill="rgb(227,73,2)" fill-opacity="0.3"></path>
<path d="M845.6 271l2 0l0 -0.3l-2 0Z" fill="rgb(227,73,2)" fill-opacity="0.3"></path>
<path d="M848.5 271l2 0l0 -0.3l-2 0Z" fill="rgb(227,73,2)" fill-opacity="0.3"></path>
<path d="M851.3 271l2 0l0 -0.2l-2 0Z" fill="rgb(227,73,2)" fill-opacity="0.3"></path>
<path d="M854.1 271l2 0l0 -0.2l-2 0Z" fill="rgb(227,73,2)" fill-opacity="0.3"></path>
<path d="M857 271l2 0l0 -0.2l-2 0Z" fill="rgb(227,73,2)" fill-opacity="0.3"></path>
<path d="M859.8 271l2 0l0 -0.2l-2 0Z" fill="rgb(227,73,2)" fill-opacity="0.3"></path>
<path d="M862.7 271l2 0l0 -0.2l-2 0Z" fill="rgb(227,73,2)" fill-opacity="0.3"></path>
<path d="M865.5 271l2 0l0 -0.2l-2 0Z" fill="rgb(227,73,2)" fill-opacity="0.3"></path>
<path d="M868.3 271l2 0l0 -0.2l-2 0Z" fill="rgb(227,73,2)" fill-opacity="0.3"></path>
<path d="M871.2 271l2 0l0 -0.1l-2 0Z" fill="rgb(227,73,2)" fill-opacity="0.3"></path>
<path d="M874 271l2 0l0 -0.1l-2 0Z" fill="rgb(227,73,2)" fill-opacity="0.3"></path>
<path d="M876.8 271l2 0l0 -0.1l-2 0Z" fill="rgb(227,73,2)" fill-opacity="0.3"></path>
<path d="M879.7 271l2 0l0 -0.1l-2 0Z" fill="rgb(227,73,2)" fill-opacity="0.3"></path>
<path d="M882.5 271l2 0l0 -0.1l-2 0Z" fill="rgb(227,73,2)" fill-opacity="0.3"></path>
<path d="M885.3 271l2 0l0 -0.1l-2 0Z" fill="rgb(227,73,2)" fill-opacity="0.3"></path>
<path d="M888.2 271l2 0l0 -0.1l-2 0Z" fill="rgb(227,73,2)" fill-opacity="0.3"></path>
<path d="M891 271l2 0l0 -0.1l-2 0Z" fill="rgb(227,73,2)" fill-opacity="0.3"></path>
<path d="M893.8 271l2 0l0 -0.1l-2 0Z" fill="rgb(227,73,2)" fill-opacity="0.3"></path>
<path d="M896.7 271l2 0l0 -0.1l-2 0Z" fill="rgb(227,73,2)" fill-opacity="0.3"></path>
<path d="M899.5 271l2 0l0 -0.1l-2 0Z" fill="rgb(227,73,2)" fill-opacity="0.3"></path>
<path d="M902.4 271l2 0l0 -0.1l-2 0Z" fill="rgb(227,73,2)" fill-opacity="0.3"></path>
<path d="M905.2 271l2 0l0 -0.1l-2 0Z" fill="rgb(227,73,2)" fill-opacity="0.3"></path>
<path d="M908 271l2 0l0 -0.1l-2 0Z" fill="rgb(227,73,2)" fill-opacity="0.3"></path>
<path d="M910.9 271l2 0l0 -0.1l-2 0Z" fill="rgb(227,73,2)" fill-opacity="0.3"></path>
<path d="M913.7 271l2 0l0 -0.1l-2 0Z" fill="rgb(227,73,2)" fill-opacity="0.3"></path>
<path d="M916.5 271l2 0l0 -0.1l-2 0Z" fill="rgb(227,73,2)" fill-opacity="0.3"></path>
<path d="M919.4 271l2 0l0 -0.1l-2 0Z" fill="rgb(227,73,2)" fill-opacity="0.3"></path>
<path d="M-5 -5l226.9 0l0 24l-226.9 0Z" transform="translate(391.54 5)" fill="rgb(0,0,0)" fill-opacity="0" stroke="#ccc" stroke-width="0"></path>
<path d="M3.5 0L21.5 0A3.5 3.5 0 0 1 25 3.5L25 10.5A3.5 3.5 0 0 1 21.5 14L3.5 14A3.5 3.5 0 0 1 0 10.5L0 3.5A3.5 3.5 0 0 1 3.5 0" transform="translate(391.54 5)" fill="rgb(227,73,2)" fill-opacity="0.3"></path>
<text dominant-baseline="central" text-anchor="start" style="font-size:12px;font-family:sans-serif;" xml:space="preserve" x="30" y="7" transform="translate(391.54 5)" fill="#333">Times completed</text>
<path d="M0 7L25 7" transform="translate(524.1 5)" fill="#000" stroke="#E34902" stroke-width="2" stroke-linecap="butt" stroke-miterlimit="10"></path>
<path d="M18.1 7A5.6 5.6 0 1 1 18.1 6.4A5.6 5.6 0 0 1 18.1 7" transform="translate(524.1 5)" fill="#fff" stroke="#E34902" stroke-width="2" stroke-linecap="butt" stroke-miterlimit="10"></path>
<text dominant-baseline="central" text-anchor="start" style="font-size:12px;font-family:sans-serif;" x="30" y="7" transform="translate(524.1 5)" fill="#333">Eddington</text>
<path d="M-0.54 -0.89A0.6 0.6 0 1 1 0.54 -0.89C0.39 -0.56 0 -0.42 0 0C0 -0.42 -0.39 -0.56 -0.54 -0.89Z" transform="matrix(25,0,0,25,540.3698,251.3179)" fill="rgb(227,73,2)" fill-opacity="0.8"></path>
<text dominant-baseline="central" text-anchor="middle" style="font-size:12px;font-family:sans-serif;" transform="translate(540.3698 225.1751)" fill="#eee" stroke="rgb(227,73,2)" stroke-width="2" paint-order="stroke" stroke-opacity="0.8" stroke-miterlimit="2">167</text>
<g clip-path="url(#zr0-c0)">
<path d="M69.7 270.9L72.5 270.8L75.3 270.7L78.2 270.6L81 270.6L83.8 270.5L86.7 270.4L89.5 270.3L92.3 270.2L95.2 270.1L98 270L100.8 269.9L103.7 269.9L106.5 269.8L109.4 269.7L112.2 269.6L115 269.5L117.9 269.4L120.7 269.3L123.5 269.2L126.4 269.2L129.2 269.1L132 269L134.9 268.9L137.7 268.8L140.5 268.7L143.4 268.6L146.2 268.5L149.1 268.5L151.9 268.4L154.7 268.3L157.6 268.2L160.4 268.1L163.2 268L166.1 267.9L168.9 267.8L171.7 267.7L174.6 267.7L177.4 267.6L180.2 267.5L183.1 267.4L185.9 267.3L188.8 267.2L191.6 267.1L194.4 267L197.3 267L200.1 266.9L202.9 266.8L205.8 266.7L208.6 266.6L211.4 266.5L214.3 266.4L217.1 266.3L219.9 266.3L222.8 266.2L225.6 266.1L228.5 266L231.3 265.9L234.1 265.8L237 265.7L239.8 265.6L242.6 265.5L245.5 265.5L248.3 265.4L251.1 265.3L254 265.2L256.8 265.1L259.6 265L262.5 264.9L265.3 264.8L268.2 264.8L271 264.7L273.8 264.6L276.7 264.5L279.5 264.4L282.3 264.3L285.2 264.2L288 264.1L290.8 264.1L293.7 264L296.5 263.9L299.3 263.8L302.2 263.7L305 263.6L307.8 263.5L310.7 263.4L313.5 263.4L316.4 263.3L319.2 263.2L322 263.1L324.9 263L327.7 262.9L330.5 262.8L333.4 262.7L336.2 262.6L339 262.6L341.9 262.5L344.7 262.4L347.5 262.3L350.4 262.2L353.2 262.1L356.1 262L358.9 261.9L361.7 261.9L364.6 261.8L367.4 261.7L370.2 261.6L373.1 261.5L375.9 261.4L378.7 261.3L381.6 261.2L384.4 261.2L387.2 261.1L390.1 261L392.9 260.9L395.8 260.8L398.6 260.7L401.4 260.6L404.3 260.5L407.1 260.5L409.9 260.4L412.8 260.3L415.6 260.2L418.4 260.1L421.3 260L424.1 259.9L426.9 259.8L429.8 259.7L432.6 259.7L435.5 259.6L438.3 259.5L441.1 259.4L444 259.3L446.8 259.2L449.6 259.1L452.5 259L455.3 259L458.1 258.9L461 258.8L463.8 258.7L466.6 258.6L469.5 258.5L472.3 258.4L475.2 258.3L478 258.3L480.8 258.2L483.7 258.1L486.5 258L489.3 257.9L492.2 257.8L495 257.7L497.8 257.6L500.7 257.5L503.5 257.5L506.3 257.4L509.2 257.3L512 257.2L514.8 257.1L517.7 257L520.5 256.9L523.4 256.8L526.2 256.8L529 256.7L531.9 256.6L534.7 256.5L537.5 256.4L540.4 256.3L543.2 256.2L546 256.1L548.9 256.1L551.7 256L554.5 255.9L557.4 255.8L560.2 255.7L563.1 255.6L565.9 255.5L568.7 255.4L571.6 255.4L574.4 255.3L577.2 255.2L580.1 255.1L582.9 255L585.7 254.9L588.6 254.8L591.4 254.7L594.2 254.6L597.1 254.6L599.9 254.5L602.8 254.4L605.6 254.3L608.4 254.2L611.3 254.1L614.1 254L616.9 253.9L619.8 253.9L622.6 253.8L625.4 253.7L628.3 253.6L631.1 253.5L633.9 253.4L636.8 253.3L639.6 253.2L642.5 253.2L645.3 253.1L648.1 253L651 252.9L653.8 252.8L656.6 252.7L659.5 252.6L662.3 252.5L665.1 252.4L668 252.4L670.8 252.3L673.6 252.2L676.5 252.1L679.3 252L682.2 251.9L685 251.8L687.8 251.7L690.7 251.7L693.5 251.6L696.3 251.5L699.2 251.4L702 251.3L704.8 251.2L707.7 251.1L710.5 251L713.3 251L716.2 250.9L719 250.8L721.8 250.7L724.7 250.6L727.5 250.5L730.4 250.4L733.2 250.3L736 250.3L738.9 250.2L741.7 250.1L744.5 250L747.4 249.9L750.2 249.8L753 249.7L755.9 249.6L758.7 249.5L761.5 249.5L764.4 249.4L767.2 249.3L770.1 249.2L772.9 249.1L775.7 249L778.6 248.9L781.4 248.8L784.2 248.8L787.1 248.7L789.9 248.6L792.7 248.5L795.6 248.4L798.4 248.3L801.2 248.2L804.1 248.1L806.9 248.1L809.8 248L812.6 247.9L815.4 247.8L818.3 247.7L821.1 247.6L823.9 247.5L826.8 247.4L829.6 247.4L832.4 247.3L835.3 247.2L838.1 247.1L840.9 247L843.8 246.9L846.6 246.8L849.5 246.7L852.3 246.6L855.1 246.6L858 246.5L860.8 246.4L863.6 246.3L866.5 246.2L869.3 246.1L872.1 246L875 245.9L877.8 245.9L880.6 245.8L883.5 245.7L886.3 245.6L889.2 245.5L892 245.4L894.8 245.3L897.7 245.2L900.5 245.2L903.3 245.1L906.2 245L909 244.9L911.8 244.8L914.7 244.7L917.5 244.6L920.3 244.5" fill="none" stroke="#E34902" stroke-width="2" stroke-linejoin="bevel"></path>
</g>
<defs >
<clipPath id="zr0-c0">
<path d="M67 59l856 0l0 213l-856 0Z" fill="#000"></path>
</clipPath>
</defs>
</svg>