<svg width="1000" height="300" xmlns="http://www.w3.org/2000/svg" xmlns:xlink="http://www.w3.org/1999/xlink" version="1.1" baseProfile="full" viewBox="0 0 1000 300">
<rect width="1000" height="300" x="0" y="0" id="0" fill="#ffffff"></rect>
<path d="M68.2 271.5L921.8 271.5" fill="none" stroke="#E0E6F1"></path>
<path d="M68.2 229.5L921.8 229.5" fill="none" stroke="#E0E6F1"></path>
<path d="M68.2 186.5L921.8 186.5" fill="none" stroke="#E0E6F1"></path>
<path d="M68.2 144.5L921.8 144.5" fill="none" stroke="#E0E6F1"></path>
<path d="M68.2 102.5L921.8 102.5" fill="none" stroke="#E0E6F1"></path>
<path d="M68.2 60.5L921.8 60.5" fill="none" stroke="#E0E6F1"></path>
<path d="M68.2 271.5L921.8 271.5" fill="none" stroke="#6E7079" stroke-linecap="round"></path>
<path d="M69.5 271L69.5 276" fill="none" stroke="#6E7079"></path>
<path d="M117.5 271L117.5 276" fill="none" stroke="#6E7079"></path>
<path d="M165.5 271L165.5 276" fill="none" stroke="#6E7079"></path>
<path d="M213.5 271L213.5 276" fill="none" stroke="#6E7079"></path>
<path d="M260.5 271L260.5 276" fill="none" stroke="#6E7079"></path>
<path d="M308.5 271L308.5 276" fill="none" stroke="#6E7079"></path>
<path d="M356.5 271L356.5 276" fill="none" stroke="#6E7079"></path>
<path d="M404.5 271L404.5 276" fill="none" stroke="#6E7079"></path>
<path d="M451.5 271L451.5 276" fill="none" stroke="#6E7079"></path>
<path d="M499.5 271L499.5 276" fill="none" stroke="#6E7079"></path>
<path d="M547.5 271L547.5 276" fill="none" stroke="#6E7079"></path>
<path d="M594.5 271L594.5 276" fill="none" stroke="#6E7079"></path>
<path d="M642.5 271L642.5 276" fill="none" stroke="#6E7079"></path>
<path d="M690.5 271L690.5 276" fill="none" stroke="#6E7079"></path>
<path d="M738.5 271L738.5 276" fill="none" stroke="#6E7079"></path>
<path d="M785.5 271L785.5 276" fill="none" stroke="#6E7079"></path>
<path d="M833.5 271L833.5 276" fill="none" stroke="#6E7079"></path>
<path d="M881.5 271L881.5 276" fill="none" stroke="#6E7079"></path>
<text dominant-baseline="central" text-anchor="end" style="font-size:12px;font-family:sans-serif;" transform="translate(60.24 271)" fill="#6E7079">0</text>
<text dominant-baseline="central" text-anchor="end" style="font-size:12px;font-family:sans-serif;" transform="translate(60.24 228.8)" fill="#6E7079">510</text>
<text dominant-baseline="central" text-anchor="end" style="font-size:12px;font-family:sans-serif;" transform="translate(60.24 186.6)" fill="#6E7079">1,020</text>
<text dominant-baseline="central" text-anchor="end" style="font-size:12px;font-family:sans-serif;" transform="translate(60.24 144.4)" fill="#6E7079">1,530</text>
<text dominant-baseline="central" text-anchor="end" style="font-size:12px;font-family:sans-serif;" transform="translate(60.24 102.2)" fill="#6E7079">2,040</text>
<text dominant-baseline="central" text-anchor="end" style="font-size:12px;font-family:sans-serif;" transform="translate(60.24 60)" fill="#6E7079">2,550</text>
<text dominant-baseline="central" text-anchor="start" style="font-size:12px;font-family:sans-serif;" transform="translate(929.76 271)" fill="#6E7079">0</text>
<text dominant-baseline="central" text-anchor="start" style="font-size:12px;font-family:sans-serif;" transform="translate(929.76 228.8)" fill="#6E7079">510</text>
<text dominant-baseline="central" text-anchor="start" style="font-size:12px;font-family:sans-serif;" transform="translate(929.76 186.6)" fill="#6E7079">1,020</text>
<text dominant-baseline="central" text-anchor="start" style="font-size:12px;font-family:sans-serif;" transform="translate(929.76 144.4)" fill="#6E7079">1,530</text>
<text dominant-baseline="central" text-anchor="start" style="font-size:12px;font-family:sans-serif;" transform="translate(929.76 102.2)" fill="#6E7079">2,040</text>
<text dominant-baseline="central" text-anchor="start" style="font-size:12px;font-family:sans-serif;" transform="translate(929.76 60)" fill="#6E7079">2,550</text>
<text dominant-baseline="central" text-anchor="middle" style="font-size:12px;font-family:sans-serif;" y="6" transform="translate(69.6438 279)" fill="#6E7079">1km</text>
<text dominant-baseline="central" text-anchor="middle" style="font-size:12px;font-family:sans-serif;" y="6" transform="translate(117.3736 279)" fill="#6E7079">18km</text>
<text dominant-baseline="central" text-anchor="middle" style="font-size:12px;font-family:sans-serif;" y="6" transform="translate(165.1033 279)" fill="#6E7079">35km</text>
<text dominant-baseline="central" text-anchor="middle" style="font-size:12px;font-family:sans-serif;" y="6" transform="translate(212.833 279)" fill="#6E7079">52km</text>
<text dominant-baseline="central" text-anchor="middle" style="font-size:12px;font-family:sans-serif;" y="6" transform="translate(260.5628 279)" fill="#6E7079">69km</text>
<text dominant-baseline="central" text-anchor="middle" style="font-size:12px;font-family:sans-serif;" y="6" transform="translate(308.2925 279)" fill="#6E7079">86km</text>
<text dominant-baseline="central" text-anchor="middle" style="font-size:12px;font-family:sans-serif;" y="6" transform="translate(356.0222 279)" fill="#6E7079">103km</text>
<text dominant-baseline="central" text-anchor="middle" style="font-size:12px;font-family:sans-serif;" y="6" transform="translate(403.752 279)" fill="#6E7079">120km</text>
<text dominant-baseline="central" text-anchor="middle" style="font-size:12px;font-family:sans-serif;" y="6" transform="translate(451.4817 279)" fill="#6E7079">137km</text>
<text dominant-baseline="central" text-anchor="middle" style="font-size:12px;font-family:sans-serif;" y="6" transform="translate(499.2114 279)" fill="#6E7079">154km</text>
<text dominant-baseline="central" text-anchor="middle" style="font-size:12px;font-family:sans-serif;" y="6" transform="translate(546.9412 279)" fill="#6E7079">171km</text>
<text dominant-baseline="central" text-anchor="middle" style="font-size:12px;font-family:sans-serif;" y="6" transform="translate(594.6709 279)" fill="#6E7079">188km</text>
<text dominant-baseline="central" text-anchor="middle" style="font-size:12px;font-family:sans-serif;" y="6" transform="translate(642.4007 279)" fill="#6E7079">205km</text>
<text dominant-baseline="central" text-anchor="middle" style="font-size:12px;font-family:sans-serif;" y="6" transform="translate(690.1304 279)" fill="#6E7079">222km</text>
<text dominant-baseline="central" text-anchor="middle" style="font-size:12px;font-family:sans-serif;" y="6" transform="translate(737.8601 279)" fill="#6E7079">239km</text>
<text dominant-baseline="central" text-anchor="middle" style="font-size:12px;font-family:sans-serif;" y="6" transform="translate(785.5899 279)" fill="#6E7079">256km</text>
<text dominant-baseline="central" text-anchor="middle" style="font-size:12px;font-family:sans-serif;" y="6" transform="translate(833.3196 279)" fill="#6E7079">273km</text>
<text dominant-baseline="central" text-anchor="middle" style="font-size:12px;font-family:sans-serif;" y="6" transform="translate(881.0493 279)" fill="#6E7079">290km</text>
<path d="M68.7 271l1.9 0l0 -209.4l-1.9 0Z" fill="rgb(227,73,2)" fill-opacity="0.3"></path>
<path d="M71.5 271l1.9 0l0 -208.8l-1.9 0Z" fill="rgb(227,73,2)" fill-opacity="0.3"></path>
<path d="M74.3 271l1.9 0l0 -208l-1.9 0Z" fill="rgb(227,73,2)" fill-opacity="0.3"></path>
<path d="M77.1 271l1.9 0l0 -207.6l-1.9 0Z" fill="rgb(227,73,2)" fill-opacity="0.3"></path>
<path d="M79.9 271l1.9 0l0 -207.3l-1.9 0Z" fill="rgb(227,73,2)" fill-opacity="0.3"></path>
<path d="M82.7 271l1.9 0l0 -206.7l-1.9 0Z" fill="rgb(227,73,2)" fill-opacity="0.3"></path>
<path d="M85.5 271l1.9 0l0 -206.1l-1.9 0Z" fill="rgb(227,73,2)" fill-opacity="0.3"></path>
<path d="M88.3 271l1.9 0l0 -206l-1.9 0Z" fill="rgb(227,73,2)" fill-opacity="0.3"></path>
<path d="M91.1 271l1.9 0l0 -205.6l-1.9 0Z" fill="rgb(227,73,2)" fill-opacity="0.3"></path>
<path d="M93.9 271l1.9 0l0 -205.6l-1.9 0Z" fill="rgb(227,73,2)" fill-opacity="0.3"></path>
<path d="M96.8 271l1.9 0l0 -205.5l-1.9 0Z" fill="rgb(227,73,2)" fill-opacity="0.3"></path>
<path d="M99.6 271l1.9 0l0 -205.2l-1.9 0Z" fill="rgb(227,73,2)" fill-opacity="0.3"></path>
<path d="M102.4 271l1.9 0l0 -205l-1.9 0Z" fill="rgb(227,73,2)" fill-opacity="0.3"></path>
<path d="M105.2 271l1.9 0l0 -205l-1.9 0Z" fill="rgb(227,73,2)" fill-opacity="0.3"></path>
<path d="M108 271l1.9 0l0 -204.9l-1.9 0Z" fill="rgb(227,73,2)" fill-opacity="0.3"></path>
<path d="M110.8 271l1.9 0l0 -204.6l-1.9 0Z" fill="rgb(227,73,2)" fill-opacity="0.3"></path>
<path d="M113.6 271l1.9 0l0 -204.2l-1.9 0Z" fill="rgb(227,73,2)" fill-opacity="0.3"></path>
<path d="M116.4 271l1.9 0l0 -204l-1.9 0Z" fill="rgb(227,73,2)" fill-opacity="0.3"></path>
<path d="M119.2 271l1.9 0l0 -203.8l-1.9 0Z" fill="rgb(227,73,2)" fill-opacity="0.3"></path>
<path d="M122 271l1.9 0l0 -203.7l-1.9 0Z" fill="rgb(227,73,2)" fill-opacity="0.3"></path>
<path d="M124.8 271l1.9 0l0 -202.6l-1.9 0Z" fill="rgb(227,73,2)" fill-opacity="0.3"></path>
<path d="M127.6 271l1.9 0l0 -201.7l-1.9 0Z" fill="rgb(227,73,2)" fill-opacity="0.3"></path>
<path d="M130.4 271l1.9 0l0 -201.2l-1.9 0Z" fill="rgb(227,73,2)" fill-opacity="0.3"></path>
<path d="M133.3 271l1.9 0l0 -200.7l-1.9 0Z" fill="rgb(227,73,2)" fill-opacity="0.3"></path>
<path d="M136.1 271l1.9 0l0 -200.3l-1.9 0Z" fill="rgb(227,73,2)" fill-opacity="0.3"></path>
<path d="M138.9 271l1.9 0l0 -199.3l-1.9 0Z" fill="rgb(227,73,2)" fill-opacity="0.3"></path>
<path d="M141.7 271l1.9 0l0 -198.6l-1.9 0Z" fill="rgb(227,73,2)" fill-opacity="0.3"></path>
<path d="M144.5 271l1.9 0l0 -197.8l-1.9 0Z" fill="rgb(227,73,2)" fill-opacity="0.3"></path>
<path d="M147.3 271l1.9 0l0 -197.6l-1.9 0Z" fill="rgb(227,73,2)" fill-opacity="0.3"></path>
<path d="M150.1 271l1.9 0l0 -197.4l-1.9 0Z" fill="rgb(227,73,2)" fill-opacity="0.3"></path>
<path d="M152.9 271l1.9 0l0 -194.9l-1.9 0Z" fill="rgb(227,73,2)" fill-opacity="0.3"></path>
<path d="M155.7 271l1.9 0l0 -193l-1.9 0Z" fill="rgb(227,73,2)" fill-opacity="0.3"></path>
<path d="M158.5 271l1.9 0l0 -191l-1.9 0Z" fill="rgb(227,73,2)" fill-opacity="0.3"></path>
<path d="M161.3 271l1.9 0l0 -189.3l-1.9 0Z" fill="rgb(227,73,2)" fill-opacity="0.3"></path>
<path d="M164.1 271l1.9 0l0 -188.2l-1.9 0Z" fill="rgb(227,73,2)" fill-opacity="0.3"></path>
<path d="M166.9 271l1.9 0l0 -183.1l-1.9 0Z" fill="rgb(227,73,2)" fill-opacity="0.3"></path>
<path d="M169.7 271l1.9 0l0 -181l-1.9 0Z" fill="rgb(227,73,2)" fill-opacity="0.3"></path>
<path d="M172.6 271l1.9 0l0 -179.4l-1.9 0Z" fill="rgb(227,73,2)" fill-opacity="0.3"></path>
<path d="M175.4 271l1.9 0l0 -178.2l-1.9 0Z" fill="rgb(227,73,2)" fill-opacity="0.3"></path>
<path d="M178.2 271l1.9 0l0 -177.7l-1.9 0Z" fill="rgb(227,73,2)" fill-opacity="0.3"></path>
<path d="M181 271l1.9 0l0 -175.3l-1.9 0Z" fill="rgb(227,73,2)" fill-opacity="0.3"></path>
<path d="M183.8 271l1.9 0l0 -174.3l-1.9 0Z" fill="rgb(227,73,2)" fill-opacity="0.3"></path>
<path d="M186.6 271l1.9 0l0 -173.7l-1.9 0Z" fill="rgb(227,73,2)" fill-opacity="0.3"></path>
<path d="M189.4 271l1.9 0l0 -172.9l-1.9 0Z" fill="rgb(227,73,2)" fill-opacity="0.3"></path>
<path d="M192.2 271l1.9 0l0 -172.3l-1.9 0Z" fill="rgb(227,73,2)" fill-opacity="0.3"></path>
<path d="M195 271l1.9 0l0 -171.5l-1.9 0Z" fill="rgb(227,73,2)" fill-opacity="0.3"></path>
<path d="M197.8 271l1.9 0l0 -171l-1.9 0Z" fill="rgb(227,73,2)" fill-opacity="0.3"></path>
<path d="M200.6 271l1.9 0l0 -170.9l-1.9 0Z" fill="rgb(227,73,2)" fill-opacity="0.3"></path>
<path d="M203.4 271l1.9 0l0 -170.1l-1.9 0Z" fill="rgb(227,73,2)" fill-opacity="0.3"></path>
<path d="M206.2 271l1.9 0l0 -170l-1.9 0Z" fill="rgb(227,73,2)" fill-opacity="0.3"></path>
<path d="M209.1 271l1.9 0l0 -155.7l-1.9 0Z" fill="rgb(227,73,2)" fill-opacity="0.3"></path>
<path d="M211.9 271l1.9 0l0 -146l-1.9 0Z" fill="rgb(227,73,2)" fill-opacity="0.3"></path>
<path d="M214.7 271l1.9 0l0 -140.5l-1.9 0Z" fill="rgb(227,73,2)" fill-opacity="0.3"></path>
<path d="M217.5 271l1.9 0l0 -134.6l-1.9 0Z" fill="rgb(227,73,2)" fill-opacity="0.3"></path>
<path d="M220.3 271l1.9 0l0 -131.6l-1.9 0Z" fill="rgb(227,73,2)" fill-opacity="0.3"></path>
<path d="M223.1 271l1.9 0l0 -126.9l-1.9 0Z" fill="rgb(227,73,2)" fill-opacity="0.3"></path>
<path d="M225.9 271l1.9 0l0 -123.1l-1.9 0Z" fill="rgb(227,73,2)" fill-opacity="0.3"></path>
<path d="M228.7 271l1.9 0l0 -120.2l-1.9 0Z" fill="rgb(227,73,2)" fill-opacity="0.3"></path>
<path d="M231.5 271l1.9 0l0 -118.7l-1.9 0Z" fill="rgb(227,73,2)" fill-opacity="0.3"></path>
<path d="M234.3 271l1.9 0l0 -117.7l-1.9 0Z" fill="rgb(227,73,2)" fill-opacity="0.3"></path>
<path d="M237.1 271l1.9 0l0 -112.1l-1.9 0Z" fill="rgb(227,73,2)" fill-opacity="0.3"></path>
<path d="M239.9 271l1.9 0l0 -108.8l-1.9 0Z" fill="rgb(227,73,2)" fill-opacity="0.3"></path>
<path d="M242.7 271l1.9 0l0 -105.5l-1.9 0Z" fill="rgb(227,73,2)" fill-opacity="0.3"></path>
<path d="M245.6 271l1.9 0l0 -103.2l-1.9 0Z" fill="rgb(227,73,2)" fill-opacity="0.3"></path>
<path d="M248.4 271l1.9 0l0 -101.7l-1.9 0Z" fill="rgb(227,73,2)" fill-opacity="0.3"></path>
<path d="M251.2 271l1.9 0l0 -99l-1.9 0Z" fill="rgb(227,73,2)" fill-opacity="0.3"></path>
<path d="M254 271l1.9 0l0 -96.5l-1.9 0Z" fill="rgb(227,73,2)" fill-opacity="0.3"></path>
<path d="M256.8 271l1.9 0l0 -95l-1.9 0Z" fill="rgb(227,73,2)" fill-opacity="0.3"></path>
<path d="M259.6 271l1.9 0l0 -93.6l-1.9 0Z" fill="rgb(227,73,2)" fill-opacity="0.3"></path>
<path d="M262.4 271l1.9 0l0 -93l-1.9 0Z" fill="rgb(227,73,2)" fill-opacity="0.3"></path>
<path d="M265.2 271l1.9 0l0 -91.7l-1.9 0Z" fill="rgb(227,73,2)" fill-opacity="0.3"></path>
<path d="M268 271l1.9 0l0 -90.5l-1.9 0Z" fill="rgb(227,73,2)" fill-opacity="0.3"></path>
<path d="M270.8 271l1.9 0l0 -89.6l-1.9 0Z" fill="rgb(227,73,2)" fill-opacity="0.3"></path>
<path d="M273.6 271l1.9 0l0 -89l-1.9 0Z" fill="rgb(227,73,2)" fill-opacity="0.3"></path>
<path d="M276.4 271l1.9 0l0 -88.4l-1.9 0Z" fill="rgb(227,73,2)" fill-opacity="0.3"></path>
<path d="M279.2 271l1.9 0l0 -87l-1.9 0Z" fill="rgb(227,73,2)" fill-opacity="0.3"></path>
<path d="M282.1 271l1.9 0l0 -85.5l-1.9 0Z" fill="rgb(227,73,2)" fill-opacity="0.3"></path>
<path d="M284.9 271l1.9 0l0 -84.7l-1.9 0Z" fill="rgb(227,73,2)" fill-opacity="0.3"></path>
<path d="M287.7 271l1.9 0l0 -83.9l-1.9 0Z" fill="rgb(227,73,2)" fill-opacity="0.3"></path>
<path d="M290.5 271l1.9 0l0 -83.6l-1.9 0Z" fill="rgb(227,73,2)" fill-opacity="0.3"></path>
<path d="M293.3 271l1.9 0l0 -82.4l-1.9 0Z" fill="rgb(227,73,2)" fill-opacity="0.3"></path>
<path d="M296.1 271l1.9 0l0 -81.7l-1.9 0Z" fill="rgb(227,73,2)" fill-opacity="0.3"></path>
<path d="M298.9 271l1.9 0l0 -81.2l-1.9 0Z" fill="rgb(227,73,2)" fill-opacity="0.3"></path>
<path d="M301.7 271l1.9 0l0 -80.7l-1.9 0Z" fill="rgb(227,73,2)" fill-opacity="0.3"></path>
<path d="M304.5 271l1.9 0l0 -80.2l-1.9 0Z" fill="rgb(227,73,2)" fill-opacity="0.3"></path>
<path d="M307.3 271l1.9 0l0 -79.3l-1.9 0Z" fill="rgb(227,73,2)" fill-opacity="0.3"></path>
<path d="M310.1 271l1.9 0l0 -78.6l-1.9 0Z" fill="rgb(227,73,2)" fill-opacity="0.3"></path>
<path d="M312.9 271l1.9 0l0 -78.3l-1.9 0Z" fill="rgb(227,73,2)" fill-opacity="0.3"></path>
<path d="M315.7 271l1.9 0l0 -77.6l-1.9 0Z" fill="rgb(227,73,2)" fill-opacity="0.3"></path>
<path d="M318.6 271l1.9 0l0 -77.1l-1.9 0Z" fill="rgb(227,73,2)" fill-opacity="0.3"></path>
<path d="M321.4 271l1.9 0l0 -76.8l-1.9 0Z" fill="rgb(227,73,2)" fill-opacity="0.3"></path>
<path d="M324.2 271l1.9 0l0 -76.7l-1.9 0Z" fill="rgb(227,73,2)" fill-opacity="0.3"></path>
<path d="M327 271l1.9 0l0 -76.5l-1.9 0Z" fill="rgb(227,73,2)" fill-opacity="0.3"></path>
<path d="M329.8 271l1.9 0l0 -76.5l-1.9 0Z" fill="rgb(227,73,2)" fill-opacity="0.3"></path>
<path d="M332.6 271l1.9 0l0 -76.4l-1.9 0Z" fill="rgb(227,73,2)" fill-opacity="0.3"></path>
<path d="M335.4 271l1.9 0l0 -76.4l-1.9 0Z" fill="rgb(227,73,2)" fill-opacity="0.3"></path>
<path d="M338.2 271l1.9 0l0 -76.3l-1.9 0Z" fill="rgb(227,73,2)" fill-opacity="0.3"></path>
<path d="M341 271l1.9 0l0 -76.3l-1.9 0Z" fill="rgb(227,73,2)" fill-opacity="0.3"></path>
<path d="M343.8 271l1.9 0l0 -76.3l-1.9 0Z" fill="rgb(227,73,2)" fill-opacity="0.3"></path>
<path d="M346.6 271l1.9 0l0 -76.2l-1.9 0Z" fill="rgb(227,73,2)" fill-opacity="0.3"></path>
<path d="M349.4 271l1.9 0l0 -73.1l-1.9 0Z" fill="rgb(227,73,2)" fill-opacity="0.3"></path>
<path d="M352.2 271l1.9 0l0 -69.5l-1.9 0Z" fill="rgb(227,73,2)" fill-opacity="0.3"></path>
<path d="M355.1 271l1.9 0l0 -66.8l-1.9 0Z" fill="rgb(227,73,2)" fill-opacity="0.3"></path>
<path d="M357.9 271l1.9 0l0 -64.3l-1.9 0Z" fill="rgb(227,73,2)" fill-opacity="0.3"></path>
<path d="M360.7 271l1.9 0l0 -62.4l-1.9 0Z" fill="rgb(227,73,2)" fill-opacity="0.3"></path>
<path d="M363.5 271l1.9 0l0 -60.5l-1.9 0Z" fill="rgb(227,73,2)" fill-opacity="0.3"></path>
<path d="M366.3 271l1.9 0l0 -58.8l-1.9 0Z" fill="rgb(227,73,2)" fill-opacity="0.3"></path>
<path d="M369.1 271l1.9 0l0 -56.8l-1.9 0Z" fill="rgb(227,73,2)" fill-opacity="0.3"></path>
<path d="M371.9 271l1.9 0l0 -55.4l-1.9 0Z" fill="rgb(227,73,2)" fill-opacity="0.3"></path>
<path d="M374.7 271l1.9 0l0 -54.6l-1.9 0Z" fill="rgb(227,73,2)" fill-opacity="0.3"></path>
<path d="M377.5 271l1.9 0l0 -53.4l-1.9 0Z" fill="rgb(227,73,2)" fill-opacity="0.3"></path>
<path d="M380.3 271l1.9 0l0 -52.1l-1.9 0Z" fill="rgb(227,73,2)" fill-opacity="0.3"></path>
<path d="M383.1 271l1.9 0l0 -50.6l-1.9 0Z" fill="rgb(227,73,2)" fill-opacity="0.3"></path>
<path d="M385.9 271l1.9 0l0 -48.7l-1.9 0Z" fill="rgb(227,73,2)" fill-opacity="0.3"></path>
<path d="M388.7 271l1.9 0l0 -47.5l-1.9 0Z" fill="rgb(227,73,2)" fill-opacity="0.3"></path>
<path d="M391.6 271l1.9 0l0 -46.5l-1.9 0Z" fill="rgb(227,73,2)" fill-opacity="0.3"></path>
<path d="M394.4 271l1.9 0l0 -45.6l-1.9 0Z" fill="rgb(227,73,2)" fill-opacity="0.3"></path>
<path d="M397.2 271l1.9 0l0 -44.8l-1.9 0Z" fill="rgb(227,73,2)" fill-opacity="0.3"></path>
<path d="M400 271l1.9 0l0 -43.6l-1.9 0Z" fill="rgb(227,73,2)" fill-opacity="0.3"></path>
<path d="M402.8 271l1.9 0l0 -43.4l-1.9 0Z" fill="rgb(227,73,2)" fill-opacity="0.3"></path>
<path d="M405.6 271l1.9 0l0 -41.4l-1.9 0Z" fill="rgb(227,73,2)" fill-opacity="0.3"></path>
<path d="M408.4 271l1.9 0l0 -39.6l-1.9 0Z" fill="rgb(227,73,2)" fill-opacity="0.3"></path>
<path d="M411.2 271l1.9 0l0 -38.7l-1.9 0Z" fill="rgb(227,73,2)" fill-opacity="0.3"></path>
<path d="M414 271l1.9 0l0 -37.7l-1.9 0Z" fill="rgb(227,73,2)" fill-opacity="0.3"></path>
<path d="M416.8 271l1.9 0l0 -37.2l-1.9 0Z" fill="rgb(227,73,2)" fill-opacity="0.3"></path>
<path d="M419.6 271l1.9 0l0 -36.1l-1.9 0Z" fill="rgb(227,73,2)" fill-opacity="0.3"></path>
<path d="M422.4 271l1.9 0l0 -35.1l-1.9 0Z" fill="rgb(227,73,2)" fill-opacity="0.3"></path>
<path d="M425.2 271l1.9 0l0 -34.2l-1.9 0Z" fill="rgb(227,73,2)" fill-opacity="0.3"></path>
<path d="M428.1 271l1.9 0l0 -33.4l-1.9 0Z" fill="rgb(227,73,2)" fill-opacity="0.3"></path>
<path d="M430.9 271l1.9 0l0 -33.1l-1.9 0Z" fill="rgb(227,73,2)" fill-opacity="0.3"></path>
<path d="M433.7 271l1.9 0l0 -32.4l-1.9 0Z" fill="rgb(227,73,2)" fill-opacity="0.3"></path>
<path d="M436.5 271l1.9 0l0 -31.9l-1.9 0Z" fill="rgb(227,73,2)" fill-opacity="0.3"></path>
<path d="M439.3 271l1.9 0l0 -31.4l-1.9 0Z" fill="rgb(227,73,2)" fill-opacity="0.3"></path>
<path d="M442.1 271l1.9 0l0 -30.5l-1.9 0Z" fill="rgb(227,73,2)" fill-opacity="0.3"></path>
<path d="M444.9 271l1.9 0l0 -29.9l-1.9 0Z" fill="rgb(227,73,2)" fill-opacity="0.3"></path>
<path d="M447.7 271l1.9 0l0 -29l-1.9 0Z" fill="rgb(227,73,2)" fill-opacity="0.3"></path>
<path d="M450.5 271l1.9 0l0 -28.2l-1.9 0Z" fill="rgb(227,73,2)" fill-opacity="0.3"></path>
<path d="M453.3 271l1.9 0l0 -27.8l-1.9 0Z" fill="rgb(227,73,2)" fill-opacity="0.3"></path>
<path d="M456.1 271l1.9 0l0 -27.6l-1.9 0Z" fill="rgb(227,73,2)" fill-opacity="0.3"></path>
<path d="M458.9 271l1.9 0l0 -27.1l-1.9 0Z" fill="rgb(227,73,2)" fill-opacity="0.3"></path>
<path d="M461.7 271l1.9 0l0 -26.2l-1.9 0Z" fill="rgb(227,73,2)" fill-opacity="0.3"></path>
<path d="M464.6 271l1.9 0l0 -25.2l-1.9 0Z" fill="rgb(227,73,2)" fill-opacity="0.3"></path>
<path d="M467.4 271l1.9 0l0 -24.5l-1.9 0Z" fill="rgb(227,73,2)" fill-opacity="0.3"></path>
<path d="M470.2 271l1.9 0l0 -24l-1.9 0Z" fill="rgb(227,73,2)" fill-opacity="0.3"></path>
<path d="M473 271l1.9 0l0 -23.7l-1.9 0Z" fill="rgb(227,73,2)" fill-opacity="0.3"></path>
<path d="M475.8 271l1.9 0l0 -23.4l-1.9 0Z" fill="rgb(227,73,2)" fill-opacity="0.3"></path>
<path d="M478.6 271l1.9 0l0 -23.2l-1.9 0Z" fill="rgb(227,73,2)" fill-opacity="0.3"></path>
<path d="M481.4 271l1.9 0l0 -22.9l-1.9 0Z" fill="rgb(227,73,2)" fill-opacity="0.3"></path>
<path d="M484.2 271l1.9 0l0 -22.8l-1.9 0Z" fill="rgb(227,73,2)" fill-opacity="0.3"></path>
<path d="M487 271l1.9 0l0 -22.5l-1.9 0Z" fill="rgb(227,73,2)" fill-opacity="0.3"></path>
<path d="M489.8 271l1.9 0l0 -22l-1.9 0Z" fill="rgb(227,73,2)" fill-opacity="0.3"></path>
<path d="M492.6 271l1.9 0l0 -21.6l-1.9 0Z" fill="rgb(227,73,2)" fill-opacity="0.3"></path>
<path d="M495.4 271l1.9 0l0 -21.1l-1.9 0Z" fill="rgb(227,73,2)" fill-opacity="0.3"></path>
<path d="M498.2 271l1.9 0l0 -20.4l-1.9 0Z" fill="rgb(227,73,2)" fill-opacity="0.3"></path>
<path d="M501.1 271l1.9 0l0 -20l-1.9 0Z" fill="rgb(227,73,2)" fill-opacity="0.3"></path>
<path d="M503.9 271l1.9 0l0 -19.6l-1.9 0Z" fill="rgb(227,73,2)" fill-opacity="0.3"></path>
<path d="M506.7 271l1.9 0l0 -19.4l-1.9 0Z" fill="rgb(227,73,2)" fill-opacity="0.3"></path>
<path d="M509.5 271l1.9 0l0 -19.3l-1.9 0Z" fill="rgb(227,73,2)" fill-opacity="0.3"></path>
<path d="M512.3 271l1.9 0l0 -19.1l-1.9 0Z" fill="rgb(227,73,2)" fill-opacity="0.3"></path>
<path d="M515.1 271l1.9 0l0 -19l-1.9 0Z" fill="rgb(227,73,2)" fill-opacity="0.3"></path>
<path d="M517.9 271l1.9 0l0 -18.9l-1.9 0Z" fill="rgb(227,73,2)" fill-opacity="0.3"></path>
<path d="M520.7 271l1.9 0l0 -18.1l-1.9 0Z" fill="rgb(227,73,2)" fill-opacity="0.3"></path>
<path d="M523.5 271l1.9 0l0 -17.4l-1.9 0Z" fill="rgb(227,73,2)" fill-opacity="0.3"></path>
<path d="M526.3 271l1.9 0l0 -16.9l-1.9 0Z" fill="rgb(227,73,2)" fill-opacity="0.3"></path>
<path d="M529.1 271l1.9 0l0 -16.7l-1.9 0Z" fill="rgb(227,73,2)" fill-opacity="0.3"></path>
<path d="M531.9 271l1.9 0l0 -16l-1.9 0Z" fill="rgb(227,73,2)" fill-opacity="0.3"></path>
<path d="M534.7 271l1.9 0l0 -15.7l-1.9 0Z" fill="rgb(227,73,2)" fill-opacity="0.3"></path>
<path d="M537.5 271l1.9 0l0 -15.4l-1.9 0Z" fill="rgb(227,73,2)" fill-opacity="0.3"></path>
<path d="M540.4 271l1.9 0l0 -15.4l-1.9 0Z" fill="rgb(227,73,2)" fill-opacity="0.3"></path>
<path d="M543.2 271l1.9 0l0 -15.3l-1.9 0Z" fill="rgb(227,73,2)" fill-opacity="0.3"></path>
<path d="M546 271l1.9 0l0 -15.3l-1.9 0Z" fill="rgb(227,73,2)" fill-opacity="0.3"></path>
<path d="M548.8 271l1.9 0l0 -15.1l-1.9 0Z" fill="rgb(227,73,2)" fill-opacity="0.3"></path>
<path d="M551.6 271l1.9 0l0 -14.9l-1.9 0Z" fill="rgb(227,73,2)" fill-opacity="0.3"></path>
<path d="M554.4 271l1.9 0l0 -14.6l-1.9 0Z" fill="rgb(227,73,2)" fill-opacity="0.3"></path>
<path d="M557.2 271l1.9 0l0 -14.6l-1.9 0Z" fill="rgb(227,73,2)" fill-opacity="0.8"></path>
<path d="M560 271l1.9 0l0 -14.1l-1.9 0Z" fill="rgb(227,73,2)" fill-opacity="0.3"></path>
<path d="M562.8 271l1.9 0l0 -14.1l-1.9 0Z" fill="rgb(227,73,2)" fill-opacity="0.3"></path>
<path d="M565.6 271l1.9 0l0 -13.9l-1.9 0Z" fill="rgb(227,73,2)" fill-opacity="0.3"></path>
<path d="M568.4 271l1.9 0l0 -13.8l-1.9 0Z" fill="rgb(227,73,2)" fill-opacity="0.3"></path>
<path d="M571.2 271l1.9 0l0 -13.8l-1.9 0Z" fill="rgb(227,73,2)" fill-opacity="0.3"></path>
<path d="M574 271l1.9 0l0 -13.8l-1.9 0Z" fill="rgb(227,73,2)" fill-opacity="0.3"></path>
<path d="M576.9 271l1.9 0l0 -13.8l-1.9 0Z" fill="rgb(227,73,2)" fill-opacity="0.3"></path>
<path d="M579.7 271l1.9 0l0 -13.7l-1.9 0Z" fill="rgb(227,73,2)" fill-opacity="0.3"></path>
<path d="M582.5 271l1.9 0l0 -13.5l-1.9 0Z" fill="rgb(227,73,2)" fill-opacity="0.3"></path>
<path d="M585.3 271l1.9 0l0 -13.3l-1.9 0Z" fill="rgb(227,73,2)" fill-opacity="0.3"></path>
<path d="M588.1 271l1.9 0l0 -13.3l-1.9 0Z" fill="rgb(227,73,2)" fill-opacity="0.3"></path>
<path d="M590.9 271l1.9 0l0 -13.3l-1.9 0Z" fill="rgb(227,73,2)" fill-opacity="0.3"></path>
<path d="M593.7 271l1.9 0l0 -13.2l-1.9 0Z" fill="rgb(227,73,2)" fill-opacity="0.3"></path>
<path d="M596.5 271l1.9 0l0 -13.2l-1.9 0Z" fill="rgb(227,73,2)" fill-opacity="0.3"></path>
<path d="M599.3 271l1.9 0l0 -13.2l-1.9 0Z" fill="rgb(227,73,2)" fill-opacity="0.3"></path>
<path d="M602.1 271l1.9 0l0 -13.2l-1.9 0Z" fill="rgb(227,73,2)" fill-opacity="0.3"></path>
<path d="M604.9 271l1.9 0l0 -13.2l-1.9 0Z" fill="rgb(227,73,2)" fill-opacity="0.3"></path>
<path d="M607.7 271l1.9 0l0 -13.2l-1.9 0Z" fill="rgb(227,73,2)" fill-opacity="0.3"></path>
<path d="M610.5 271l1.9 0l0 -13.1l-1.9 0Z" fill="rgb(227,73,2)" fill-opacity="0.3"></path>
<path d="M613.4 271l1.9 0l0 -13.1l-1.9 0Z" fill="rgb(227,73,2)" fill-opacity="0.3"></path>
<path d="M616.2 271l1.9 0l0 -13.1l-1.9 0Z" fill="rgb(227,73,2)" fill-opacity="0.3"></path>
<path d="M619 271l1.9 0l0 -13.1l-1.9 0Z" fill="rgb(227,73,2)" fill-opacity="0.3"></path>
<path d="M621.8 271l1.9 0l0 -13.1l-1.9 0Z" fill="rgb(227,73,2)" fill-opacity="0.3"></path>
<path d="M624.6 271l1.9 0l0 -13.1l-1.9 0Z" fill="rgb(227,73,2)" fill-opacity="0.3"></path>
<path d="M627.4 271l1.9 0l0 -13.1l-1.9 0Z" fill="rgb(227,73,2)" fill-opacity="0.3"></path>
<path d="M630.2 271l1.9 0l0 -12.3l-1.9 0Z" fill="rgb(227,73,2)" fill-opacity="0.3"></path>
<path d="M633 271l1.9 0l0 -10.8l-1.9 0Z" fill="rgb(227,73,2)" fill-opacity="0.3"></path>
<path d="M635.8 271l1.9 0l0 -9.9l-1.9 0Z" fill="rgb(227,73,2)" fill-opacity="0.3"></path>
<path d="M638.6 271l1.9 0l0 -9.1l-1.9 0Z" fill="rgb(227,73,2)" fill-opacity="0.3"></path>
<path d="M641.4 271l1.9 0l0 -8.7l-1.9 0Z" fill="rgb(227,73,2)" fill-opacity="0.3"></path>
<path d="M644.2 271l1.9 0l0 -8.2l-1.9 0Z" fill="rgb(227,73,2)" fill-opacity="0.3"></path>
<path d="M647 271l1.9 0l0 -7.9l-1.9 0Z" fill="rgb(227,73,2)" fill-opacity="0.3"></path>
<path d="M649.9 271l1.9 0l0 -7.5l-1.9 0Z" fill="rgb(227,73,2)" fill-opacity="0.3"></path>
<path d="M652.7 271l1.9 0l0 -7l-1.9 0Z" fill="rgb(227,73,2)" fill-opacity="0.3"></path>
<path d="M655.5 271l1.9 0l0 -6.8l-1.9 0Z" fill="rgb(227,73,2)" fill-opacity="0.3"></path>
<path d="M658.3 271l1.9 0l0 -6.4l-1.9 0Z" fill="rgb(227,73,2)" fill-opacity="0.3"></path>
<path d="M661.1 271l1.9 0l0 -5.8l-1.9 0Z" fill="rgb(227,73,2)" fill-opacity="0.3"></path>
<path d="M663.9 271l1.9 0l0 -5.6l-1.9 0Z" fill="rgb(227,73,2)" fill-opacity="0.3"></path>
<path d="M666.7 271l1.9 0l0 -5.4l-1.9 0Z" fill="rgb(227,73,2)" fill-opacity="0.3"></path>
<path d="M669.5 271l1.9 0l0 -5.3l-1.9 0Z" fill="rgb(227,73,2)" fill-opacity="0.3"></path>
<path d="M672.3 271l1.9 0l0 -5l-1.9 0Z" fill="rgb(227,73,2)" fill-opacity="0.3"></path>
<path d="M675.1 271l1.9 0l0 -4.8l-1.9 0Z" fill="rgb(227,73,2)" fill-opacity="0.3"></path>
<path d="M677.9 271l1.9 0l0 -4.7l-1.9 0Z" fill="rgb(227,73,2)" fill-opacity="0.3"></path>
<path d="M680.7 271l1.9 0l0 -4.6l-1.9 0Z" fill="rgb(227,73,2)" fill-opacity="0.3"></path>
<path d="M683.5 271l1.9 0l0 -4.6l-1.9 0Z" fill="rgb(227,73,2)" fill-opacity="0.3"></path>
<path d="M686.4 271l1.9 0l0 -4.4l-1.9 0Z" fill="rgb(227,73,2)" fill-opacity="0.3"></path>
<path d="M689.2 271l1.9 0l0 -4.1l-1.9 0Z" fill="rgb(227,73,2)" fill-opacity="0.3"></path>
<path d="M692 271l1.9 0l0 -3.8l-1.9 0Z" fill="rgb(227,73,2)" fill-opacity="0.3"></path>
<path d="M694.8 271l1.9 0l0 -3.7l-1.9 0Z" fill="rgb(227,73,2)" fill-opacity="0.3"></path>
<path d="M697.6 271l1.9 0l0 -3.7l-1.9 0Z" fill="rgb(227,73,2)" fill-opacity="0.3"></path>
<path d="M700.4 271l1.9 0l0 -3.5l-1.9 0Z" fill="rgb(227,73,2)" fill-opacity="0.3"></path>
<path d="M703.2 271l1.9 0l0 -3.2l-1.9 0Z" fill="rgb(227,73,2)" fill-opacity="0.3"></path>
<path d="M706 271l1.9 0l0 -2.9l-1.9 0Z" fill="rgb(227,73,2)" fill-opacity="0.3"></path>
<path d="M708.8 271l1.9 0l0 -2.8l-1.9 0Z" fill="rgb(227,73,2)" fill-opacity="0.3"></path>
<path d="M711.6 271l1.9 0l0 -2.6l-1.9 0Z" fill="rgb(227,73,2)" fill-opacity="0.3"></path>
<path d="M714.4 271l1.9 0l0 -2.5l-1.9 0Z" fill="rgb(227,73,2)" fill-opacity="0.3"></path>
<path d="M717.2 271l1.9 0l0 -2.5l-1.9 0Z" fill="rgb(227,73,2)" fill-opacity="0.3"></path>
<path d="M720 271l1.9 0l0 -2.4l-1.9 0Z" fill="rgb(227,73,2)" fill-opacity="0.3"></path>
<path d="M722.9 271l1.9 0l0 -2.3l-1.9 0Z" fill="rgb(227,73,2)" fill-opacity="0.3"></path>
<path d="M725.7 271l1.9 0l0 -2.3l-1.9 0Z" fill="rgb(227,73,2)" fill-opacity="0.3"></path>
<path d="M728.5 271l1.9 0l0 -2.2l-1.9 0Z" fill="rgb(227,73,2)" fill-opacity="0.3"></path>
<path d="M731.3 271l1.9 0l0 -2.1l-1.9 0Z" fill="rgb(227,73,2)" fill-opacity="0.3"></path>
<path d="M734.1 271l1.9 0l0 -2l-1.9 0Z" fill="rgb(227,73,2)" fill-opacity="0.3"></path>
<path d="M736.9 271l1.9 0l0 -1.8l-1.9 0Z" fill="rgb(227,73,2)" fill-opacity="0.3"></path>
<path d="M739.7 271l1.9 0l0 -1.7l-1.9 0Z" fill="rgb(227,73,2)" fill-opacity="0.3"></path>
<path d="M742.5 271l1.9 0l0 -1.7l-1.9 0Z" fill="rgb(227,73,2)" fill-opacity="0.3"></path>
<path d="M745.3 271l1.9 0l0 -1.5l-1.9 0Z" fill="rgb(227,73,2)" fill-opacity="0.3"></path>
<path d="M748.1 271l1.9 0l0 -1.4l-1.9 0Z" fill="rgb(227,73,2)" fill-opacity="0.3"></path>
<path d="M750.9 271l1.9 0l0 -1.2l-1.9 0Z" fill="rgb(227,73,2)" fill-opacity="0.3"></path>
<path d="M753.7 271l1.9 0l0 -1.2l-1.9 0Z" fill="rgb(227,73,2)" fill-opacity="0.3"></path>
<path d="M756.5 271l1.9 0l0 -1.2l-1.9 0Z" fill="rgb(227,73,2)" fill-opacity="0.3"></path>
<path d="M759.4 271l1.9 0l0 -1.2l-1.9 0Z" fill="rgb(227,73,2)" fill-opacity="0.3"></path>
<path d="M762.2 271l1.9 0l0 -1.2l-1.9 0Z" fill="rgb(227,73,2)" fill-opacity="0.3"></path>
<path d="M765 271l1.9 0l0 -1.2l-1.9 0Z" fill="rgb(227,73,2)" fill-opacity="0.3"></path>
<path d="M767.8 271l1.9 0l0 -1.2l-1.9 0Z" fill="rgb(227,73,2)" fill-opacity="0.3"></path>
<path d="M770.6 271l1.9 0l0 -0.9l-1.9 0Z" fill="rgb(227,73,2)" fill-opacity="0.3"></path>
<path d="M773.4 271l1.9 0l0 -0.8l-1.9 0Z" fill="rgb(227,73,2)" fill-opacity="0.3"></path>
<path d="M776.2 271l1.9 0l0 -0.7l-1.9 0Z" fill="rgb(227,73,2)" fill-opacity="0.3"></path>
<path d="M779 271l1.9 0l0 -0.7l-1.9 0Z" fill="rgb(227,73,2)" fill-opacity="0.3"></path>
<path d="M781.8 271l1.9 0l0 -0.7l-1.9 0Z" fill="rgb(227,73,2)" fill-opacity="0.3"></path>
<path d="M784.6 271l1.9 0l0 -0.6l-1.9 0Z" fill="rgb(227,73,2)" fill-opacity="0.3"></path>
<path d="M787.4 271l1.9 0l0 -0.6l-1.9 0Z" fill="rgb(227,73,2)" fill-opacity="0.3"></path>
<path d="M790.2 271l1.9 0l0 -0.6l-1.9 0Z" fill="rgb(227,73,2)" fill-opacity="0.3"></path>
<path d="M793 271l1.9 0l0 -0.6l-1.9 0Z" fill="rgb(227,73,2)" fill-opacity="0.3"></path>
<path d="M795.9 271l1.9 0l0 -0.6l-1.9 0Z" fill="rgb(227,73,2)" fill-opacity="0.3"></path>
<path d="M798.7 271l1.9 0l0 -0.6l-1.9 0Z" fill="rgb(227,73,2)" fill-opacity="0.3"></path>
<path d="M801.5 271l1.9 0l0 -0.6l-1.9 0Z" fill="rgb(227,73,2)" fill-opacity="0.3"></path>
<path d="M804.3 271l1.9 0l0 -0.6l-1.9 0Z" fill="rgb(227,73,2)" fill-opacity="0.3"></path>
<path d="M807.1 271l1.9 0l0 -0.6l-1.9 0Z" fill="rgb(227,73,2)" fill-opacity="0.3"></path>
<path d="M809.9 271l1.9 0l0 -0.6l-1.9 0Z" fill="rgb(227,73,2)" fill-opacity="0.3"></path>
<path d="M812.7 271l1.9 0l0 -0.5l-1.9 0Z" fill="rgb(227,73,2)" fill-opacity="0.3"></path>
<path d="M815.5 271l1.9 0l0 -0.5l-1.9 0Z" fill="rgb(227,73,2)" fill-opacity="0.3"></path>
<path d="M818.3 271l1.9 0l0 -0.5l-1.9 0Z" fill="rgb(227,73,2)" fill-opacity="0.3"></path>
<path d="M821.1 271l1.9 0l0 -0.5l-1.9 0Z" fill="rgb(227,73,2)" fill-opacity="0.3"></path>
<path d="M823.9 271l1.9 0l0 -0.4l-1.9 0Z" fill="rgb(227,73,2)" fill-opacity="0.3"></path>
<path d="M826.7 271l1.9 0l0 -0.4l-1.9 0Z" fill="rgb(227,73,2)" fill-opacity="0.3"></path>
<path d="M829.5 271l1.9 0l0 -0.4l-1.9 0Z" fill="rgb(227,73,2)" fill-opacity="0.3"></path>
<path d="M832.4 271l1.9 0l0 -0.3l-1.9 0Z" fill="rgb(227,73,2)" fill-opacity="0.3"></path>
<path d="M835.2 271l1.9 0l0 -0.3l-1.9 0Z" fill="rgb(227,73,2)" fill-opacity="0.3"></path>
<path d="M838 271l1.9 0l0 -0.3l-1.9 0Z" fill="rgb(227,73,2)" fill-opacity="0.3"></path>
<path d="M840.8 271l1.9 0l0 -0.3l-1.9 0Z" fill="rgb(227,73,2)" fill-opacity="0.3"></path>
<path d="M843.6 271l1.9 0l0 -0.2l-1.9 0Z" fill="rgb(227,73,2)" fill-opacity="0.3"></path>
<path d="M846.4 271l1.9 0l0 -0.2l-1.9 0Z" fill="rgb(227,73,2)" fill-opacity="0.3"></path>
<path d="M849.2 271l1.9 0l0 -0.2l-1.9 0Z" fill="rgb(227,73,2)" fill-opacity="0.3"></path>
<path d="M852 271l1.9 0l0 -0.2l-1.9 0Z" fill="rgb(227,73,2)" fill-opacity="0.3"></path>
<path d="M854.8 271l1.9 0l0 -0.2l-1.9 0Z" fill="rgb(227,73,2)" fill-opacity="0.3"></path>
<path d="M857.6 271l1.9 0l0 -0.2l-1.9 0Z" fill="rgb(227,73,2)" fill-opacity="0.3"></path>
<path d="M860.4 271l1.9 0l0 -0.2l-1.9 0Z" fill="rgb(227,73,2)" fill-opacity="0.3"></path>
<path d="M863.2 271l1.9 0l0 -0.2l-1.9 0Z" fill="rgb(227,73,2)" fill-opacity="0.3"></path>
<path d="M866 271l1.9 0l0 -0.2l-1.9 0Z" fill="rgb(227,73,2)" fill-opacity="0.3"></path>
<path d="M868.9 271l1.9 0l0 -0.2l-1.9 0Z" fill="rgb(227,73,2)" fill-opacity="0.3"></path>
<path d="M871.7 271l1.9 0l0 -0.2l-1.9 0Z" fill="rgb(227,73,2)" fill-opacity="0.3"></path>
<path d="M874.5 271l1.9 0l0 -0.2l-1.9 0Z" fill="rgb(227,73,2)" fill-opacity="0.3"></path>
<path d="M877.3 271l1.9 0l0 -0.2l-1.9 0Z" fill="rgb(227,73,2)" fill-opacity="0.3"></path>
<path d="M880.1 271l1.9 0l0 -0.2l-1.9 0Z" fill="rgb(227,73,2)" fill-opacity="0.3"></path>
<path d="M882.9 271l1.9 0l0 -0.2l-1.9 0Z" fill="rgb(227,73,2)" fill-opacity="0.3"></path>
<path d="M885.7 271l1.9 0l0 -0.2l-1.9 0Z" fill="rgb(227,73,2)" fill-opacity="0.3"></path>
<path d="M888.5 271l1.9 0l0 -0.2l-1.9 0Z" fill="rgb(227,73,2)" fill-opacity="0.3"></path>
<path d="M891.3 271l1.9 0l0 -0.2l-1.9 0Z" fill="rgb(227,73,2)" fill-opacity="0.3"></path>
<path d="M894.1 271l1.9 0l0 -0.2l-1.9 0Z" fill="rgb(227,73,2)" fill-opacity="0.3"></path>
<path d="M896.9 271l1.9 0l0 -0.2l-1.9 0Z" fill="rgb(227,73,2)" fill-opacity="0.3"></path>
<path d="M899.7 271l1.9 0l0 -0.2l-1.9 0Z" fill="rgb(227,73,2)" fill-opacity="0.3"></path>
<path d="M902.5 271l1.9 0l0 -0.2l-1.9 0Z" fill="rgb(227,73,2)" fill-opacity="0.3"></path>
<path d="M905.3 271l1.9 0l0 -0.2l-1.9 0Z" fill="rgb(227,73,2)" fill-opacity="0.3"></path>
<path d="M908.2 271l1.9 0l0 -0.2l-1.9 0Z" fill="rgb(227,73,2)" fill-opacity="0.3"></path>
<path d="M911 271l1.9 0l0 -0.2l-1.9 0Z" fill="rgb(227,73,2)" fill-opacity="0.3"></path>
<path d="M913.8 271l1.9 0l0 -0.1l-1.9 0Z" fill="rgb(227,73,2)" fill-opacity="0.3"></path>
<path d="M916.6 271l1.9 0l0 -0.1l-1.9 0Z" fill="rgb(227,73,2)" fill-opacity="0.3"></path>
<path d="M919.4 271l1.9 0l0 0l-1.9 0Z" fill="rgb(227,73,2)" fill-opacity="0.3"></path>
<path d="M-5 -5l226.9 0l0 24l-226.9 0Z" transform="translate(391.54 5)" fill="rgb(0,0,0)" fill-opacity="0" stroke="#ccc" stroke-width="0"></path>
<path d="M3.5 0L21.5 0A3.5 3.5 0 0 1 25 3.5L25 10.5A3.5 3.5 0 0 1 21.5 14L3.5 14A3.5 3.5 0 0 1 0 10.5L0 3.5A3.5 3.5 0 0 1 3.5 0" transform="translate(391.54 5)" fill="rgb(227,73,2)" fill-opacity="0.3"></path>
<text dominant-baseline="central" text-anchor="start" style="font-size:12px;font-family:sans-serif;" xml:space="preserve" x="30" y="7" transform="translate(391.54 5)" fill="#333">Times completed</text>
<path d="M0 7L25 7" transform="translate(524.1 5)" fill="#000" stroke="#E34902" stroke-width="2" stroke-linecap="butt" stroke-miterlimit="10"></path>
<path d="M18.1 7A5.6 5.6 0 1 1 18.1 6.4A5.6 5.6 0 0 1 18.1 7" transform="translate(524.1 5)" fill="#fff" stroke="#E34902" stroke-width="2" stroke-linecap="butt" stroke-miterlimit="10"></path>
<text dominant-baseline="central" text-anchor="start" style="font-size:12px;font-family:sans-serif;" x="30" y="7" transform="translate(524.1 5)" fill="#333">Eddington</text>
<path d="M-0.54 -0.89A0.6 0.6 0 1 1 0.54 -0.89C0.39 -0.56 0 -0.42 0 0C0 -0.42 -0.39 -0.56 -0.54 -0.89Z" transform="matrix(25,0,0,25,558.1717,251.4369)" fill="rgb(227,73,2)" fill-opacity="0.8"></path>
<text dominant-baseline="central" text-anchor="middle" style="font-size:12px;font-family:sans-serif;" transform="translate(558.1717 225.294)" fill="#eee" stroke="rgb(227,73,2)" stroke-width="2" paint-order="stroke" stroke-opacity="0.8" stroke-miterlimit="2">175</text>
<g clip-path="url(#zr0-c0)">
<path d="M69.6 270.9L72.5 270.8L75.3 270.8L78.1 270.7L80.9 270.6L83.7 270.5L86.5 270.4L89.3 270.3L92.1 270.3L94.9 270.2L97.7 270.1L100.5 270L103.3 269.9L106.1 269.8L109 269.8L111.8 269.7L114.6 269.6L117.4 269.5L120.2 269.4L123 269.3L125.8 269.3L128.6 269.2L131.4 269.1L134.2 269L137 268.9L139.8 268.8L142.6 268.8L145.4 268.7L148.3 268.6L151.1 268.5L153.9 268.4L156.7 268.4L159.5 268.3L162.3 268.2L165.1 268.1L167.9 268L170.7 267.9L173.5 267.9L176.3 267.8L179.1 267.7L181.9 267.6L184.8 267.5L187.6 267.4L190.4 267.4L193.2 267.3L196 267.2L198.8 267.1L201.6 267L204.4 266.9L207.2 266.9L210 266.8L212.8 266.7L215.6 266.6L218.4 266.5L221.3 266.4L224.1 266.4L226.9 266.3L229.7 266.2L232.5 266.1L235.3 266L238.1 266L240.9 265.9L243.7 265.8L246.5 265.7L249.3 265.6L252.1 265.5L254.9 265.5L257.8 265.4L260.6 265.3L263.4 265.2L266.2 265.1L269 265L271.8 265L274.6 264.9L277.4 264.8L280.2 264.7L283 264.6L285.8 264.5L288.6 264.5L291.4 264.4L294.3 264.3L297.1 264.2L299.9 264.1L302.7 264L305.5 264L308.3 263.9L311.1 263.8L313.9 263.7L316.7 263.6L319.5 263.6L322.3 263.5L325.1 263.4L327.9 263.3L330.8 263.2L333.6 263.1L336.4 263.1L339.2 263L342 262.9L344.8 262.8L347.6 262.7L350.4 262.6L353.2 262.6L356 262.5L358.8 262.4L361.6 262.3L364.4 262.2L367.3 262.1L370.1 262.1L372.9 262L375.7 261.9L378.5 261.8L381.3 261.7L384.1 261.6L386.9 261.6L389.7 261.5L392.5 261.4L395.3 261.3L398.1 261.2L400.9 261.2L403.8 261.1L406.6 261L409.4 260.9L412.2 260.8L415 260.7L417.8 260.7L420.6 260.6L423.4 260.5L426.2 260.4L429 260.3L431.8 260.2L434.6 260.2L437.4 260.1L440.3 260L443.1 259.9L445.9 259.8L448.7 259.7L451.5 259.7L454.3 259.6L457.1 259.5L459.9 259.4L462.7 259.3L465.5 259.3L468.3 259.2L471.1 259.1L473.9 259L476.8 258.9L479.6 258.8L482.4 258.8L485.2 258.7L488 258.6L490.8 258.5L493.6 258.4L496.4 258.3L499.2 258.3L502 258.2L504.8 258.1L507.6 258L510.4 257.9L513.2 257.8L516.1 257.8L518.9 257.7L521.7 257.6L524.5 257.5L527.3 257.4L530.1 257.3L532.9 257.3L535.7 257.2L538.5 257.1L541.3 257L544.1 256.9L546.9 256.9L549.7 256.8L552.6 256.7L555.4 256.6L558.2 256.5L561 256.4L563.8 256.4L566.6 256.3L569.4 256.2L572.2 256.1L575 256L577.8 255.9L580.6 255.9L583.4 255.8L586.2 255.7L589.1 255.6L591.9 255.5L594.7 255.4L597.5 255.4L600.3 255.3L603.1 255.2L605.9 255.1L608.7 255L611.5 254.9L614.3 254.9L617.1 254.8L619.9 254.7L622.7 254.6L625.6 254.5L628.4 254.5L631.2 254.4L634 254.3L636.8 254.2L639.6 254.1L642.4 254L645.2 254L648 253.9L650.8 253.8L653.6 253.7L656.4 253.6L659.2 253.5L662.1 253.5L664.9 253.4L667.7 253.3L670.5 253.2L673.3 253.1L676.1 253L678.9 253L681.7 252.9L684.5 252.8L687.3 252.7L690.1 252.6L692.9 252.5L695.7 252.5L698.6 252.4L701.4 252.3L704.2 252.2L707 252.1L709.8 252.1L712.6 252L715.4 251.9L718.2 251.8L721 251.7L723.8 251.6L726.6 251.6L729.4 251.5L732.2 251.4L735.1 251.3L737.9 251.2L740.7 251.1L743.5 251.1L746.3 251L749.1 250.9L751.9 250.8L754.7 250.7L757.5 250.6L760.3 250.6L763.1 250.5L765.9 250.4L768.7 250.3L771.6 250.2L774.4 250.1L777.2 250.1L780 250L782.8 249.9L785.6 249.8L788.4 249.7L791.2 249.7L794 249.6L796.8 249.5L799.6 249.4L802.4 249.3L805.2 249.2L808.1 249.2L810.9 249.1L813.7 249L816.5 248.9L819.3 248.8L822.1 248.7L824.9 248.7L827.7 248.6L830.5 248.5L833.3 248.4L836.1 248.3L838.9 248.2L841.7 248.2L844.6 248.1L847.4 248L850.2 247.9L853 247.8L855.8 247.7L858.6 247.7L861.4 247.6L864.2 247.5L867 247.4L869.8 247.3L872.6 247.3L875.4 247.2L878.2 247.1L881 247L883.9 246.9L886.7 246.8L889.5 246.8L892.3 246.7L895.1 246.6L897.9 246.5L900.7 246.4L903.5 246.3L906.3 246.3L909.1 246.2L911.9 246.1L914.7 246L917.5 245.9L920.4 245.8" fill="none" stroke="#E34902" stroke-width="2" stroke-linejoin="bevel"></path>
</g>
<defs >
<clipPath id="zr0-c0">
<path d="M67 59l856 0l0 213l-856 0Z" fill="#000"></path>
</clipPath>
</defs>
</svg>