<svg width="1000" height="300" xmlns="http://www.w3.org/2000/svg" xmlns:xlink="http://www.w3.org/1999/xlink" version="1.1" baseProfile="full" viewBox="0 0 1000 300">
<rect width="1000" height="300" x="0" y="0" id="0" fill="#ffffff"></rect>
<path d="M68.2 271.5L921.8 271.5" fill="none" stroke="#E0E6F1"></path>
<path d="M68.2 227.5L921.8 227.5" fill="none" stroke="#E0E6F1"></path>
<path d="M68.2 183.5L921.8 183.5" fill="none" stroke="#E0E6F1"></path>
<path d="M68.2 140.5L921.8 140.5" fill="none" stroke="#E0E6F1"></path>
<path d="M68.2 96.5L921.8 96.5" fill="none" stroke="#E0E6F1"></path>
<path d="M68.2 60.5L921.8 60.5" fill="none" stroke="#E0E6F1"></path>
<path d="M68.2 271.5L921.8 271.5" fill="none" stroke="#6E7079" stroke-linecap="round"></path>
<path d="M69.5 271L69.5 276" fill="none" stroke="#6E7079"></path>
<path d="M118.5 271L118.5 276" fill="none" stroke="#6E7079"></path>
<path d="M166.5 271L166.5 276" fill="none" stroke="#6E7079"></path>
<path d="M214.5 271L214.5 276" fill="none" stroke="#6E7079"></path>
<path d="M262.5 271L262.5 276" fill="none" stroke="#6E7079"></path>
<path d="M310.5 271L310.5 276" fill="none" stroke="#6E7079"></path>
<path d="M359.5 271L359.5 276" fill="none" stroke="#6E7079"></path>
<path d="M407.5 271L407.5 276" fill="none" stroke="#6E7079"></path>
<path d="M455.5 271L455.5 276" fill="none" stroke="#6E7079"></path>
<path d="M503.5 271L503.5 276" fill="none" stroke="#6E7079"></path>
<path d="M551.5 271L551.5 276" fill="none" stroke="#6E7079"></path>
<path d="M600.5 271L600.5 276" fill="none" stroke="#6E7079"></path>
<path d="M648.5 271L648.5 276" fill="none" stroke="#6E7079"></path>
<path d="M696.5 271L696.5 276" fill="none" stroke="#6E7079"></path>
<path d="M744.5 271L744.5 276" fill="none" stroke="#6E7079"></path>
<path d="M792.5 271L792.5 276" fill="none" stroke="#6E7079"></path>
<path d="M841.5 271L841.5 276" fill="none" stroke="#6E7079"></path>
<path d="M889.5 271L889.5 276" fill="none" stroke="#6E7079"></path>
<text dominant-baseline="central" text-anchor="end" style="font-size:12px;font-family:sans-serif;" transform="translate(60.24 271)" fill="#6E7079">0</text>
<text dominant-baseline="central" text-anchor="end" style="font-size:12px;font-family:sans-serif;" transform="translate(60.24 227.2561)" fill="#6E7079">510</text>
<text dominant-baseline="central" text-anchor="end" style="font-size:12px;font-family:sans-serif;" transform="translate(60.24 183.5122)" fill="#6E7079">1,020</text>
<text dominant-baseline="central" text-anchor="end" style="font-size:12px;font-family:sans-serif;" transform="translate(60.24 139.7683)" fill="#6E7079">1,530</text>
<text dominant-baseline="central" text-anchor="end" style="font-size:12px;font-family:sans-serif;" transform="translate(60.24 96.0244)" fill="#6E7079">2,040</text>
<text dominant-baseline="central" text-anchor="end" style="font-size:12px;font-family:sans-serif;" transform="translate(60.24 60)" fill="#6E7079">2,460</text>
<text dominant-baseline="central" text-anchor="start" style="font-size:12px;font-family:sans-serif;" transform="translate(929.76 271)" fill="#6E7079">0</text>
<text dominant-baseline="central" text-anchor="start" style="font-size:12px;font-family:sans-serif;" transform="translate(929.76 227.2561)" fill="#6E7079">510</text>
<text dominant-baseline="central" text-anchor="start" style="font-size:12px;font-family:sans-serif;" transform="translate(929.76 183.5122)" fill="#6E7079">1,020</text>
<text dominant-baseline="central" text-anchor="start" style="font-size:12px;font-family:sans-serif;" transform="translate(929.76 139.7683)" fill="#6E7079">1,530</text>
<text dominant-baseline="central" text-anchor="start" style="font-size:12px;font-family:sans-serif;" transform="translate(929.76 96.0244)" fill="#6E7079">2,040</text>
<text dominant-baseline="central" text-anchor="start" style="font-size:12px;font-family:sans-serif;" transform="translate(929.76 60)" fill="#6E7079">2,460</text>
<text dominant-baseline="central" text-anchor="middle" style="font-size:12px;font-family:sans-serif;" y="6" transform="translate(69.6578 279)" fill="#6E7079">1km</text>
<text dominant-baseline="central" text-anchor="middle" style="font-size:12px;font-family:sans-serif;" y="6" transform="translate(117.8633 279)" fill="#6E7079">18km</text>
<text dominant-baseline="central" text-anchor="middle" style="font-size:12px;font-family:sans-serif;" y="6" transform="translate(166.0687 279)" fill="#6E7079">35km</text>
<text dominant-baseline="central" text-anchor="middle" style="font-size:12px;font-family:sans-serif;" y="6" transform="translate(214.2742 279)" fill="#6E7079">52km</text>
<text dominant-baseline="central" text-anchor="middle" style="font-size:12px;font-family:sans-serif;" y="6" transform="translate(262.4796 279)" fill="#6E7079">69km</text>
<text dominant-baseline="central" text-anchor="middle" style="font-size:12px;font-family:sans-serif;" y="6" transform="translate(310.685 279)" fill="#6E7079">86km</text>
<text dominant-baseline="central" text-anchor="middle" style="font-size:12px;font-family:sans-serif;" y="6" transform="translate(358.8905 279)" fill="#6E7079">103km</text>
<text dominant-baseline="central" text-anchor="middle" style="font-size:12px;font-family:sans-serif;" y="6" transform="translate(407.0959 279)" fill="#6E7079">120km</text>
<text dominant-baseline="central" text-anchor="middle" style="font-size:12px;font-family:sans-serif;" y="6" transform="translate(455.3014 279)" fill="#6E7079">137km</text>
<text dominant-baseline="central" text-anchor="middle" style="font-size:12px;font-family:sans-serif;" y="6" transform="translate(503.5068 279)" fill="#6E7079">154km</text>
<text dominant-baseline="central" text-anchor="middle" style="font-size:12px;font-family:sans-serif;" y="6" transform="translate(551.7123 279)" fill="#6E7079">171km</text>
<text dominant-baseline="central" text-anchor="middle" style="font-size:12px;font-family:sans-serif;" y="6" transform="translate(599.9177 279)" fill="#6E7079">188km</text>
<text dominant-baseline="central" text-anchor="middle" style="font-size:12px;font-family:sans-serif;" y="6" transform="translate(648.1232 279)" fill="#6E7079">205km</text>
<text dominant-baseline="central" text-anchor="middle" style="font-size:12px;font-family:sans-serif;" y="6" transform="translate(696.3286 279)" fill="#6E7079">222km</text>
<text dominant-baseline="central" text-anchor="middle" style="font-size:12px;font-family:sans-serif;" y="6" transform="translate(744.5341 279)" fill="#6E7079">239km</text>
<text dominant-baseline="central" text-anchor="middle" style="font-size:12px;font-family:sans-serif;" y="6" transform="translate(792.7395 279)" fill="#6E7079">256km</text>
<text dominant-baseline="central" text-anchor="middle" style="font-size:12px;font-family:sans-serif;" y="6" transform="translate(840.945 279)" fill="#6E7079">273km</text>
<text dominant-baseline="central" text-anchor="middle" style="font-size:12px;font-family:sans-serif;" y="6" transform="translate(889.1504 279)" fill="#6E7079">290km</text>
<path d="M68.7 271l2 0l0 -208.7l-2 0Z" fill="rgb(227,73,2)" fill-opacity="0.3"></path>
<path d="M71.5 271l2 0l0 -208.1l-2 0Z" fill="rgb(227,73,2)" fill-opacity="0.3"></path>
<path d="M74.4 271l2 0l0 -207.2l-2 0Z" fill="rgb(227,73,2)" fill-opacity="0.3"></path>
<path d="M77.2 271l2 0l0 -206.9l-2 0Z" fill="rgb(227,73,2)" fill-opacity="0.3"></path>
<path d="M80 271l2 0l0 -206.5l-2 0Z" fill="rgb(227,73,2)" fill-opacity="0.3"></path>
<path d="M82.9 271l2 0l0 -206l-2 0Z" fill="rgb(227,73,2)" fill-opacity="0.3"></path>
<path d="M85.7 271l2 0l0 -205.6l-2 0Z" fill="rgb(227,73,2)" fill-opacity="0.3"></path>
<path d="M88.5 271l2 0l0 -205.4l-2 0Z" fill="rgb(227,73,2)" fill-opacity="0.3"></path>
<path d="M91.4 271l2 0l0 -205.3l-2 0Z" fill="rgb(227,73,2)" fill-opacity="0.3"></path>
<path d="M94.2 271l2 0l0 -205.3l-2 0Z" fill="rgb(227,73,2)" fill-opacity="0.3"></path>
<path d="M97 271l2 0l0 -205.1l-2 0Z" fill="rgb(227,73,2)" fill-opacity="0.3"></path>
<path d="M99.9 271l2 0l0 -204.8l-2 0Z" fill="rgb(227,73,2)" fill-opacity="0.3"></path>
<path d="M102.7 271l2 0l0 -204.7l-2 0Z" fill="rgb(227,73,2)" fill-opacity="0.3"></path>
<path d="M105.5 271l2 0l0 -204.7l-2 0Z" fill="rgb(227,73,2)" fill-opacity="0.3"></path>
<path d="M108.4 271l2 0l0 -204.6l-2 0Z" fill="rgb(227,73,2)" fill-opacity="0.3"></path>
<path d="M111.2 271l2 0l0 -204.3l-2 0Z" fill="rgb(227,73,2)" fill-opacity="0.3"></path>
<path d="M114 271l2 0l0 -203.9l-2 0Z" fill="rgb(227,73,2)" fill-opacity="0.3"></path>
<path d="M116.9 271l2 0l0 -203.6l-2 0Z" fill="rgb(227,73,2)" fill-opacity="0.3"></path>
<path d="M119.7 271l2 0l0 -203.5l-2 0Z" fill="rgb(227,73,2)" fill-opacity="0.3"></path>
<path d="M122.6 271l2 0l0 -203.4l-2 0Z" fill="rgb(227,73,2)" fill-opacity="0.3"></path>
<path d="M125.4 271l2 0l0 -202.3l-2 0Z" fill="rgb(227,73,2)" fill-opacity="0.3"></path>
<path d="M128.2 271l2 0l0 -201.5l-2 0Z" fill="rgb(227,73,2)" fill-opacity="0.3"></path>
<path d="M131.1 271l2 0l0 -201l-2 0Z" fill="rgb(227,73,2)" fill-opacity="0.3"></path>
<path d="M133.9 271l2 0l0 -200.4l-2 0Z" fill="rgb(227,73,2)" fill-opacity="0.3"></path>
<path d="M136.7 271l2 0l0 -200l-2 0Z" fill="rgb(227,73,2)" fill-opacity="0.3"></path>
<path d="M139.6 271l2 0l0 -198.9l-2 0Z" fill="rgb(227,73,2)" fill-opacity="0.3"></path>
<path d="M142.4 271l2 0l0 -198.3l-2 0Z" fill="rgb(227,73,2)" fill-opacity="0.3"></path>
<path d="M145.2 271l2 0l0 -197.5l-2 0Z" fill="rgb(227,73,2)" fill-opacity="0.3"></path>
<path d="M148.1 271l2 0l0 -197.3l-2 0Z" fill="rgb(227,73,2)" fill-opacity="0.3"></path>
<path d="M150.9 271l2 0l0 -197.1l-2 0Z" fill="rgb(227,73,2)" fill-opacity="0.3"></path>
<path d="M153.7 271l2 0l0 -194.5l-2 0Z" fill="rgb(227,73,2)" fill-opacity="0.3"></path>
<path d="M156.6 271l2 0l0 -192.6l-2 0Z" fill="rgb(227,73,2)" fill-opacity="0.3"></path>
<path d="M159.4 271l2 0l0 -190.5l-2 0Z" fill="rgb(227,73,2)" fill-opacity="0.3"></path>
<path d="M162.3 271l2 0l0 -188.8l-2 0Z" fill="rgb(227,73,2)" fill-opacity="0.3"></path>
<path d="M165.1 271l2 0l0 -187.7l-2 0Z" fill="rgb(227,73,2)" fill-opacity="0.3"></path>
<path d="M167.9 271l2 0l0 -182.4l-2 0Z" fill="rgb(227,73,2)" fill-opacity="0.3"></path>
<path d="M170.8 271l2 0l0 -180.2l-2 0Z" fill="rgb(227,73,2)" fill-opacity="0.3"></path>
<path d="M173.6 271l2 0l0 -178.6l-2 0Z" fill="rgb(227,73,2)" fill-opacity="0.3"></path>
<path d="M176.4 271l2 0l0 -177.4l-2 0Z" fill="rgb(227,73,2)" fill-opacity="0.3"></path>
<path d="M179.3 271l2 0l0 -176.9l-2 0Z" fill="rgb(227,73,2)" fill-opacity="0.3"></path>
<path d="M182.1 271l2 0l0 -174.3l-2 0Z" fill="rgb(227,73,2)" fill-opacity="0.3"></path>
<path d="M184.9 271l2 0l0 -173.3l-2 0Z" fill="rgb(227,73,2)" fill-opacity="0.3"></path>
<path d="M187.8 271l2 0l0 -172.7l-2 0Z" fill="rgb(227,73,2)" fill-opacity="0.3"></path>
<path d="M190.6 271l2 0l0 -171.9l-2 0Z" fill="rgb(227,73,2)" fill-opacity="0.3"></path>
<path d="M193.4 271l2 0l0 -171.2l-2 0Z" fill="rgb(227,73,2)" fill-opacity="0.3"></path>
<path d="M196.3 271l2 0l0 -170.5l-2 0Z" fill="rgb(227,73,2)" fill-opacity="0.3"></path>
<path d="M199.1 271l2 0l0 -170l-2 0Z" fill="rgb(227,73,2)" fill-opacity="0.3"></path>
<path d="M202 271l2 0l0 -169.8l-2 0Z" fill="rgb(227,73,2)" fill-opacity="0.3"></path>
<path d="M204.8 271l2 0l0 -169.1l-2 0Z" fill="rgb(227,73,2)" fill-opacity="0.3"></path>
<path d="M207.6 271l2 0l0 -168.9l-2 0Z" fill="rgb(227,73,2)" fill-opacity="0.3"></path>
<path d="M210.5 271l2 0l0 -154.3l-2 0Z" fill="rgb(227,73,2)" fill-opacity="0.3"></path>
<path d="M213.3 271l2 0l0 -144.3l-2 0Z" fill="rgb(227,73,2)" fill-opacity="0.3"></path>
<path d="M216.1 271l2 0l0 -138.6l-2 0Z" fill="rgb(227,73,2)" fill-opacity="0.3"></path>
<path d="M219 271l2 0l0 -132.6l-2 0Z" fill="rgb(227,73,2)" fill-opacity="0.3"></path>
<path d="M221.8 271l2 0l0 -129.4l-2 0Z" fill="rgb(227,73,2)" fill-opacity="0.3"></path>
<path d="M224.6 271l2 0l0 -124.9l-2 0Z" fill="rgb(227,73,2)" fill-opacity="0.3"></path>
<path d="M227.5 271l2 0l0 -121.1l-2 0Z" fill="rgb(227,73,2)" fill-opacity="0.3"></path>
<path d="M230.3 271l2 0l0 -118.1l-2 0Z" fill="rgb(227,73,2)" fill-opacity="0.3"></path>
<path d="M233.1 271l2 0l0 -116.6l-2 0Z" fill="rgb(227,73,2)" fill-opacity="0.3"></path>
<path d="M236 271l2 0l0 -115.5l-2 0Z" fill="rgb(227,73,2)" fill-opacity="0.3"></path>
<path d="M238.8 271l2 0l0 -110l-2 0Z" fill="rgb(227,73,2)" fill-opacity="0.3"></path>
<path d="M241.7 271l2 0l0 -106.9l-2 0Z" fill="rgb(227,73,2)" fill-opacity="0.3"></path>
<path d="M244.5 271l2 0l0 -103.8l-2 0Z" fill="rgb(227,73,2)" fill-opacity="0.3"></path>
<path d="M247.3 271l2 0l0 -101.4l-2 0Z" fill="rgb(227,73,2)" fill-opacity="0.3"></path>
<path d="M250.2 271l2 0l0 -99.9l-2 0Z" fill="rgb(227,73,2)" fill-opacity="0.3"></path>
<path d="M253 271l2 0l0 -97.4l-2 0Z" fill="rgb(227,73,2)" fill-opacity="0.3"></path>
<path d="M255.8 271l2 0l0 -94.9l-2 0Z" fill="rgb(227,73,2)" fill-opacity="0.3"></path>
<path d="M258.7 271l2 0l0 -93.4l-2 0Z" fill="rgb(227,73,2)" fill-opacity="0.3"></path>
<path d="M261.5 271l2 0l0 -92.1l-2 0Z" fill="rgb(227,73,2)" fill-opacity="0.3"></path>
<path d="M264.3 271l2 0l0 -91.5l-2 0Z" fill="rgb(227,73,2)" fill-opacity="0.3"></path>
<path d="M267.2 271l2 0l0 -90.4l-2 0Z" fill="rgb(227,73,2)" fill-opacity="0.3"></path>
<path d="M270 271l2 0l0 -89.2l-2 0Z" fill="rgb(227,73,2)" fill-opacity="0.3"></path>
<path d="M272.8 271l2 0l0 -88.3l-2 0Z" fill="rgb(227,73,2)" fill-opacity="0.3"></path>
<path d="M275.7 271l2 0l0 -87.8l-2 0Z" fill="rgb(227,73,2)" fill-opacity="0.3"></path>
<path d="M278.5 271l2 0l0 -87.3l-2 0Z" fill="rgb(227,73,2)" fill-opacity="0.3"></path>
<path d="M281.4 271l2 0l0 -85.9l-2 0Z" fill="rgb(227,73,2)" fill-opacity="0.3"></path>
<path d="M284.2 271l2 0l0 -84.6l-2 0Z" fill="rgb(227,73,2)" fill-opacity="0.3"></path>
<path d="M287 271l2 0l0 -83.8l-2 0Z" fill="rgb(227,73,2)" fill-opacity="0.3"></path>
<path d="M289.9 271l2 0l0 -82.9l-2 0Z" fill="rgb(227,73,2)" fill-opacity="0.3"></path>
<path d="M292.7 271l2 0l0 -82.6l-2 0Z" fill="rgb(227,73,2)" fill-opacity="0.3"></path>
<path d="M295.5 271l2 0l0 -81.4l-2 0Z" fill="rgb(227,73,2)" fill-opacity="0.3"></path>
<path d="M298.4 271l2 0l0 -80.9l-2 0Z" fill="rgb(227,73,2)" fill-opacity="0.3"></path>
<path d="M301.2 271l2 0l0 -80.4l-2 0Z" fill="rgb(227,73,2)" fill-opacity="0.3"></path>
<path d="M304 271l2 0l0 -79.9l-2 0Z" fill="rgb(227,73,2)" fill-opacity="0.3"></path>
<path d="M306.9 271l2 0l0 -79.3l-2 0Z" fill="rgb(227,73,2)" fill-opacity="0.3"></path>
<path d="M309.7 271l2 0l0 -78.5l-2 0Z" fill="rgb(227,73,2)" fill-opacity="0.3"></path>
<path d="M312.5 271l2 0l0 -77.8l-2 0Z" fill="rgb(227,73,2)" fill-opacity="0.3"></path>
<path d="M315.4 271l2 0l0 -77.5l-2 0Z" fill="rgb(227,73,2)" fill-opacity="0.3"></path>
<path d="M318.2 271l2 0l0 -76.9l-2 0Z" fill="rgb(227,73,2)" fill-opacity="0.3"></path>
<path d="M321 271l2 0l0 -76.3l-2 0Z" fill="rgb(227,73,2)" fill-opacity="0.3"></path>
<path d="M323.9 271l2 0l0 -76l-2 0Z" fill="rgb(227,73,2)" fill-opacity="0.3"></path>
<path d="M326.7 271l2 0l0 -75.9l-2 0Z" fill="rgb(227,73,2)" fill-opacity="0.3"></path>
<path d="M329.6 271l2 0l0 -75.7l-2 0Z" fill="rgb(227,73,2)" fill-opacity="0.3"></path>
<path d="M332.4 271l2 0l0 -75.7l-2 0Z" fill="rgb(227,73,2)" fill-opacity="0.3"></path>
<path d="M335.2 271l2 0l0 -75.6l-2 0Z" fill="rgb(227,73,2)" fill-opacity="0.3"></path>
<path d="M338.1 271l2 0l0 -75.6l-2 0Z" fill="rgb(227,73,2)" fill-opacity="0.3"></path>
<path d="M340.9 271l2 0l0 -75.5l-2 0Z" fill="rgb(227,73,2)" fill-opacity="0.3"></path>
<path d="M343.7 271l2 0l0 -75.5l-2 0Z" fill="rgb(227,73,2)" fill-opacity="0.3"></path>
<path d="M346.6 271l2 0l0 -75.5l-2 0Z" fill="rgb(227,73,2)" fill-opacity="0.3"></path>
<path d="M349.4 271l2 0l0 -75.4l-2 0Z" fill="rgb(227,73,2)" fill-opacity="0.3"></path>
<path d="M352.2 271l2 0l0 -72.1l-2 0Z" fill="rgb(227,73,2)" fill-opacity="0.3"></path>
<path d="M355.1 271l2 0l0 -68.6l-2 0Z" fill="rgb(227,73,2)" fill-opacity="0.3"></path>
<path d="M357.9 271l2 0l0 -65.8l-2 0Z" fill="rgb(227,73,2)" fill-opacity="0.3"></path>
<path d="M360.7 271l2 0l0 -63.4l-2 0Z" fill="rgb(227,73,2)" fill-opacity="0.3"></path>
<path d="M363.6 271l2 0l0 -61.6l-2 0Z" fill="rgb(227,73,2)" fill-opacity="0.3"></path>
<path d="M366.4 271l2 0l0 -59.6l-2 0Z" fill="rgb(227,73,2)" fill-opacity="0.3"></path>
<path d="M369.3 271l2 0l0 -58l-2 0Z" fill="rgb(227,73,2)" fill-opacity="0.3"></path>
<path d="M372.1 271l2 0l0 -56.1l-2 0Z" fill="rgb(227,73,2)" fill-opacity="0.3"></path>
<path d="M374.9 271l2 0l0 -54.6l-2 0Z" fill="rgb(227,73,2)" fill-opacity="0.3"></path>
<path d="M377.8 271l2 0l0 -53.8l-2 0Z" fill="rgb(227,73,2)" fill-opacity="0.3"></path>
<path d="M380.6 271l2 0l0 -52.6l-2 0Z" fill="rgb(227,73,2)" fill-opacity="0.3"></path>
<path d="M383.4 271l2 0l0 -51.3l-2 0Z" fill="rgb(227,73,2)" fill-opacity="0.3"></path>
<path d="M386.3 271l2 0l0 -49.7l-2 0Z" fill="rgb(227,73,2)" fill-opacity="0.3"></path>
<path d="M389.1 271l2 0l0 -47.8l-2 0Z" fill="rgb(227,73,2)" fill-opacity="0.3"></path>
<path d="M391.9 271l2 0l0 -46.6l-2 0Z" fill="rgb(227,73,2)" fill-opacity="0.3"></path>
<path d="M394.8 271l2 0l0 -45.5l-2 0Z" fill="rgb(227,73,2)" fill-opacity="0.3"></path>
<path d="M397.6 271l2 0l0 -44.6l-2 0Z" fill="rgb(227,73,2)" fill-opacity="0.3"></path>
<path d="M400.4 271l2 0l0 -43.7l-2 0Z" fill="rgb(227,73,2)" fill-opacity="0.3"></path>
<path d="M403.3 271l2 0l0 -42.5l-2 0Z" fill="rgb(227,73,2)" fill-opacity="0.3"></path>
<path d="M406.1 271l2 0l0 -42.4l-2 0Z" fill="rgb(227,73,2)" fill-opacity="0.3"></path>
<path d="M409 271l2 0l0 -40.2l-2 0Z" fill="rgb(227,73,2)" fill-opacity="0.3"></path>
<path d="M411.8 271l2 0l0 -38.7l-2 0Z" fill="rgb(227,73,2)" fill-opacity="0.3"></path>
<path d="M414.6 271l2 0l0 -37.7l-2 0Z" fill="rgb(227,73,2)" fill-opacity="0.3"></path>
<path d="M417.5 271l2 0l0 -36.7l-2 0Z" fill="rgb(227,73,2)" fill-opacity="0.3"></path>
<path d="M420.3 271l2 0l0 -36.1l-2 0Z" fill="rgb(227,73,2)" fill-opacity="0.3"></path>
<path d="M423.1 271l2 0l0 -35.1l-2 0Z" fill="rgb(227,73,2)" fill-opacity="0.3"></path>
<path d="M426 271l2 0l0 -34.1l-2 0Z" fill="rgb(227,73,2)" fill-opacity="0.3"></path>
<path d="M428.8 271l2 0l0 -33.3l-2 0Z" fill="rgb(227,73,2)" fill-opacity="0.3"></path>
<path d="M431.6 271l2 0l0 -32.8l-2 0Z" fill="rgb(227,73,2)" fill-opacity="0.3"></path>
<path d="M434.5 271l2 0l0 -32.4l-2 0Z" fill="rgb(227,73,2)" fill-opacity="0.3"></path>
<path d="M437.3 271l2 0l0 -31.7l-2 0Z" fill="rgb(227,73,2)" fill-opacity="0.3"></path>
<path d="M440.1 271l2 0l0 -31.3l-2 0Z" fill="rgb(227,73,2)" fill-opacity="0.3"></path>
<path d="M443 271l2 0l0 -30.8l-2 0Z" fill="rgb(227,73,2)" fill-opacity="0.3"></path>
<path d="M445.8 271l2 0l0 -29.8l-2 0Z" fill="rgb(227,73,2)" fill-opacity="0.3"></path>
<path d="M448.7 271l2 0l0 -29.2l-2 0Z" fill="rgb(227,73,2)" fill-opacity="0.3"></path>
<path d="M451.5 271l2 0l0 -28.5l-2 0Z" fill="rgb(227,73,2)" fill-opacity="0.3"></path>
<path d="M454.3 271l2 0l0 -27.6l-2 0Z" fill="rgb(227,73,2)" fill-opacity="0.3"></path>
<path d="M457.2 271l2 0l0 -27.2l-2 0Z" fill="rgb(227,73,2)" fill-opacity="0.3"></path>
<path d="M460 271l2 0l0 -26.9l-2 0Z" fill="rgb(227,73,2)" fill-opacity="0.3"></path>
<path d="M462.8 271l2 0l0 -26.5l-2 0Z" fill="rgb(227,73,2)" fill-opacity="0.3"></path>
<path d="M465.7 271l2 0l0 -25.6l-2 0Z" fill="rgb(227,73,2)" fill-opacity="0.3"></path>
<path d="M468.5 271l2 0l0 -24.5l-2 0Z" fill="rgb(227,73,2)" fill-opacity="0.3"></path>
<path d="M471.3 271l2 0l0 -23.9l-2 0Z" fill="rgb(227,73,2)" fill-opacity="0.3"></path>
<path d="M474.2 271l2 0l0 -23.5l-2 0Z" fill="rgb(227,73,2)" fill-opacity="0.3"></path>
<path d="M477 271l2 0l0 -23.2l-2 0Z" fill="rgb(227,73,2)" fill-opacity="0.3"></path>
<path d="M479.8 271l2 0l0 -23l-2 0Z" fill="rgb(227,73,2)" fill-opacity="0.3"></path>
<path d="M482.7 271l2 0l0 -22.7l-2 0Z" fill="rgb(227,73,2)" fill-opacity="0.3"></path>
<path d="M485.5 271l2 0l0 -22.5l-2 0Z" fill="rgb(227,73,2)" fill-opacity="0.3"></path>
<path d="M488.4 271l2 0l0 -22.3l-2 0Z" fill="rgb(227,73,2)" fill-opacity="0.3"></path>
<path d="M491.2 271l2 0l0 -22l-2 0Z" fill="rgb(227,73,2)" fill-opacity="0.3"></path>
<path d="M494 271l2 0l0 -21.5l-2 0Z" fill="rgb(227,73,2)" fill-opacity="0.3"></path>
<path d="M496.9 271l2 0l0 -21.1l-2 0Z" fill="rgb(227,73,2)" fill-opacity="0.3"></path>
<path d="M499.7 271l2 0l0 -20.7l-2 0Z" fill="rgb(227,73,2)" fill-opacity="0.3"></path>
<path d="M502.5 271l2 0l0 -20l-2 0Z" fill="rgb(227,73,2)" fill-opacity="0.3"></path>
<path d="M505.4 271l2 0l0 -19.6l-2 0Z" fill="rgb(227,73,2)" fill-opacity="0.3"></path>
<path d="M508.2 271l2 0l0 -19.1l-2 0Z" fill="rgb(227,73,2)" fill-opacity="0.3"></path>
<path d="M511 271l2 0l0 -19l-2 0Z" fill="rgb(227,73,2)" fill-opacity="0.3"></path>
<path d="M513.9 271l2 0l0 -18.8l-2 0Z" fill="rgb(227,73,2)" fill-opacity="0.3"></path>
<path d="M516.7 271l2 0l0 -18.6l-2 0Z" fill="rgb(227,73,2)" fill-opacity="0.3"></path>
<path d="M519.5 271l2 0l0 -18.5l-2 0Z" fill="rgb(227,73,2)" fill-opacity="0.3"></path>
<path d="M522.4 271l2 0l0 -18.4l-2 0Z" fill="rgb(227,73,2)" fill-opacity="0.3"></path>
<path d="M525.2 271l2 0l0 -17.6l-2 0Z" fill="rgb(227,73,2)" fill-opacity="0.3"></path>
<path d="M528 271l2 0l0 -16.8l-2 0Z" fill="rgb(227,73,2)" fill-opacity="0.3"></path>
<path d="M530.9 271l2 0l0 -16.3l-2 0Z" fill="rgb(227,73,2)" fill-opacity="0.3"></path>
<path d="M533.7 271l2 0l0 -16.1l-2 0Z" fill="rgb(227,73,2)" fill-opacity="0.3"></path>
<path d="M536.6 271l2 0l0 -15.5l-2 0Z" fill="rgb(227,73,2)" fill-opacity="0.3"></path>
<path d="M539.4 271l2 0l0 -15.3l-2 0Z" fill="rgb(227,73,2)" fill-opacity="0.3"></path>
<path d="M542.2 271l2 0l0 -15l-2 0Z" fill="rgb(227,73,2)" fill-opacity="0.3"></path>
<path d="M545.1 271l2 0l0 -15l-2 0Z" fill="rgb(227,73,2)" fill-opacity="0.3"></path>
<path d="M547.9 271l2 0l0 -14.9l-2 0Z" fill="rgb(227,73,2)" fill-opacity="0.3"></path>
<path d="M550.7 271l2 0l0 -14.9l-2 0Z" fill="rgb(227,73,2)" fill-opacity="0.3"></path>
<path d="M553.6 271l2 0l0 -14.8l-2 0Z" fill="rgb(227,73,2)" fill-opacity="0.8"></path>
<path d="M556.4 271l2 0l0 -14.5l-2 0Z" fill="rgb(227,73,2)" fill-opacity="0.3"></path>
<path d="M559.2 271l2 0l0 -14.2l-2 0Z" fill="rgb(227,73,2)" fill-opacity="0.3"></path>
<path d="M562.1 271l2 0l0 -14.2l-2 0Z" fill="rgb(227,73,2)" fill-opacity="0.3"></path>
<path d="M564.9 271l2 0l0 -13.7l-2 0Z" fill="rgb(227,73,2)" fill-opacity="0.3"></path>
<path d="M567.7 271l2 0l0 -13.6l-2 0Z" fill="rgb(227,73,2)" fill-opacity="0.3"></path>
<path d="M570.6 271l2 0l0 -13.5l-2 0Z" fill="rgb(227,73,2)" fill-opacity="0.3"></path>
<path d="M573.4 271l2 0l0 -13.5l-2 0Z" fill="rgb(227,73,2)" fill-opacity="0.3"></path>
<path d="M576.3 271l2 0l0 -13.5l-2 0Z" fill="rgb(227,73,2)" fill-opacity="0.3"></path>
<path d="M579.1 271l2 0l0 -13.5l-2 0Z" fill="rgb(227,73,2)" fill-opacity="0.3"></path>
<path d="M581.9 271l2 0l0 -13.5l-2 0Z" fill="rgb(227,73,2)" fill-opacity="0.3"></path>
<path d="M584.8 271l2 0l0 -13.3l-2 0Z" fill="rgb(227,73,2)" fill-opacity="0.3"></path>
<path d="M587.6 271l2 0l0 -13.1l-2 0Z" fill="rgb(227,73,2)" fill-opacity="0.3"></path>
<path d="M590.4 271l2 0l0 -13l-2 0Z" fill="rgb(227,73,2)" fill-opacity="0.3"></path>
<path d="M593.3 271l2 0l0 -13l-2 0Z" fill="rgb(227,73,2)" fill-opacity="0.3"></path>
<path d="M596.1 271l2 0l0 -13l-2 0Z" fill="rgb(227,73,2)" fill-opacity="0.3"></path>
<path d="M598.9 271l2 0l0 -12.9l-2 0Z" fill="rgb(227,73,2)" fill-opacity="0.3"></path>
<path d="M601.8 271l2 0l0 -12.8l-2 0Z" fill="rgb(227,73,2)" fill-opacity="0.3"></path>
<path d="M604.6 271l2 0l0 -12.8l-2 0Z" fill="rgb(227,73,2)" fill-opacity="0.3"></path>
<path d="M607.4 271l2 0l0 -12.8l-2 0Z" fill="rgb(227,73,2)" fill-opacity="0.3"></path>
<path d="M610.3 271l2 0l0 -12.8l-2 0Z" fill="rgb(227,73,2)" fill-opacity="0.3"></path>
<path d="M613.1 271l2 0l0 -12.8l-2 0Z" fill="rgb(227,73,2)" fill-opacity="0.3"></path>
<path d="M616 271l2 0l0 -12.7l-2 0Z" fill="rgb(227,73,2)" fill-opacity="0.3"></path>
<path d="M618.8 271l2 0l0 -12.7l-2 0Z" fill="rgb(227,73,2)" fill-opacity="0.3"></path>
<path d="M621.6 271l2 0l0 -12.7l-2 0Z" fill="rgb(227,73,2)" fill-opacity="0.3"></path>
<path d="M624.5 271l2 0l0 -12.7l-2 0Z" fill="rgb(227,73,2)" fill-opacity="0.3"></path>
<path d="M627.3 271l2 0l0 -12.7l-2 0Z" fill="rgb(227,73,2)" fill-opacity="0.3"></path>
<path d="M630.1 271l2 0l0 -12.7l-2 0Z" fill="rgb(227,73,2)" fill-opacity="0.3"></path>
<path d="M633 271l2 0l0 -12.7l-2 0Z" fill="rgb(227,73,2)" fill-opacity="0.3"></path>
<path d="M635.8 271l2 0l0 -12l-2 0Z" fill="rgb(227,73,2)" fill-opacity="0.3"></path>
<path d="M638.6 271l2 0l0 -10.6l-2 0Z" fill="rgb(227,73,2)" fill-opacity="0.3"></path>
<path d="M641.5 271l2 0l0 -9.8l-2 0Z" fill="rgb(227,73,2)" fill-opacity="0.3"></path>
<path d="M644.3 271l2 0l0 -8.9l-2 0Z" fill="rgb(227,73,2)" fill-opacity="0.3"></path>
<path d="M647.1 271l2 0l0 -8.6l-2 0Z" fill="rgb(227,73,2)" fill-opacity="0.3"></path>
<path d="M650 271l2 0l0 -8.1l-2 0Z" fill="rgb(227,73,2)" fill-opacity="0.3"></path>
<path d="M652.8 271l2 0l0 -7.8l-2 0Z" fill="rgb(227,73,2)" fill-opacity="0.3"></path>
<path d="M655.7 271l2 0l0 -7.5l-2 0Z" fill="rgb(227,73,2)" fill-opacity="0.3"></path>
<path d="M658.5 271l2 0l0 -6.9l-2 0Z" fill="rgb(227,73,2)" fill-opacity="0.3"></path>
<path d="M661.3 271l2 0l0 -6.7l-2 0Z" fill="rgb(227,73,2)" fill-opacity="0.3"></path>
<path d="M664.2 271l2 0l0 -6.3l-2 0Z" fill="rgb(227,73,2)" fill-opacity="0.3"></path>
<path d="M667 271l2 0l0 -5.7l-2 0Z" fill="rgb(227,73,2)" fill-opacity="0.3"></path>
<path d="M669.8 271l2 0l0 -5.6l-2 0Z" fill="rgb(227,73,2)" fill-opacity="0.3"></path>
<path d="M672.7 271l2 0l0 -5.3l-2 0Z" fill="rgb(227,73,2)" fill-opacity="0.3"></path>
<path d="M675.5 271l2 0l0 -5.2l-2 0Z" fill="rgb(227,73,2)" fill-opacity="0.3"></path>
<path d="M678.3 271l2 0l0 -4.9l-2 0Z" fill="rgb(227,73,2)" fill-opacity="0.3"></path>
<path d="M681.2 271l2 0l0 -4.7l-2 0Z" fill="rgb(227,73,2)" fill-opacity="0.3"></path>
<path d="M684 271l2 0l0 -4.6l-2 0Z" fill="rgb(227,73,2)" fill-opacity="0.3"></path>
<path d="M686.8 271l2 0l0 -4.5l-2 0Z" fill="rgb(227,73,2)" fill-opacity="0.3"></path>
<path d="M689.7 271l2 0l0 -4.5l-2 0Z" fill="rgb(227,73,2)" fill-opacity="0.3"></path>
<path d="M692.5 271l2 0l0 -4.3l-2 0Z" fill="rgb(227,73,2)" fill-opacity="0.3"></path>
<path d="M695.4 271l2 0l0 -4l-2 0Z" fill="rgb(227,73,2)" fill-opacity="0.3"></path>
<path d="M698.2 271l2 0l0 -3.7l-2 0Z" fill="rgb(227,73,2)" fill-opacity="0.3"></path>
<path d="M701 271l2 0l0 -3.6l-2 0Z" fill="rgb(227,73,2)" fill-opacity="0.3"></path>
<path d="M703.9 271l2 0l0 -3.6l-2 0Z" fill="rgb(227,73,2)" fill-opacity="0.3"></path>
<path d="M706.7 271l2 0l0 -3.3l-2 0Z" fill="rgb(227,73,2)" fill-opacity="0.3"></path>
<path d="M709.5 271l2 0l0 -3.1l-2 0Z" fill="rgb(227,73,2)" fill-opacity="0.3"></path>
<path d="M712.4 271l2 0l0 -2.8l-2 0Z" fill="rgb(227,73,2)" fill-opacity="0.3"></path>
<path d="M715.2 271l2 0l0 -2.7l-2 0Z" fill="rgb(227,73,2)" fill-opacity="0.3"></path>
<path d="M718 271l2 0l0 -2.6l-2 0Z" fill="rgb(227,73,2)" fill-opacity="0.3"></path>
<path d="M720.9 271l2 0l0 -2.4l-2 0Z" fill="rgb(227,73,2)" fill-opacity="0.3"></path>
<path d="M723.7 271l2 0l0 -2.4l-2 0Z" fill="rgb(227,73,2)" fill-opacity="0.3"></path>
<path d="M726.5 271l2 0l0 -2.3l-2 0Z" fill="rgb(227,73,2)" fill-opacity="0.3"></path>
<path d="M729.4 271l2 0l0 -2.2l-2 0Z" fill="rgb(227,73,2)" fill-opacity="0.3"></path>
<path d="M732.2 271l2 0l0 -2.2l-2 0Z" fill="rgb(227,73,2)" fill-opacity="0.3"></path>
<path d="M735 271l2 0l0 -2.1l-2 0Z" fill="rgb(227,73,2)" fill-opacity="0.3"></path>
<path d="M737.9 271l2 0l0 -2.1l-2 0Z" fill="rgb(227,73,2)" fill-opacity="0.3"></path>
<path d="M740.7 271l2 0l0 -2l-2 0Z" fill="rgb(227,73,2)" fill-opacity="0.3"></path>
<path d="M743.6 271l2 0l0 -1.8l-2 0Z" fill="rgb(227,73,2)" fill-opacity="0.3"></path>
<path d="M746.4 271l2 0l0 -1.7l-2 0Z" fill="rgb(227,73,2)" fill-opacity="0.3"></path>
<path d="M749.2 271l2 0l0 -1.6l-2 0Z" fill="rgb(227,73,2)" fill-opacity="0.3"></path>
<path d="M752.1 271l2 0l0 -1.5l-2 0Z" fill="rgb(227,73,2)" fill-opacity="0.3"></path>
<path d="M754.9 271l2 0l0 -1.4l-2 0Z" fill="rgb(227,73,2)" fill-opacity="0.3"></path>
<path d="M757.7 271l2 0l0 -1.2l-2 0Z" fill="rgb(227,73,2)" fill-opacity="0.3"></path>
<path d="M760.6 271l2 0l0 -1.1l-2 0Z" fill="rgb(227,73,2)" fill-opacity="0.3"></path>
<path d="M763.4 271l2 0l0 -1.1l-2 0Z" fill="rgb(227,73,2)" fill-opacity="0.3"></path>
<path d="M766.2 271l2 0l0 -1.1l-2 0Z" fill="rgb(227,73,2)" fill-opacity="0.3"></path>
<path d="M769.1 271l2 0l0 -1.1l-2 0Z" fill="rgb(227,73,2)" fill-opacity="0.3"></path>
<path d="M771.9 271l2 0l0 -1.1l-2 0Z" fill="rgb(227,73,2)" fill-opacity="0.3"></path>
<path d="M774.7 271l2 0l0 -1.1l-2 0Z" fill="rgb(227,73,2)" fill-opacity="0.3"></path>
<path d="M777.6 271l2 0l0 -0.9l-2 0Z" fill="rgb(227,73,2)" fill-opacity="0.3"></path>
<path d="M780.4 271l2 0l0 -0.8l-2 0Z" fill="rgb(227,73,2)" fill-opacity="0.3"></path>
<path d="M783.3 271l2 0l0 -0.7l-2 0Z" fill="rgb(227,73,2)" fill-opacity="0.3"></path>
<path d="M786.1 271l2 0l0 -0.6l-2 0Z" fill="rgb(227,73,2)" fill-opacity="0.3"></path>
<path d="M788.9 271l2 0l0 -0.6l-2 0Z" fill="rgb(227,73,2)" fill-opacity="0.3"></path>
<path d="M791.8 271l2 0l0 -0.5l-2 0Z" fill="rgb(227,73,2)" fill-opacity="0.3"></path>
<path d="M794.6 271l2 0l0 -0.5l-2 0Z" fill="rgb(227,73,2)" fill-opacity="0.3"></path>
<path d="M797.4 271l2 0l0 -0.5l-2 0Z" fill="rgb(227,73,2)" fill-opacity="0.3"></path>
<path d="M800.3 271l2 0l0 -0.5l-2 0Z" fill="rgb(227,73,2)" fill-opacity="0.3"></path>
<path d="M803.1 271l2 0l0 -0.5l-2 0Z" fill="rgb(227,73,2)" fill-opacity="0.3"></path>
<path d="M805.9 271l2 0l0 -0.5l-2 0Z" fill="rgb(227,73,2)" fill-opacity="0.3"></path>
<path d="M808.8 271l2 0l0 -0.5l-2 0Z" fill="rgb(227,73,2)" fill-opacity="0.3"></path>
<path d="M811.6 271l2 0l0 -0.5l-2 0Z" fill="rgb(227,73,2)" fill-opacity="0.3"></path>
<path d="M814.4 271l2 0l0 -0.5l-2 0Z" fill="rgb(227,73,2)" fill-opacity="0.3"></path>
<path d="M817.3 271l2 0l0 -0.5l-2 0Z" fill="rgb(227,73,2)" fill-opacity="0.3"></path>
<path d="M820.1 271l2 0l0 -0.4l-2 0Z" fill="rgb(227,73,2)" fill-opacity="0.3"></path>
<path d="M823 271l2 0l0 -0.4l-2 0Z" fill="rgb(227,73,2)" fill-opacity="0.3"></path>
<path d="M825.8 271l2 0l0 -0.4l-2 0Z" fill="rgb(227,73,2)" fill-opacity="0.3"></path>
<path d="M828.6 271l2 0l0 -0.4l-2 0Z" fill="rgb(227,73,2)" fill-opacity="0.3"></path>
<path d="M831.5 271l2 0l0 -0.3l-2 0Z" fill="rgb(227,73,2)" fill-opacity="0.3"></path>
<path d="M834.3 271l2 0l0 -0.3l-2 0Z" fill="rgb(227,73,2)" fill-opacity="0.3"></path>
<path d="M837.1 271l2 0l0 -0.3l-2 0Z" fill="rgb(227,73,2)" fill-opacity="0.3"></path>
<path d="M840 271l2 0l0 -0.3l-2 0Z" fill="rgb(227,73,2)" fill-opacity="0.3"></path>
<path d="M842.8 271l2 0l0 -0.3l-2 0Z" fill="rgb(227,73,2)" fill-opacity="0.3"></path>
<path d="M845.6 271l2 0l0 -0.3l-2 0Z" fill="rgb(227,73,2)" fill-opacity="0.3"></path>
<path d="M848.5 271l2 0l0 -0.3l-2 0Z" fill="rgb(227,73,2)" fill-opacity="0.3"></path>
<path d="M851.3 271l2 0l0 -0.2l-2 0Z" fill="rgb(227,73,2)" fill-opacity="0.3"></path>
<path d="M854.1 271l2 0l0 -0.2l-2 0Z" fill="rgb(227,73,2)" fill-opacity="0.3"></path>
<path d="M857 271l2 0l0 -0.2l-2 0Z" fill="rgb(227,73,2)" fill-opacity="0.3"></path>
<path d="M859.8 271l2 0l0 -0.2l-2 0Z" fill="rgb(227,73,2)" fill-opacity="0.3"></path>
<path d="M862.7 271l2 0l0 -0.2l-2 0Z" fill="rgb(227,73,2)" fill-opacity="0.3"></path>
<path d="M865.5 271l2 0l0 -0.2l-2 0Z" fill="rgb(227,73,2)" fill-opacity="0.3"></path>
<path d="M868.3 271l2 0l0 -0.2l-2 0Z" fill="rgb(227,73,2)" fill-opacity="0.3"></path>
<path d="M871.2 271l2 0l0 -0.1l-2 0Z" fill="rgb(227,73,2)" fill-opacity="0.3"></path>
<path d="M874 271l2 0l0 -0.1l-2 0Z" fill="rgb(227,73,2)" fill-opacity="0.3"></path>
<path d="M876.8 271l2 0l0 -0.1l-2 0Z" fill="rgb(227,73,2)" fill-opacity="0.3"></path>
<path d="M879.7 271l2 0l0 -0.1l-2 0Z" fill="rgb(227,73,2)" fill-opacity="0.3"></path>
<path d="M882.5 271l2 0l0 -0.1l-2 0Z" fill="rgb(227,73,2)" fill-opacity="0.3"></path>
<path d="M885.3 271l2 0l0 -0.1l-2 0Z" fill="rgb(227,73,2)" fill-opacity="0.3"></path>
<path d="M888.2 271l2 0l0 -0.1l-2 0Z" fill="rgb(227,73,2)" fill-opacity="0.3"></path>
<path d="M891 271l2 0l0 -0.1l-2 0Z" fill="rgb(227,73,2)" fill-opacity="0.3"></path>
<path d="M893.8 271l2 0l0 -0.1l-2 0Z" fill="rgb(227,73,2)" fill-opacity="0.3"></path>
<path d="M896.7 271l2 0l0 -0.1l-2 0Z" fill="rgb(227,73,2)" fill-opacity="0.3"></path>
<path d="M899.5 271l2 0l0 -0.1l-2 0Z" fill="rgb(227,73,2)" fill-opacity="0.3"></path>
<path d="M902.4 271l2 0l0 -0.1l-2 0Z" fill="rgb(227,73,2)" fill-opacity="0.3"></path>
<path d="M905.2 271l2 0l0 -0.1l-2 0Z" fill="rgb(227,73,2)" fill-opacity="0.3"></path>
<path d="M908 271l2 0l0 -0.1l-2 0Z" fill="rgb(227,73,2)" fill-opacity="0.3"></path>
<path d="M910.9 271l2 0l0 -0.1l-2 0Z" fill="rgb(227,73,2)" fill-opacity="0.3"></path>
<path d="M913.7 271l2 0l0 -0.1l-2 0Z" fill="rgb(227,73,2)" fill-opacity="0.3"></path>
<path d="M916.5 271l2 0l0 -0.1l-2 0Z" fill="rgb(227,73,2)" fill-opacity="0.3"></path>
<path d="M919.4 271l2 0l0 -0.1l-2 0Z" fill="rgb(227,73,2)" fill-opacity="0.3"></path>
<path d="M-5 -5l226.9 0l0 24l-226.9 0Z" transform="translate(391.54 5)" fill="rgb(0,0,0)" fill-opacity="0" stroke="#ccc" stroke-width="0"></path>
<path d="M3.5 0L21.5 0A3.5 3.5 0 0 1 25 3.5L25 10.5A3.5 3.5 0 0 1 21.5 14L3.5 14A3.5 3.5 0 0 1 0 10.5L0 3.5A3.5 3.5 0 0 1 3.5 0" transform="translate(391.54 5)" fill="rgb(227,73,2)" fill-opacity="0.3"></path>
<text dominant-baseline="central" text-anchor="start" style="font-size:12px;font-family:sans-serif;" xml:space="preserve" x="30" y="7" transform="translate(391.54 5)" fill="#333">Times completed</text>
<path d="M0 7L25 7" transform="translate(524.1 5)" fill="#000" stroke="#E34902" stroke-width="2" stroke-linecap="butt" stroke-miterlimit="10"></path>
<path d="M18.1 7A5.6 5.6 0 1 1 18.1 6.4A5.6 5.6 0 0 1 18.1 7" transform="translate(524.1 5)" fill="#fff" stroke="#E34902" stroke-width="2" stroke-linecap="butt" stroke-miterlimit="10"></path>
<text dominant-baseline="central" text-anchor="start" style="font-size:12px;font-family:sans-serif;" x="30" y="7" transform="translate(524.1 5)" fill="#333">Eddington</text>
<path d="M-0.54 -0.89A0.6 0.6 0 1 1 0.54 -0.89C0.39 -0.56 0 -0.42 0 0C0 -0.42 -0.39 -0.56 -0.54 -0.89Z" transform="matrix(25,0,0,25,554.5479,251.3329)" fill="rgb(227,73,2)" fill-opacity="0.8"></path>
<text dominant-baseline="central" text-anchor="middle" style="font-size:12px;font-family:sans-serif;" transform="translate(554.5479 225.1901)" fill="#eee" stroke="rgb(227,73,2)" stroke-width="2" paint-order="stroke" stroke-opacity="0.8" stroke-miterlimit="2">172</text>
<g clip-path="url(#zr0-c0)">
<path d="M69.7 270.9L72.5 270.8L75.3 270.7L78.2 270.7L81 270.6L83.8 270.5L86.7 270.4L89.5 270.3L92.3 270.2L95.2 270.1L98 270.1L100.8 270L103.7 269.9L106.5 269.8L109.4 269.7L112.2 269.6L115 269.5L117.9 269.5L120.7 269.4L123.5 269.3L126.4 269.2L129.2 269.1L132 269L134.9 268.9L137.7 268.9L140.5 268.8L143.4 268.7L146.2 268.6L149.1 268.5L151.9 268.4L154.7 268.3L157.6 268.3L160.4 268.2L163.2 268.1L166.1 268L168.9 267.9L171.7 267.8L174.6 267.7L177.4 267.7L180.2 267.6L183.1 267.5L185.9 267.4L188.8 267.3L191.6 267.2L194.4 267.1L197.3 267.1L200.1 267L202.9 266.9L205.8 266.8L208.6 266.7L211.4 266.6L214.3 266.5L217.1 266.5L219.9 266.4L222.8 266.3L225.6 266.2L228.5 266.1L231.3 266L234.1 265.9L237 265.9L239.8 265.8L242.6 265.7L245.5 265.6L248.3 265.5L251.1 265.4L254 265.3L256.8 265.3L259.6 265.2L262.5 265.1L265.3 265L268.2 264.9L271 264.8L273.8 264.7L276.7 264.7L279.5 264.6L282.3 264.5L285.2 264.4L288 264.3L290.8 264.2L293.7 264.1L296.5 264.1L299.3 264L302.2 263.9L305 263.8L307.8 263.7L310.7 263.6L313.5 263.5L316.4 263.5L319.2 263.4L322 263.3L324.9 263.2L327.7 263.1L330.5 263L333.4 262.9L336.2 262.9L339 262.8L341.9 262.7L344.7 262.6L347.5 262.5L350.4 262.4L353.2 262.3L356.1 262.3L358.9 262.2L361.7 262.1L364.6 262L367.4 261.9L370.2 261.8L373.1 261.7L375.9 261.7L378.7 261.6L381.6 261.5L384.4 261.4L387.2 261.3L390.1 261.2L392.9 261.1L395.8 261.1L398.6 261L401.4 260.9L404.3 260.8L407.1 260.7L409.9 260.6L412.8 260.5L415.6 260.5L418.4 260.4L421.3 260.3L424.1 260.2L426.9 260.1L429.8 260L432.6 259.9L435.5 259.8L438.3 259.8L441.1 259.7L444 259.6L446.8 259.5L449.6 259.4L452.5 259.3L455.3 259.2L458.1 259.2L461 259.1L463.8 259L466.6 258.9L469.5 258.8L472.3 258.7L475.2 258.6L478 258.6L480.8 258.5L483.7 258.4L486.5 258.3L489.3 258.2L492.2 258.1L495 258L497.8 258L500.7 257.9L503.5 257.8L506.3 257.7L509.2 257.6L512 257.5L514.8 257.4L517.7 257.4L520.5 257.3L523.4 257.2L526.2 257.1L529 257L531.9 256.9L534.7 256.8L537.5 256.8L540.4 256.7L543.2 256.6L546 256.5L548.9 256.4L551.7 256.3L554.5 256.2L557.4 256.2L560.2 256.1L563.1 256L565.9 255.9L568.7 255.8L571.6 255.7L574.4 255.6L577.2 255.6L580.1 255.5L582.9 255.4L585.7 255.3L588.6 255.2L591.4 255.1L594.2 255L597.1 255L599.9 254.9L602.8 254.8L605.6 254.7L608.4 254.6L611.3 254.5L614.1 254.4L616.9 254.4L619.8 254.3L622.6 254.2L625.4 254.1L628.3 254L631.1 253.9L633.9 253.8L636.8 253.8L639.6 253.7L642.5 253.6L645.3 253.5L648.1 253.4L651 253.3L653.8 253.2L656.6 253.2L659.5 253.1L662.3 253L665.1 252.9L668 252.8L670.8 252.7L673.6 252.6L676.5 252.6L679.3 252.5L682.2 252.4L685 252.3L687.8 252.2L690.7 252.1L693.5 252L696.3 252L699.2 251.9L702 251.8L704.8 251.7L707.7 251.6L710.5 251.5L713.3 251.4L716.2 251.4L719 251.3L721.8 251.2L724.7 251.1L727.5 251L730.4 250.9L733.2 250.8L736 250.8L738.9 250.7L741.7 250.6L744.5 250.5L747.4 250.4L750.2 250.3L753 250.2L755.9 250.2L758.7 250.1L761.5 250L764.4 249.9L767.2 249.8L770.1 249.7L772.9 249.6L775.7 249.6L778.6 249.5L781.4 249.4L784.2 249.3L787.1 249.2L789.9 249.1L792.7 249L795.6 249L798.4 248.9L801.2 248.8L804.1 248.7L806.9 248.6L809.8 248.5L812.6 248.4L815.4 248.4L818.3 248.3L821.1 248.2L823.9 248.1L826.8 248L829.6 247.9L832.4 247.8L835.3 247.8L838.1 247.7L840.9 247.6L843.8 247.5L846.6 247.4L849.5 247.3L852.3 247.2L855.1 247.2L858 247.1L860.8 247L863.6 246.9L866.5 246.8L869.3 246.7L872.1 246.6L875 246.6L877.8 246.5L880.6 246.4L883.5 246.3L886.3 246.2L889.2 246.1L892 246L894.8 246L897.7 245.9L900.5 245.8L903.3 245.7L906.2 245.6L909 245.5L911.8 245.4L914.7 245.4L917.5 245.3L920.3 245.2" fill="none" stroke="#E34902" stroke-width="2" stroke-linejoin="bevel"></path>
</g>
<defs >
<clipPath id="zr0-c0">
<path d="M67 59l856 0l0 213l-856 0Z" fill="#000"></path>
</clipPath>
</defs>
</svg>